<svg xmlns="http://www.w3.org/2000/svg" xmlns:xlink="http://www.w3.org/1999/xlink" viewBox="0 0 100 100"><defs><linearGradient id="a" x1="-82.64" y1="86.62" x2="10.09" y2="86.62" gradientTransform="matrix(-1, 0, 0, 1, 17.36, 0)" gradientUnits="userSpaceOnUse"><stop offset="0" stop-color="#e38727"/><stop offset="0.42" stop-color="#c17428"/><stop offset="0.77" stop-color="#ab6828"/><stop offset="1" stop-color="#a36428"/></linearGradient><linearGradient id="b" x1="-31.49" y1="65.43" x2="2.83" y2="65.43" gradientTransform="matrix(-1, 0, 0, 1, 17.36, 0)" gradientUnits="userSpaceOnUse"><stop offset="0" stop-color="#e27f54"/><stop offset="0.35" stop-color="#c9714b"/><stop offset="0.75" stop-color="#b36544"/><stop offset="1" stop-color="#ab6041"/></linearGradient><linearGradient id="c" x1="-74.33" y1="56.2" x2="-22.21" y2="56.2" gradientTransform="matrix(-1, 0, 0, 1, 17.36, 0)" gradientUnits="userSpaceOnUse"><stop offset="0" stop-color="#4889a2"/><stop offset="0.4" stop-color="#3b6e82"/><stop offset="0.77" stop-color="#315c6c"/><stop offset="1" stop-color="#2e5564"/></linearGradient><linearGradient id="d" x1="-54.04" y1="30.48" x2="-39.23" y2="30.48" xlink:href="#b"/><linearGradient id="e" x1="-74.39" y1="72.19" x2="-41.96" y2="72.19" xlink:href="#b"/><linearGradient id="f" x1="-45.05" y1="73.93" x2="-34.21" y2="73.93" xlink:href="#b"/><linearGradient id="g" x1="-18.87" y1="78.32" x2="5.27" y2="78.32" gradientTransform="matrix(1, 0, 0, -1, 30.96, 156.64)" xlink:href="#c"/><linearGradient id="h" x1="-37.06" y1="55.6" x2="10.55" y2="55.6" gradientTransform="matrix(1, 0, 0, -1, 43.87, 111.19)" xlink:href="#c"/><linearGradient id="i" x1="-14.39" y1="67.46" x2="2.69" y2="67.46" xlink:href="#c"/></defs><title>contacts-01</title><path d="M100,77.89H7.27s23.49,39.27,92.73,0" fill="url(#a)"/><line x1="99.82" y1="77.11" x2="4" y2="77.11" fill="none" stroke="#010101" stroke-linecap="round" stroke-linejoin="round"/><path d="M39.57,60.13l-3.08,3-22,10s2.86,1.9,5.14,1.45S39.82,70.31,41,70s5-4.76,7.88-8.28L43.33,56.2Z" fill="url(#b)"/><path d="M59,38.32s.64,3.55-1.9,4.56A19.43,19.43,0,0,0,45.28,54.17l-5.71,6,7.61,8.37,2.92-3.3a23.14,23.14,0,0,1,.63,11.54H83.32l.51-8.49,7.86-1.53S90.37,50.37,79.05,45.29c0,0-6.53-1.52-7.85-4.82l-1.48-4.82Z" fill="url(#c)"/><path d="M80,68.51l7-1,.11.11-3.34.65-.51,8.49H74.05a21.36,21.36,0,0,0,4-11.85A19.72,19.72,0,0,1,80,68.51Z" fill="#010101"/><path d="M50.1,65.2l4-7.06S52.86,66,53,68.38c.12,1.63-.91,5.3-2.27,8.18A23.18,23.18,0,0,0,50.1,65.2Z" fill="#010101"/><path d="M60.42,73.73a3.41,3.41,0,0,1,1.44,3.76H51.36S49.5,72.11,60.42,73.73Z" fill="#5a5b95"/><path d="M60.42,73.73a3,3,0,0,1,1.09,1.16l0,0a3,3,0,0,1-.62.79,3.31,3.31,0,0,1-1.91.72,7,7,0,0,1-3.07-.69,2.53,2.53,0,0,1-1.62,1,1.83,1.83,0,0,1-.9,0,3.61,3.61,0,0,0-.46-.17c-.35-.07-.72.11-1,0a1.06,1.06,0,0,1-.5-.61C51.75,74.46,53.56,72.71,60.42,73.73Z" fill="#010101"/><path d="M63.37,51.49l-3-8.14-1.64-2.11A5.94,5.94,0,0,0,59,38.32l10.75-2.67,1.22,4-5.89,5.16Z" fill="#e27f54"/><path d="M59.72,42.57a9.53,9.53,0,0,1-.84-1.92A6.39,6.39,0,0,0,59,38.32l10.75-2.67.24.79c-.41,1.86-1.37,5.12-3.34,7l-.33.29a4.68,4.68,0,0,1-3.17,1.09,3.75,3.75,0,0,1-2.75-1.33l0-.11Z" fill="#010101"/><path d="M71.4,25.92S71.12,43,63.94,42.84,56.51,29.25,56.6,26.2c0,0-.18-7.93,7.23-8.07S71.4,25.92,71.4,25.92Z" stroke="#010101" stroke-miterlimit="10" stroke-width="0.25" fill="url(#d)"/><path d="M69.29,25.32a17.29,17.29,0,0,1,.31,3.74,5.62,5.62,0,0,0,1.12,3.51c0-.74.2-1.65.91-1.89a4.91,4.91,0,0,0,.51-.15,1.38,1.38,0,0,0,.59-.71A13.08,13.08,0,0,0,74,26.54a4.59,4.59,0,0,0-.53-3.41,2,2,0,0,0-1.37-.95,2.3,2.3,0,0,0,0-2.15,5.46,5.46,0,0,0-1.46-1.68,4.26,4.26,0,0,0-1.08-.7,4.8,4.8,0,0,0-1.81-.23A15.69,15.69,0,0,1,60,15.71a5.16,5.16,0,0,0-2.49-1.05,2.61,2.61,0,0,0-2.16,1.4,5.3,5.3,0,0,0-.56,2.61A2.38,2.38,0,0,0,55,19.76c.37.82,1.37,1.12,2,1.73-1.34,1.86-1.16,3.42-.42,6.5a8.58,8.58,0,0,1,2.81-6.47.35.35,0,0,1,.2-.12.38.38,0,0,1,.27.09c1.92,1.24,4.31,1.37,6.59,1.47.39,0,.45-.21.86-.12a2.17,2.17,0,0,1,.93.63A4.26,4.26,0,0,1,69.29,25.32Z" fill="#010101" stroke="#010101" stroke-miterlimit="10" stroke-width="0.25"/><path d="M72.06,29.37a.8.8,0,0,1,.57,0,.7.7,0,0,1,.31.28,2,2,0,0,1,.11,1.49A4.65,4.65,0,0,1,72.16,33a3.41,3.41,0,0,1-1.65,1.16c-.14,0-.3.06-.39,0a.29.29,0,0,1-.07-.16,6.13,6.13,0,0,1,0-2.22,2.34,2.34,0,0,1,.59-1.52A4.33,4.33,0,0,1,72.06,29.37Z" fill="#e27f54" stroke="#010101" stroke-miterlimit="10" stroke-width="0.25"/><path d="M65.84,37.36c1.41,0,2.63-.85,3.55-2.49a10.6,10.6,0,0,0,1-2.67.2.2,0,0,0-.15-.23.19.19,0,0,0-.22.15c0,.05-1.1,5.13-4.46,4.85a.19.19,0,0,0,0,.38Z" fill="#5a5b90" stroke="#010101" stroke-miterlimit="10" stroke-width="0.25"/><path d="M60.88,30.1a6.6,6.6,0,0,0-.81,3.45,2,2,0,0,0,.43,1,1.77,1.77,0,0,0,2.29.1" fill="none" stroke="#010101" stroke-miterlimit="10" stroke-width="0.25"/><path d="M64.32,29.32c0,.3.15.55.33.55s.33-.25.33-.55-.15-.55-.33-.55S64.32,29,64.32,29.32Z" fill="#010101" stroke="#010101" stroke-miterlimit="10" stroke-width="0.25"/><path d="M58.55,29.32c0,.3.15.55.33.55s.34-.25.34-.55-.15-.55-.34-.55S58.55,29,58.55,29.32Z" fill="#010101" stroke="#010101" stroke-miterlimit="10" stroke-width="0.25"/><path d="M63.71,26.41a3.31,3.31,0,0,1,2.69,1.37" fill="none" stroke="#010101" stroke-miterlimit="10" stroke-width="0.25"/><path d="M59.9,26.41a3.32,3.32,0,0,0-2.7,1.37" fill="none" stroke="#010101" stroke-miterlimit="10" stroke-width="0.25"/><path d="M64.46,36.48a.54.54,0,0,1,.16-.14.16.16,0,0,1,.19,0,.29.29,0,0,1,0,.13A1.37,1.37,0,0,1,64,37.87a1.82,1.82,0,0,1-1,.1c-.26,0-.65-.22-.27-.42s.64-.22.95-.4A3.71,3.71,0,0,0,64.46,36.48Z" fill="#010101" stroke="#010101" stroke-miterlimit="10" stroke-width="0.25"/><path d="M72.39,31.23a.63.63,0,0,0-.67-.75" fill="none" stroke="#010101" stroke-miterlimit="10" stroke-width="0.25"/><path d="M70.84,31a3.72,3.72,0,0,0,0,.74,1,1,0,0,0,.31.66.26.26,0,0,0,.16.09" fill="none" stroke="#010101" stroke-miterlimit="10" stroke-width="0.25"/><path d="M69.94,28.3s.92-10.85-5.46-11.12c0,0,2.16-.38,3.24.4,0,0,5.53,2.17,4.28,11.19Z" fill="#5a5b90" stroke="#010101" stroke-miterlimit="10" stroke-width="0.25"/><circle cx="70.79" cy="30.34" r="2.21" fill="#6e8ac0" stroke="#010101" stroke-miterlimit="10" stroke-width="0.25"/><circle cx="70.79" cy="30.34" r="1.2" fill="none" stroke="#010101" stroke-miterlimit="10" stroke-width="0.25"/><polyline points="65.36 45.08 70.59 49.55 72.25 42.7" fill="none" stroke="#010101" stroke-miterlimit="10" stroke-width="0.25"/><polyline points="60.6 44.97 57.7 49.72 57.91 42.7" fill="none" stroke="#010101" stroke-miterlimit="10" stroke-width="0.25"/><path d="M63.37,51.49S62.5,60,64.48,63.62s-.65,12.56-.65,12.56" fill="none" stroke="#010101" stroke-miterlimit="10" stroke-width="0.25"/><path d="M71.4,65.78S63.52,65,60,65.78" fill="none" stroke="#010101" stroke-linecap="round" stroke-linejoin="round" stroke-width="0.25"/><path d="M90.8,66.9a36.57,36.57,0,0,1,.89,9.28s.24,2.53-10.9.56A125.8,125.8,0,0,0,60,74.87a4,4,0,0,1-.72-2.06c0-1,15.62-3.47,22-3.41l-.1-1Z" fill="url(#e)"/><path d="M91.69,66.72,80,68.51A27.91,27.91,0,0,1,76.6,52.34" fill="none" stroke="#010101" stroke-miterlimit="10" stroke-width="0.25"/><path d="M78.1,64.28a28.27,28.27,0,0,1-3.34-10.42" fill="none" stroke="#010101" stroke-linecap="round" stroke-linejoin="round" stroke-width="0.25"/><path d="M48.18,51.6a44.21,44.21,0,0,0,.67,11.54" fill="none" stroke="#010101" stroke-linecap="round" stroke-linejoin="round" stroke-width="1.42"/><path d="M46.22,53.39a16.76,16.76,0,0,0,1.57,7.07" fill="none" stroke="#010101" stroke-linecap="round" stroke-linejoin="round" stroke-width="1.42"/><path d="M57.68,75.25a8.6,8.6,0,0,1-1.34-.39.48.48,0,0,0-.26-.06.54.54,0,0,0-.3.13l-1.14.8a3.14,3.14,0,0,1-.67.38,1.13,1.13,0,0,1-.79,0,2,2,0,0,0-.33-.16c-.33-.08-.7.21-1,.09a.39.39,0,0,1-.26-.35,1,1,0,0,1,.1-.41l.79-1.93a3,3,0,0,1,.37-.73,2.29,2.29,0,0,1,1.36-.84,4.75,4.75,0,0,1,1.06-.09,34,34,0,0,1,5,.36,4.85,4.85,0,0,1,1.43.36,1.22,1.22,0,0,1,.77,1c0,.4-.32.73-.55,1.07a1.71,1.71,0,0,1-1.08.64A6.59,6.59,0,0,1,57.68,75.25Z" fill="url(#f)"/><path d="M52,76c.14-.64.29-1.28.47-1.91a10.83,10.83,0,0,1,.69-1.92.43.43,0,0,1,.58-.18.42.42,0,0,1,.18.57l0,.06h0A10.3,10.3,0,0,0,53,74.28c-.27.58-.53,1.18-.77,1.78a.09.09,0,0,1-.12.06A.1.1,0,0,1,52,76Z" fill="#010101"/><path d="M52.78,75.91c.09-.58.19-1.14.32-1.71.07-.29.15-.57.25-.86a2.62,2.62,0,0,1,.46-.89h0a.44.44,0,0,1,.61-.06.43.43,0,0,1,0,.61.3.3,0,0,1-.08.08,1.86,1.86,0,0,0-.44.55c-.14.24-.27.49-.39.74-.24.51-.45,1-.65,1.58a.06.06,0,0,1-.09,0A.08.08,0,0,1,52.78,75.91Z" fill="#010101"/><path d="M53.14,76c.19-.53.39-1,.6-1.57.11-.26.23-.52.35-.78a4.11,4.11,0,0,1,.5-.8.42.42,0,0,1,.6,0,.43.43,0,0,1,.05.6l-.07.06a3.49,3.49,0,0,0-.48.55c-.16.21-.31.44-.46.67-.3.46-.59.93-.86,1.41a.13.13,0,0,1-.17,0A.12.12,0,0,1,53.14,76Z" fill="#010101"/><path d="M55.44,74a5.46,5.46,0,0,0-.9.46,2.91,2.91,0,0,0-.77.67.07.07,0,0,1-.11,0,.08.08,0,0,1,0-.09,2.89,2.89,0,0,1,.57-1,6.18,6.18,0,0,1,.8-.82.43.43,0,0,1,.56.66A.37.37,0,0,1,55.44,74Z" fill="#010101"/><path d="M47.18,68.5A29.83,29.83,0,0,1,44,67.35l1-1.16Z" fill="#010101"/><path d="M44.39,67a57.87,57.87,0,0,0-4.82-6.84l5.51,6.06Z" fill="#010101"/><path d="M18.39,72.6a1.36,1.36,0,0,0-.41-.3,1.47,1.47,0,0,0-.63-.1q-1.59,0-3.18.06a2.42,2.42,0,0,0-1.4.4,2.07,2.07,0,0,0-.51.69,10,10,0,0,0-1,3,.49.49,0,0,0,0,.24c.06.11.22.14.35.15a38.47,38.47,0,0,0,5.15,0,1.4,1.4,0,0,0,.9-.28c.29-.27.32-.75.66-1s.87.06,1.24.32a4.71,4.71,0,0,0,2.76,1,.78.78,0,0,0,.57-.21.56.56,0,0,0,0-.6c-.43-.82-1.77-.82-2.46-1.38S19.1,73.23,18.39,72.6Z" fill="#e27f54"/><path d="M15.75,76.71c0-.47.08-.92.15-1.38,0-.23.08-.46.14-.7a2.74,2.74,0,0,1,.3-.74h0a.42.42,0,0,1,.59-.14.43.43,0,0,1,.14.59l0,.06a1.64,1.64,0,0,0-.28.48c-.08.2-.15.4-.22.61-.13.42-.24.85-.33,1.28a.22.22,0,0,1-.27.18A.23.23,0,0,1,15.75,76.71Z" fill="#010101"/><path d="M14.79,76.82a15.11,15.11,0,0,1-.08-1.51,6.83,6.83,0,0,1,0-.78,3.18,3.18,0,0,1,.18-.84h0a.42.42,0,1,1,.79.31.2.2,0,0,1,0,.08,2.34,2.34,0,0,0-.23.59c-.06.22-.11.46-.15.7-.08.47-.14,1-.18,1.45a.17.17,0,0,1-.17.16A.17.17,0,0,1,14.79,76.82Z" fill="#010101"/><path d="M13.62,76.83a14.71,14.71,0,0,1-.12-1.63,7.91,7.91,0,0,1,0-.84,2.9,2.9,0,0,1,.19-.92.43.43,0,0,1,.56-.23.43.43,0,0,1,.23.56.2.2,0,0,1,0,.08,1.84,1.84,0,0,0-.22.62c-.05.24-.09.5-.12.76-.07.52-.11,1-.13,1.58a.18.18,0,0,1-.18.18A.18.18,0,0,1,13.62,76.83Z" fill="#010101"/><path d="M12.23,76.73c0-.51,0-1,0-1.55a5.44,5.44,0,0,1,.33-1.61.43.43,0,0,1,.56-.24.42.42,0,0,1,.23.56.2.2,0,0,1,0,.08h0a4.84,4.84,0,0,0-.54,1.3q-.2.72-.33,1.47a.12.12,0,0,1-.14.11A.15.15,0,0,1,12.23,76.73Z" fill="#010101"/><path d="M13.63,72.21a30.74,30.74,0,0,1,3.75-.33h-.1a1.27,1.27,0,0,1,.78.18,2.57,2.57,0,0,1,.56.4,5.82,5.82,0,0,1,.8,1,.11.11,0,0,1,0,.15.11.11,0,0,1-.14,0,4.48,4.48,0,0,0-.89-.8,2.13,2.13,0,0,0-.5-.25.87.87,0,0,0-.42,0h-.1a32.06,32.06,0,0,0-3.68-.1.1.1,0,0,1-.11-.1A.11.11,0,0,1,13.63,72.21Z" fill="#010101"/><rect x="34.21" y="76.27" width="27.69" height="1.9" transform="translate(96.12 154.44) rotate(-180)" fill="#5a5b95"/><path d="M51.47,76.27A1.94,1.94,0,0,0,53,78.17H34.21v-1.9Z" fill="#010101"/><rect x="34.21" y="76.27" width="27.69" height="1.9" transform="translate(96.12 154.44) rotate(-180)" stroke-width="0.25" stroke="#010101" stroke-linecap="round" stroke-linejoin="round" fill="none"/><polygon points="61.91 78.17 72.33 78.17 72.33 77.46 61.91 76.27 61.91 78.17" fill="#484b75"/><polygon points="61.91 78.17 72.33 78.17 72.33 77.46 61.91 76.27 61.91 78.17" fill="none" stroke="#010101" stroke-linecap="round" stroke-linejoin="round" stroke-width="0.25"/><rect x="12.09" y="76.93" width="24.13" height="2.77" rx="0.5" transform="translate(48.32 156.64) rotate(-180)" fill="url(#g)"/><rect x="12.09" y="76.93" width="24.13" height="2.77" rx="0.5" transform="translate(48.32 156.64) rotate(-180)" stroke-width="0.25" stroke="#010101" stroke-linecap="round" stroke-linejoin="round" fill="none"/><rect x="6.81" y="36.58" width="47.62" height="38.04" rx="0.5" transform="translate(61.23 111.19) rotate(-180)" fill="url(#h)"/><path d="M31.55,56.09s-2.24,15.16.87,18.53H23.79Z" fill="#010101"/><rect x="6.81" y="36.58" width="47.62" height="38.04" rx="0.5" transform="translate(61.23 111.19) rotate(-180)" stroke-width="0.25" stroke="#010101" stroke-linecap="round" stroke-linejoin="round" fill="none"/><polyline points="6.81 37.55 52.72 37.55 52.72 74.62" fill="none" stroke="#010101" stroke-linecap="round" stroke-linejoin="round" stroke-width="0.25"/><line x1="38.87" y1="39.25" x2="38.87" y2="43.71" fill="none" stroke="#010101" stroke-linecap="round" stroke-linejoin="round" stroke-width="0.25"/><line x1="37.45" y1="39.25" x2="37.45" y2="43.71" fill="none" stroke="#010101" stroke-linecap="round" stroke-linejoin="round" stroke-width="0.25"/><line x1="36.02" y1="39.25" x2="36.02" y2="43.71" fill="none" stroke="#010101" stroke-linecap="round" stroke-linejoin="round" stroke-width="0.25"/><line x1="34.6" y1="39.25" x2="34.6" y2="43.71" fill="none" stroke="#010101" stroke-linecap="round" stroke-linejoin="round" stroke-width="0.25"/><line x1="33.18" y1="39.25" x2="33.18" y2="43.71" fill="none" stroke="#010101" stroke-linecap="round" stroke-linejoin="round" stroke-width="0.25"/><line x1="31.75" y1="39.25" x2="31.75" y2="43.71" fill="none" stroke="#010101" stroke-linecap="round" stroke-linejoin="round" stroke-width="0.25"/><line x1="30.33" y1="39.25" x2="30.33" y2="43.71" fill="none" stroke="#010101" stroke-linecap="round" stroke-linejoin="round" stroke-width="0.25"/><line x1="28.9" y1="39.25" x2="28.9" y2="43.71" fill="none" stroke="#010101" stroke-linecap="round" stroke-linejoin="round" stroke-width="0.25"/><line x1="27.48" y1="39.25" x2="27.48" y2="43.71" fill="none" stroke="#010101" stroke-linecap="round" stroke-linejoin="round" stroke-width="0.25"/><line x1="26.06" y1="39.25" x2="26.06" y2="43.71" fill="none" stroke="#010101" stroke-linecap="round" stroke-linejoin="round" stroke-width="0.25"/><line x1="24.63" y1="39.25" x2="24.63" y2="43.71" fill="none" stroke="#010101" stroke-linecap="round" stroke-linejoin="round" stroke-width="0.25"/><line x1="23.21" y1="39.25" x2="23.21" y2="43.71" fill="none" stroke="#010101" stroke-linecap="round" stroke-linejoin="round" stroke-width="0.25"/><line x1="21.79" y1="39.25" x2="21.79" y2="43.71" fill="none" stroke="#010101" stroke-linecap="round" stroke-linejoin="round" stroke-width="0.25"/><line x1="20.36" y1="39.25" x2="20.36" y2="43.71" fill="none" stroke="#010101" stroke-linecap="round" stroke-linejoin="round" stroke-width="0.25"/><line x1="18.94" y1="39.25" x2="18.94" y2="43.71" fill="none" stroke="#010101" stroke-linecap="round" stroke-linejoin="round" stroke-width="0.25"/><line x1="17.52" y1="39.25" x2="17.52" y2="43.71" fill="none" stroke="#010101" stroke-linecap="round" stroke-linejoin="round" stroke-width="0.25"/><polygon points="31.75 55.22 20.36 55.22 14.67 79.71 26.06 79.71 31.75 55.22" fill="url(#i)"/><polygon points="31.75 55.22 20.36 55.22 14.67 79.71 26.06 79.71 31.75 55.22" fill="none" stroke="#010101" stroke-linecap="round" stroke-linejoin="round" stroke-width="0.25"/><polyline points="20.2 55.9 30.61 55.9 25.09 79.45" fill="none" stroke="#010101" stroke-linecap="round" stroke-linejoin="round" stroke-width="0.25"/><path d="M68.42,74.15s-.31-1.81-3.49-1.81a4.85,4.85,0,0,0-4,2.55,16.46,16.46,0,0,1-3.6,6.54s-2.13,2.46-.25,3.73c0,0,4.69,1.6,5.51-2.1s2.07-4.92,3.05-5.33S68.73,75.24,68.42,74.15Z" fill="#5a5b95"/><path d="M68.42,74.15s-.31-1.81-3.49-1.81a4.85,4.85,0,0,0-4,2.55,16.46,16.46,0,0,1-3.6,6.54s-2.13,2.46-.25,3.73c0,0,4.69,1.6,5.51-2.1s2.07-4.92,3.05-5.33S68.73,75.24,68.42,74.15Z" fill="none" stroke="#010101" stroke-linecap="round" stroke-linejoin="round" stroke-width="0.25"/><path d="M62.7,75.88a3,3,0,0,1,.76-3.21" fill="none" stroke="#010101" stroke-linecap="round" stroke-linejoin="round" stroke-width="0.25"/><polygon points="79.98 74.14 63.74 74.14 56.64 85.94 73.95 85.94 79.93 75.44 79.98 74.14" fill="#5a5b95"/><path d="M69.35,81.6s-.31,3.08-2.78,4.34h2.78Z" fill="#010101"/><polygon points="79.98 74.14 63.74 74.14 56.64 85.94 73.95 85.94 79.93 75.44 79.98 74.14" fill="none" stroke="#010101" stroke-linecap="round" stroke-linejoin="round" stroke-width="0.25"/><rect x="69.35" y="81.11" width="2.6" height="7.13" transform="translate(141.3 169.34) rotate(-180)" fill="#5a5b95"/><rect x="69.35" y="81.11" width="2.6" height="7.13" transform="translate(141.3 169.34) rotate(-180)" stroke-width="0.25" stroke="#010101" stroke-linecap="round" stroke-linejoin="round" fill="none"/><path d="M56.51,84.59a.85.85,0,0,1-.62.75,1.63,1.63,0,0,1-1-.09,1.9,1.9,0,0,1-.71-.46,1,1,0,0,1-.29-.77.2.2,0,0,1,0-.11.17.17,0,0,1,.12,0,1.24,1.24,0,0,1,1.23,1.2.62.62,0,0,1-.16.46.75.75,0,0,1-.31.15,2.07,2.07,0,0,1-.89.09,1.29,1.29,0,0,1-1-1,.79.79,0,0,1,.73,0,1.78,1.78,0,0,1,.59.47,1.42,1.42,0,0,1,.36.58.63.63,0,0,1-.16.64.49.49,0,0,1-.75-.2.23.23,0,0,1,0-.2.39.39,0,0,1,.2-.18,1.67,1.67,0,0,1,1.48.06c.19.1.38.32.28.51a.39.39,0,0,1-.38.18c-.21,0-.47-.16-.4-.35a.49.49,0,0,1,.1-.15,2.52,2.52,0,0,1,1.93-.88" fill="none" stroke="#010101" stroke-linecap="round" stroke-linejoin="round" stroke-width="0.25"/><polyline points="58.28 85.94 64.87 75.35 79.98 75.35" fill="none" stroke="#010101" stroke-linecap="round" stroke-linejoin="round" stroke-width="0.25"/></svg>