<svg xmlns="http://www.w3.org/2000/svg" xmlns:xlink="http://www.w3.org/1999/xlink" viewBox="0 0 100 100"><defs><linearGradient id="a" x1="64.57" y1="79.91" x2="99.41" y2="79.91" gradientUnits="userSpaceOnUse"><stop offset="0" stop-color="#fff"/><stop offset="0.06" stop-color="#f1f1f2"/><stop offset="0.31" stop-color="#bec0c1"/><stop offset="0.49" stop-color="#9fa1a3"/><stop offset="0.59" stop-color="#939598"/><stop offset="1" stop-color="#5a585a"/></linearGradient><linearGradient id="b" x1="83.18" y1="62.63" x2="96.4" y2="62.63" xlink:href="#a"/><linearGradient id="c" x1="82.54" y1="59.67" x2="99.1" y2="59.67" gradientTransform="translate(-15.56 37.89) rotate(-21.72)" xlink:href="#a"/><linearGradient id="d" x1="83.93" y1="57.25" x2="86.43" y2="57.25" xlink:href="#a"/><linearGradient id="e" x1="85.59" y1="57.91" x2="88.09" y2="57.91" xlink:href="#a"/><linearGradient id="f" x1="87.25" y1="58.57" x2="89.75" y2="58.57" xlink:href="#a"/><linearGradient id="g" x1="88.91" y1="59.23" x2="91.41" y2="59.23" xlink:href="#a"/><linearGradient id="h" x1="90.57" y1="59.89" x2="93.07" y2="59.89" xlink:href="#a"/><linearGradient id="i" x1="92.23" y1="60.55" x2="94.73" y2="60.55" xlink:href="#a"/><linearGradient id="j" x1="93.89" y1="61.22" x2="96.39" y2="61.22" xlink:href="#a"/><linearGradient id="k" x1="95.55" y1="61.88" x2="98.05" y2="61.88" xlink:href="#a"/><linearGradient id="l" x1="72.02" y1="80.07" x2="93.93" y2="80.07" gradientTransform="translate(-23.74 36.39) rotate(-21.72)" xlink:href="#a"/><linearGradient id="m" x1="72.71" y1="79.92" x2="93.05" y2="79.92" xlink:href="#a"/><linearGradient id="n" x1="78.33" y1="78.21" x2="89.08" y2="78.21" xlink:href="#a"/><linearGradient id="o" x1="77.6" y1="80.04" x2="88.35" y2="80.04" xlink:href="#a"/><linearGradient id="p" x1="76.9" y1="81.79" x2="87.66" y2="81.79" xlink:href="#a"/><linearGradient id="q" x1="82.8" y1="64.41" x2="94.53" y2="64.41" xlink:href="#a"/><linearGradient id="r" x1="66.36" y1="75.77" x2="80.67" y2="75.77" xlink:href="#a"/><linearGradient id="s" x1="65.59" y1="96.3" x2="87.97" y2="96.3" xlink:href="#a"/><linearGradient id="t" x1="6.17" y1="26.49" x2="34.77" y2="26.49" gradientUnits="userSpaceOnUse"><stop offset="0" stop-color="#ee2a50"/><stop offset="0.23" stop-color="#e2254b"/><stop offset="0.52" stop-color="#d62147"/><stop offset="0.67" stop-color="#cb2044"/><stop offset="0.92" stop-color="#af1e3d"/><stop offset="1" stop-color="#a51d3a"/></linearGradient><linearGradient id="u" x1="39.68" y1="23.03" x2="62.57" y2="23.03" gradientUnits="userSpaceOnUse"><stop offset="0.07" stop-color="#cfb0a2"/><stop offset="0.45" stop-color="#b78876"/><stop offset="0.92" stop-color="#816154"/></linearGradient><linearGradient id="v" x1="39.46" y1="51.34" x2="56.75" y2="51.34" xlink:href="#t"/><linearGradient id="w" x1="40.72" y1="39.97" x2="55.83" y2="39.97" xlink:href="#t"/><linearGradient id="x" x1="25.79" y1="66.88" x2="50.61" y2="66.88" gradientUnits="userSpaceOnUse"><stop offset="0" stop-color="#fff"/><stop offset="0.06" stop-color="#f1f1f2"/><stop offset="0.32" stop-color="#bec0c1"/><stop offset="0.51" stop-color="#9fa1a3"/><stop offset="0.62" stop-color="#939598"/><stop offset="0.72" stop-color="#909295"/><stop offset="0.82" stop-color="#86878a"/><stop offset="0.9" stop-color="#757578"/><stop offset="0.99" stop-color="#5e5d5f"/><stop offset="1" stop-color="#5a585a"/></linearGradient><linearGradient id="y" x1="50.3" y1="82.71" x2="50.45" y2="82.71" xlink:href="#x"/><linearGradient id="z" x1="15.86" y1="65.26" x2="64.65" y2="65.26" xlink:href="#x"/><linearGradient id="aa" x1="50.5" y1="67.1" x2="72.96" y2="67.1" xlink:href="#x"/><linearGradient id="ab" x1="40.67" y1="66.69" x2="79.68" y2="66.69" xlink:href="#x"/><linearGradient id="ac" x1="29.46" y1="75.22" x2="41.77" y2="75.22" xlink:href="#u"/><linearGradient id="ad" x1="60.13" y1="67.75" x2="76.32" y2="67.75" xlink:href="#u"/><linearGradient id="ae" x1="68.48" y1="68.09" x2="74.75" y2="68.09" xlink:href="#u"/><linearGradient id="af" x1="64.8" y1="67.55" x2="71.65" y2="67.55" xlink:href="#u"/></defs><title>hospital</title><g opacity="0.85"><path d="M74.16,65.72c-2.81,7-7.31,18.42-9.38,23.65a3,3,0,0,0,1.69,3.89l19.23,7.66a3,3,0,0,0,3.91-1.68l9.33-23.43a6.68,6.68,0,0,0-3.73-8.67h0l1.37-3.45-12.6-5-1.29,3.25h0A6.68,6.68,0,0,0,74.16,65.72Z" fill="url(#a)"/></g><g opacity="0.85"><polygon points="83.81 59.11 83.18 60.68 95.6 66.14 96.4 64.13 83.81 59.11" fill="url(#b)"/></g><g opacity="0.85"><path d="M85.6,56.15H96.35a3,3,0,0,1,3,3v1.81a1.93,1.93,0,0,1-1.93,1.93H84.54a1.93,1.93,0,0,1-1.93-1.93V59.14a3,3,0,0,1,3-3Z" transform="translate(28.48 -29.44) rotate(21.72)" fill="url(#c)"/></g><g opacity="0.85"><path d="M83.94,60.36A15.8,15.8,0,0,1,85,57.18a15.51,15.51,0,0,1,1.4-3,16.16,16.16,0,0,1-1.07,3.17A16.15,16.15,0,0,1,83.94,60.36Z" fill="url(#d)"/></g><g opacity="0.85"><path d="M85.6,61a16,16,0,0,1,1.08-3.18,15.51,15.51,0,0,1,1.4-3A16.36,16.36,0,0,1,87,58,16.24,16.24,0,0,1,85.6,61Z" fill="url(#e)"/></g><g opacity="0.85"><path d="M87.26,61.68a16.16,16.16,0,0,1,1.07-3.17,16.15,16.15,0,0,1,1.41-3,16.13,16.13,0,0,1-1.07,3.18A15.86,15.86,0,0,1,87.26,61.68Z" fill="url(#f)"/></g><g opacity="0.85"><path d="M88.92,62.34A16.16,16.16,0,0,1,90,59.17a16.15,16.15,0,0,1,1.41-3.05,16.13,16.13,0,0,1-1.07,3.18A15.86,15.86,0,0,1,88.92,62.34Z" fill="url(#g)"/></g><g opacity="0.85"><path d="M90.58,63a16.13,16.13,0,0,1,1.07-3.18,16.15,16.15,0,0,1,1.41-3A16.13,16.13,0,0,1,92,60,16.54,16.54,0,0,1,90.58,63Z" fill="url(#h)"/></g><g opacity="0.85"><path d="M92.24,63.67a16.13,16.13,0,0,1,1.07-3.18,16.54,16.54,0,0,1,1.41-3.05,16.13,16.13,0,0,1-1.07,3.18A16.54,16.54,0,0,1,92.24,63.67Z" fill="url(#i)"/></g><path d="M93.9,64.33A16.13,16.13,0,0,1,95,61.15a16.54,16.54,0,0,1,1.41-3,15.8,15.8,0,0,1-1.08,3.18A16.16,16.16,0,0,1,93.9,64.33Z" fill="url(#j)"/><path d="M95.56,65a16.13,16.13,0,0,1,1.07-3.18A16.54,16.54,0,0,1,98,58.76,15.8,15.8,0,0,1,97,61.94,15.79,15.79,0,0,1,95.56,65Z" fill="url(#k)"/><g opacity="0.85"><rect x="73.26" y="73.65" width="19.43" height="12.85" rx="1.48" transform="translate(35.52 -25.02) rotate(21.72)" fill="url(#l)"/><path d="M88.74,88.33l.06-.2.21-.56.8-2.11,2.92-7.54.08.18L77,71.84l.23-.1h0v0l0,0,0,.09-.06.17-.14.35-.27.68c-.19.45-.37.91-.54,1.35-.36.9-.72,1.78-1.06,2.65-.7,1.73-1.36,3.4-2,5L73,81.88l11.32,4.6,3.26,1.34.87.37.31.14a1.14,1.14,0,0,1-.29-.09l-.86-.32-3.25-1.25L72.86,82.19l-.15-.06.06-.16c.63-1.58,1.29-3.25,2-5l1.06-2.65q.26-.67.54-1.35l.27-.69.13-.34.07-.17,0-.09v-.06h0l.23-.1,15.81,6.33.13,0L93,78l-3.1,7.57-.85,2-.23.53A.84.84,0,0,1,88.74,88.33Z" fill="url(#m)"/><path d="M89.08,80.35a47.92,47.92,0,0,1-5.44-2,49.34,49.34,0,0,1-5.31-2.31,46.2,46.2,0,0,1,5.44,2A47.2,47.2,0,0,1,89.08,80.35Z" fill="url(#n)"/><path d="M88.35,82.18a47,47,0,0,1-5.44-2,48.23,48.23,0,0,1-5.31-2.3,46.89,46.89,0,0,1,5.45,2A46.38,46.38,0,0,1,88.35,82.18Z" fill="url(#o)"/><path d="M87.66,83.93a44.75,44.75,0,0,1-5.45-2,46.38,46.38,0,0,1-5.3-2.31,49.31,49.31,0,0,1,5.44,2A49.3,49.3,0,0,1,87.66,83.93Z" fill="url(#p)"/></g><g opacity="0.85"><path d="M94.53,66.74a56.2,56.2,0,0,1-5.93-2.17,56.16,56.16,0,0,1-5.8-2.5,57.14,57.14,0,0,1,5.93,2.17A56.16,56.16,0,0,1,94.53,66.74Z" fill="url(#q)"/></g><g opacity="0.85"><path d="M66.36,88.42a7.51,7.51,0,0,1,.38-1.13c.3-.77.69-1.8,1.16-3,1-2.56,2.39-6.09,3.95-10,.79-2,1.54-3.79,2.22-5.48a11.78,11.78,0,0,1,2.5-4.16,5.23,5.23,0,0,1,2.9-1.48,3.39,3.39,0,0,1,.9,0c.2,0,.3.06.3.08a5.73,5.73,0,0,0-1.17.06,5.31,5.31,0,0,0-2.75,1.53,11.69,11.69,0,0,0-2.37,4.1l-2.2,5.49c-1.56,3.89-3,7.4-4.05,9.94-.51,1.23-.94,2.24-1.26,3A8,8,0,0,1,66.36,88.42Z" fill="url(#r)"/></g><g opacity="0.85"><path d="M88,100.79a5.49,5.49,0,0,1-.75-.61c-.24-.21-.52-.46-.87-.73s-.73-.61-1.19-.93a34.13,34.13,0,0,0-3.26-2.16,35.19,35.19,0,0,0-4.3-2.09A35.9,35.9,0,0,0,73,92.83a33.36,33.36,0,0,0-3.85-.67c-.55-.08-1-.1-1.49-.14S66.87,92,66.56,92a6,6,0,0,1-1-.08,4.94,4.94,0,0,1,1-.06,11,11,0,0,1,1.15,0c.44,0,1,0,1.51.09a31.19,31.19,0,0,1,3.9.6,33.51,33.51,0,0,1,4.62,1.43,33,33,0,0,1,4.33,2.14,30.1,30.1,0,0,1,3.25,2.24c.45.34.82.69,1.16,1a11.17,11.17,0,0,1,.83.78A5.43,5.43,0,0,1,88,100.79Z" fill="url(#s)"/></g><g opacity="0.85"><path d="M31.37,15.31c-2.67-2.59-7.26-3.32-10.15-1a8.08,8.08,0,0,0-2.79,5.76,14,14,0,0,0-.06,2.27,14.88,14.88,0,0,0-2.1-.86,8.13,8.13,0,0,0-6.4.22c-3.3,1.71-4.48,6.2-3.19,9.69s4.53,6,8,7.22a20.87,20.87,0,0,0,14.75.19c3-3.07,5-9.53,5.28-13.24S34,17.9,31.37,15.31Z" fill="url(#t)"/></g><path d="M34.47,21.31s0,0-.09.08l-.3.21-1.14.77-4.23,2.8,0-.1,1.8,5.6.11.34-.28-.22-7.16-5.53-2.33-1.8.19-.11c.11,2.34.22,4.55.31,6.56V30l-.05,0-7.5,4.84L11.69,36.2l-.57.35-.2.11s.06,0,.18-.14l.55-.38,2.11-1.41,7.45-4.91-.05.1c-.1-2-.21-4.22-.33-6.55v-.26l.2.16,2.33,1.8,7.15,5.55-.17.12c-.65-2.09-1.25-4-1.76-5.61l0-.07.06,0,4.27-2.74,1.17-.74.31-.18Z" fill="#fafbfb"/><path d="M40.57,15.71c-.1,0-4.22-1.11-4,3s4.38,3,4.38,2.9S40.57,15.71,40.57,15.71Z" fill="#b78876"/><path d="M39.61,20.14s-.07.05-.19.12a.72.72,0,0,1-.54,0A1.75,1.75,0,0,1,38,18.76a2.2,2.2,0,0,1,.14-1,.86.86,0,0,1,.51-.59.38.38,0,0,1,.44.17c.06.12,0,.2.06.21s.09-.08,0-.25A.39.39,0,0,0,39,17a.54.54,0,0,0-.4-.09,1,1,0,0,0-.72.69,2.31,2.31,0,0,0-.18,1.16,1.86,1.86,0,0,0,1.16,1.72.84.84,0,0,0,.66-.15C39.61,20.24,39.63,20.15,39.61,20.14Z" fill="#aa6551"/><path d="M51,1a13.46,13.46,0,0,1,6.91,1.37,8.48,8.48,0,0,1,3.58,3.88,8.91,8.91,0,0,1,1,4.35,9.55,9.55,0,0,1-.66,3.72" fill="#263238"/><path d="M50.12,1.32a11.18,11.18,0,0,1,12,10.5c.27,5.15.51,10.73.46,13.54-.13,6-6.23,6.92-6.23,6.92s.14,1.79.29,4a8,8,0,0,1-7.71,8.47h0a8,8,0,0,1-8.32-7.64l-.9-24.31A11.14,11.14,0,0,1,50.12,1.32Z" fill="url(#u)"/><path d="M56.33,32.28a14.53,14.53,0,0,1-7.81-2.38s1.84,4.39,7.92,3.89Z" fill="#aa6551"/><path d="M59.77,15.17a.86.86,0,0,1-.85.86.83.83,0,0,1-.89-.78.86.86,0,0,1,.85-.86A.82.82,0,0,1,59.77,15.17Z" fill="#263238"/><path d="M60.61,14c-.11.11-.76-.38-1.7-.38s-1.62.45-1.72.34.06-.25.36-.47A2.46,2.46,0,0,1,58.93,13a2.3,2.3,0,0,1,1.35.45C60.57,13.7,60.67,13.9,60.61,14Z" fill="#263238"/><path d="M50.59,15.17a.86.86,0,0,1-.85.86.83.83,0,0,1-.89-.78.86.86,0,0,1,.85-.86A.83.83,0,0,1,50.59,15.17Z" fill="#263238"/><path d="M51.41,14.05c-.11.11-.77-.37-1.7-.38s-1.63.45-1.73.34.06-.25.36-.47a2.49,2.49,0,0,1,1.39-.41,2.32,2.32,0,0,1,1.35.45C51.37,13.8,51.46,14,51.41,14.05Z" fill="#263238"/><path d="M54.75,21a6.35,6.35,0,0,1,1.52-.26c.24,0,.47-.07.51-.23a1.19,1.19,0,0,0-.15-.7c-.22-.57-.45-1.18-.7-1.81a31.81,31.81,0,0,1-1.55-4.72,30.17,30.17,0,0,1,1.94,4.59L57,19.64a1.32,1.32,0,0,1,.11.93.6.6,0,0,1-.39.34,1.58,1.58,0,0,1-.41.05A5.89,5.89,0,0,1,54.75,21Z" fill="#263238"/><path d="M52,21.57c.15,0,.15,1,1,1.72s2,.62,2,.76-.24.19-.7.2a2.57,2.57,0,0,1-1.63-.57,2.22,2.22,0,0,1-.78-1.45C51.81,21.81,51.92,21.57,52,21.57Z" fill="#263238"/><path d="M51.68,10.42c-.09.25-1,.13-2.13.25s-2,.41-2.13.18.09-.34.45-.58a3.66,3.66,0,0,1,1.59-.54,3.59,3.59,0,0,1,1.66.21C51.52,10.1,51.72,10.3,51.68,10.42Z" fill="#263238"/><path d="M60.48,10.65c-.16.21-.81,0-1.58,0s-1.44.13-1.59-.09,0-.32.33-.51a2.3,2.3,0,0,1,2.55.09C60.47,10.33,60.55,10.55,60.48,10.65Z" fill="#263238"/><path d="M39.76,14.7s.26,1.39.33,2c0,.23,0,2.78.63,2.91A2.25,2.25,0,0,0,42.8,18.2a13.89,13.89,0,0,0,1.29-4.75,16.58,16.58,0,0,1,.11-4.72,6.79,6.79,0,0,1,2.32-4A4.35,4.35,0,0,1,51,4.1a24.81,24.81,0,0,1,2.36,1.75,3.66,3.66,0,0,0,2.51.65,2.36,2.36,0,0,0,1.95-1.58,2.53,2.53,0,0,0-1-2.54,5.79,5.79,0,0,0-2.65-1.07,14.38,14.38,0,0,0-7.91.54,10.32,10.32,0,0,0-5.78,5.24c-1.23,2.81-1.09,4.54-.76,7.61" fill="#263238"/><path d="M53.68,15.21a5.7,5.7,0,0,0-.15-1A4.15,4.15,0,0,0,52,12a4.14,4.14,0,0,0-3.86-.56,3.67,3.67,0,0,0-1,.55,3.85,3.85,0,0,0-.86.85,4,4,0,0,0,0,4.76,3.85,3.85,0,0,0,.86.85,3.67,3.67,0,0,0,1,.55,4.07,4.07,0,0,0,2.14.18A4,4,0,0,0,52,18.42a4.1,4.1,0,0,0,1.51-2.22,5.7,5.7,0,0,0,.15-1s0,0,0,.07v.19a2.11,2.11,0,0,1,0,.32,2.86,2.86,0,0,1-.08.43,4,4,0,0,1-1.5,2.29,4.19,4.19,0,0,1-1.76.79,4.32,4.32,0,0,1-2.21-.17A4,4,0,0,1,47,18.56a4.12,4.12,0,0,1-.89-.88,4.13,4.13,0,0,1,0-4.94,4.12,4.12,0,0,1,.89-.88,4,4,0,0,1,1.07-.57,4.32,4.32,0,0,1,2.21-.17,4.19,4.19,0,0,1,1.76.79,4,4,0,0,1,1.5,2.29,2.86,2.86,0,0,1,.08.43,2,2,0,0,1,0,.32v.19S53.69,15.21,53.68,15.21Z" fill="#263238"/><path d="M64.41,15.21a8.85,8.85,0,0,0-.16-1A4.09,4.09,0,0,0,62.74,12,4,4,0,0,0,61,11.25a4.07,4.07,0,0,0-2.14.18,3.67,3.67,0,0,0-1,.55,4,4,0,0,0,0,6.46,3.67,3.67,0,0,0,1,.55,4.07,4.07,0,0,0,2.14.18,3.91,3.91,0,0,0,1.72-.75,4,4,0,0,0,1.51-2.22,8.85,8.85,0,0,0,.16-1v.26a1.31,1.31,0,0,1,0,.32,2.72,2.72,0,0,1-.07.43,4.1,4.1,0,0,1-1.5,2.29A4.23,4.23,0,0,1,61,19.3a4.34,4.34,0,0,1-2.21-.17,3.9,3.9,0,0,1-1.06-.57,4,4,0,0,1-.9-.88,4.12,4.12,0,0,1,.9-5.82,3.9,3.9,0,0,1,1.06-.57A4.34,4.34,0,0,1,61,11.12a4.23,4.23,0,0,1,1.77.79,4.1,4.1,0,0,1,1.5,2.29,2.72,2.72,0,0,1,.07.43,1.27,1.27,0,0,1,0,.32v.26Z" fill="#263238"/><path d="M56.23,14.77s-.15,0-.39-.13a2.5,2.5,0,0,0-.93-.12,2.78,2.78,0,0,0-.92.24c-.22.11-.34.2-.36.18s.09-.13.31-.27a2.12,2.12,0,0,1,1.94-.13A.86.86,0,0,1,56.23,14.77Z" fill="#263238"/><path d="M57.89,4.6c.06-.32,0-.49.13-.62s.59.24.73.39.19-.14.24-.18a.88.88,0,0,0,.11-.4c0-.21-.37-.27-.54-.42A1.53,1.53,0,0,0,58,3.05a.54.54,0,0,0-.55,0,.49.49,0,0,0-.12.41,1,1,0,0,0,.08.42.63.63,0,0,0,.29.31" fill="#263238"/><path d="M39.53,11.49s3,1.08,4.54,1.74L44,11.71,39.64,10S39.53,11.14,39.53,11.49Z" fill="#ebebeb"/><path d="M39.81,9.14a16.48,16.48,0,0,1,2.11.8,15,15,0,0,1,2.06,1,20.52,20.52,0,0,1-2.12-.81A16,16,0,0,1,39.81,9.14Z" fill="#ebebeb"/><path d="M40.71,41l-.23-7.16a8.72,8.72,0,0,0,9,6.47c7.19-.09,7.06-5.77,7.06-5.77l.25,2.88V49.07l-4.69,19-6,.75-6.62-26Z" fill="url(#v)"/><path d="M55.83,38.71l-.09.15a3.73,3.73,0,0,1-.28.42,6.17,6.17,0,0,1-1.34,1.28,7.84,7.84,0,0,1-2.5,1.16,8.93,8.93,0,0,1-3.38.23A11.17,11.17,0,0,1,45,41a14.38,14.38,0,0,1-2.37-1.42A15.41,15.41,0,0,1,41.2,38.4c-.17-.15-.28-.27-.37-.35s-.12-.13-.11-.13l.14.11.38.32a17.36,17.36,0,0,0,1.46,1.14,14.31,14.31,0,0,0,2.36,1.37,11.3,11.3,0,0,0,3.2.94,8.84,8.84,0,0,0,3.32-.21,7.86,7.86,0,0,0,2.47-1.12,6.35,6.35,0,0,0,1.36-1.23A5.5,5.5,0,0,1,55.83,38.71Z" fill="url(#w)"/><path d="M50.61,99.8,50.5,66,40.81,41.37,40.48,34l-5.9,4.42S26,67.66,25.85,66.64s0,33.16,0,33.16Z" fill="url(#x)"/><path d="M50.37,99.71s-.07-7.61-.07-17,0-17,.07-17,.08,7.61.08,17S50.42,99.71,50.37,99.71Z" fill="url(#y)"/><polygon points="34.66 43.19 35.86 44.09 35.02 49.56 49.17 64.22 36.32 47.52 37.41 43.19 34.66 43.19" fill="#e0e0e0"/><path d="M51.14,82.5,29.43,76.2l-.72-16.33,6-21.5s-14.2,7-15.16,11.47S16.21,65.14,16,73c-.23,7-.26,11.69,1.36,13.93,4.63,6.4,35.13,7.55,47.32,0" fill="url(#z)"/><path d="M49.44,64.58l-.07-.08-.2-.24-.73-.94-2.69-3.45c-2.27-2.93-5.38-7-8.83-11.44l-.66-.86,0,0v0l1.1-4.33.07.09H34.59v-.07c0-1.76,0-3.38,0-4.82v0l0,0,4.27-3.21,1.17-.87.3-.22.11-.07-.09.08-.3.24-1.15.89L34.7,38.42l0-.05c0,1.44,0,3.06,0,4.82l-.07-.07h2.84l0,.09c-.35,1.39-.72,2.84-1.1,4.33v-.06l.66.86L45.83,59.8l2.65,3.49.72.95.18.25Z" fill="#263238"/><path d="M59.12,37.1c-1.74-3-2.63-2.69-2.63-2.69l.09,1.07v2.25l-.82,9.63L50.5,68.29l.11,31.51H70.49L73,61.33l-.22-16.57Z" fill="url(#aa)"/><path d="M72.74,44.76s5.14,3.76,5.59,9.81c.36,4.92,1.19,18.37,1.34,21.3.24,4.56-3.35,15.24-12.69,12.22-5.61-1.82-26.31-8.78-26.31-8.78l1.38-8.7,24.57,1.45.49-20.29Z" fill="url(#ab)"/><path d="M41.77,71.61s-7-.75-8.56-.36a12.52,12.52,0,0,0-3.75,2.24l0,2.72,11.18,3.1Z" fill="url(#ac)"/><path d="M50.5,65.14l0-.09.1-.27.42-1c.37-.9.9-2.19,1.56-3.77l2.32-5.59c.22-.52.44-1.07.71-1.6s.58-1.07.89-1.6A36.9,36.9,0,0,1,58.74,48c.4-.51.81-1,1.23-1.49l0,.08-.86-2.18,0-.07.07,0,3.63-1.22,0,.1-4.11-6.79a5.42,5.42,0,0,0-1.37-1.75,1.93,1.93,0,0,0-.55-.22.91.91,0,0,1-.2-.05,1,1,0,0,1,.2,0,1.62,1.62,0,0,1,.57.2,2.71,2.71,0,0,1,.7.67,12.62,12.62,0,0,1,.72,1.08l4.16,6.76,0,.08-.08,0-3.62,1.23,0-.09c.28.71.57,1.43.86,2.18l0,0,0,0c-.41.48-.82,1-1.22,1.49a35,35,0,0,0-2.2,3.14c-.31.53-.62,1-.88,1.58s-.49,1.07-.72,1.59c-.88,2.1-1.68,4-2.35,5.58s-1.22,2.86-1.6,3.75l-.45,1-.12.26A.41.41,0,0,1,50.5,65.14Z" fill="#263238"/><path d="M75.56,86.4l-.09.09-.26.25A7.3,7.3,0,0,1,72,88.45a8.54,8.54,0,0,1-3,.18,9.59,9.59,0,0,1-1.69-.35c-.58-.19-1.16-.41-1.77-.62-1.21-.44-2.51-.89-3.88-1.37-2.74-1-5.77-2-9-3-6.37-2.07-12.18-3.82-16.39-5.06l-5-1.46L30,76.37l-.35-.11-.12,0,.12,0,.36.09,1.36.37c1.19.33,2.9.81,5,1.42,4.22,1.21,10,2.94,16.41,5,3.18,1,6.2,2,8.94,3l3.89,1.38c.6.21,1.19.44,1.75.62a9.58,9.58,0,0,0,1.68.37A8.34,8.34,0,0,0,72,88.36a7.74,7.74,0,0,0,2.06-.82,8.66,8.66,0,0,0,1.14-.82l.27-.25C75.52,86.42,75.56,86.39,75.56,86.4Z" fill="#263238"/><path d="M29.49,76.26s-.39-.05-1,0a4.61,4.61,0,0,0-1.07.17,5.17,5.17,0,0,0-1.21.55,5.6,5.6,0,0,0-1.68,1.71c-.33.52-.47.88-.5.87a1.09,1.09,0,0,1,.08-.26,5,5,0,0,1,.33-.67,5.16,5.16,0,0,1,1.69-1.78,4.68,4.68,0,0,1,1.25-.55,4.31,4.31,0,0,1,1.11-.15,3.57,3.57,0,0,1,.75.06A1.23,1.23,0,0,1,29.49,76.26Z" fill="#263238"/><path d="M22.65,74.13a.18.18,0,0,1,0-.08.71.71,0,0,1,.13-.19,1.46,1.46,0,0,1,.78-.38,3.87,3.87,0,0,1,1.27,0,6.87,6.87,0,0,1,1.51.36,6.57,6.57,0,0,1,2.4,1.45,5.09,5.09,0,0,1,.56.65,1.29,1.29,0,0,1,.16.26s-.27-.35-.79-.83A7.28,7.28,0,0,0,26.32,74a8,8,0,0,0-1.48-.37,4.37,4.37,0,0,0-1.24,0,1.42,1.42,0,0,0-.74.31A2.78,2.78,0,0,0,22.65,74.13Z" fill="#263238"/><path d="M30.75,55.38a4,4,0,0,1-.1-.44c0-.14-.1-.31-.17-.5s-.19-.4-.32-.62a9.1,9.1,0,0,0-1.11-1.46,11.85,11.85,0,0,0-1.69-1.48,10.23,10.23,0,0,0-3.71-1.68A8.44,8.44,0,0,0,22.42,49,1.52,1.52,0,0,1,22,49l.46,0a6.49,6.49,0,0,1,1.25.11,9.94,9.94,0,0,1,3.78,1.67,12.22,12.22,0,0,1,1.71,1.5,8.35,8.35,0,0,1,1.09,1.5c.13.23.22.46.31.65s.12.37.15.52A2.16,2.16,0,0,1,30.75,55.38Z" fill="#263238"/><path d="M72,80.34s0,0,0-.1v-.31c0-.27,0-.66-.06-1.17A15.75,15.75,0,0,0,71,74.55a5.87,5.87,0,0,0-.59-1.28,2.61,2.61,0,0,0-1.15-1,10.44,10.44,0,0,0-3.39-.43L58,71.54c-6.54-.28-12.36-.52-16-.72l0,0c-.22,1.33-.4,2.39-.52,3.12l-.14.82,0,.22,0,.07v-.08l0-.21.12-.83.47-3.12v0h0l16,.66,7.92.34c.6,0,1.2,0,1.78.09a5.36,5.36,0,0,1,1.65.37,2.67,2.67,0,0,1,1.2,1,6.08,6.08,0,0,1,.59,1.31A15.21,15.21,0,0,1,72,78.76c0,.51,0,.9,0,1.17v.41Z" fill="#263238"/><path d="M67.28,61.3s.08,2.36.08,5.26,0,5.26-.08,5.26-.08-2.35-.08-5.26S67.24,61.3,67.28,61.3Z" fill="#263238"/><path d="M19.68,49.31l-.06.2a5,5,0,0,0-.18.57c-.14.5-.32,1.26-.53,2.24-.41,2-.91,4.85-1.48,8.45-.28,1.8-.58,3.78-.88,5.93-.15,1.07-.24,2.18-.32,3.34s-.14,2.35-.18,3.57c-.09,2.46-.15,5-.07,7.75,0,.68,0,1.36.1,2,0,.34.07.68.12,1a7.09,7.09,0,0,0,.25,1,5.76,5.76,0,0,0,1,1.85,4.31,4.31,0,0,0,1.68,1.28h0a25.74,25.74,0,0,0,4.38,1.66c1.52.45,3.09.81,4.69,1.14a65.36,65.36,0,0,0,10.56,1.27,49.28,49.28,0,0,0,5-.13c1.64-.11,3.24-.28,4.79-.51a50,50,0,0,0,8.6-2,45,45,0,0,0,7-3v.09l-9.54-3.34L52,82.91l-.67-.24-.22-.08.23.07.67.22,2.57.89,9.56,3.29.11,0-.1.06a43.7,43.7,0,0,1-7,3,51,51,0,0,1-8.62,2q-2.33.35-4.8.51a49.44,49.44,0,0,1-5,.14,65.71,65.71,0,0,1-10.59-1.27c-1.6-.33-3.18-.7-4.71-1.15A25,25,0,0,1,19,88.7h0a4.41,4.41,0,0,1-1.74-1.33,5.69,5.69,0,0,1-1-1.9,7.26,7.26,0,0,1-.26-1c0-.35-.1-.7-.12-1,0-.69-.08-1.38-.1-2-.07-2.71,0-5.3.08-7.76.05-1.23.12-2.42.2-3.58s.17-2.28.33-3.35q.45-3.21.89-5.93c.58-3.6,1.1-6.48,1.53-8.44.21-1,.4-1.74.55-2.24.07-.26.15-.44.19-.57S19.68,49.31,19.68,49.31Z" fill="#263238"/><path d="M29.46,74.24c3.63-4,3.47-11,1.38-16.07-.19,5.44-.84,10.26-1.33,15.55" fill="#e0e0e0"/><path d="M30.85,59.19s0,.06,0,.17l0,.5c0,.45-.09,1.07-.15,1.83-.13,1.55-.3,3.67-.5,6s-.35,4.46-.47,6c-.06.76-.11,1.37-.14,1.83l0,.49c0,.11,0,.17,0,.17s0-.06,0-.17l0-.5c0-.43,0-1.05.09-1.83.09-1.54.24-3.67.43-6s.39-4.48.54-6c.08-.76.15-1.37.2-1.82l.06-.5Z" fill="#263238"/><path d="M39.8,52s.08,1.38.08,3.09,0,3.08-.08,3.08-.08-1.38-.08-3.08S39.76,52,39.8,52Z" fill="#263238"/><path d="M37.44,62.25a3.13,3.13,0,0,0,.66,1.64,2.15,2.15,0,0,0,1.6.83,2.43,2.43,0,0,0,2.14-1.06,6,6,0,0,0,.3-4.62,2.69,2.69,0,0,0-2.2-1.77,2.44,2.44,0,0,0-2.39,1.84" fill="#e0e0e0"/><path d="M37.55,59.11a2,2,0,0,1,.24-.63,2.51,2.51,0,0,1,.49-.63,2.3,2.3,0,0,1,1.53-.63,1.8,1.8,0,0,1,.68.09,2.61,2.61,0,0,1,1.2.85,3.38,3.38,0,0,1,.71,1.46,6.2,6.2,0,0,1,.13,1.73,4.73,4.73,0,0,1-.75,2.52,2.24,2.24,0,0,1-1,.73,2.74,2.74,0,0,1-1.11.19h0a1.68,1.68,0,0,1-.79-.2,2.44,2.44,0,0,1-.6-.41,2.86,2.86,0,0,1-.65-1,3,3,0,0,1-.21-.71c0-.08,0-.15,0-.19s0-.07,0-.07a3.73,3.73,0,0,0,.28.94,2.86,2.86,0,0,0,.66.91,2.26,2.26,0,0,0,.58.39,1.51,1.51,0,0,0,.73.17h0a2.34,2.34,0,0,0,2-.88,4.64,4.64,0,0,0,.72-2.44,4.38,4.38,0,0,0-.8-3.09,2.53,2.53,0,0,0-1.13-.82,1.58,1.58,0,0,0-.64-.09,2.2,2.2,0,0,0-.58.08,2.28,2.28,0,0,0-.9.49,3,3,0,0,0-.49.6C37.62,58.88,37.57,59.12,37.55,59.11Z" fill="#263238"/><path d="M36.75,62.31A3.13,3.13,0,0,0,37.41,64a2.22,2.22,0,0,0,1.6.83,2.43,2.43,0,0,0,2.14-1.06,6,6,0,0,0,.3-4.62,2.7,2.7,0,0,0-2.2-1.77,2.44,2.44,0,0,0-2.39,1.84" fill="#e0e0e0"/><path d="M36.86,59.17a1.93,1.93,0,0,1,.24-.63,2.35,2.35,0,0,1,.49-.63,2.25,2.25,0,0,1,.91-.54,2.51,2.51,0,0,1,.62-.09,2,2,0,0,1,.68.08,2.71,2.71,0,0,1,1.2.86,3.38,3.38,0,0,1,.71,1.46,6.6,6.6,0,0,1,.13,1.73,4.78,4.78,0,0,1-.75,2.52,2.24,2.24,0,0,1-1,.73,2.72,2.72,0,0,1-1.11.18h0a1.57,1.57,0,0,1-.79-.19,2.75,2.75,0,0,1-.6-.41,2.86,2.86,0,0,1-.65-1,3,3,0,0,1-.21-.71c0-.09,0-.15,0-.19s0-.07,0-.07a3.86,3.86,0,0,0,.28.94,2.86,2.86,0,0,0,.66.91,2.26,2.26,0,0,0,.58.39,1.63,1.63,0,0,0,.73.17h0a2.37,2.37,0,0,0,2-.88,4.64,4.64,0,0,0,.72-2.44,4.43,4.43,0,0,0-.8-3.09,2.56,2.56,0,0,0-1.13-.83,2,2,0,0,0-.64-.09,2.34,2.34,0,0,0-.59.09,2.31,2.31,0,0,0-.89.49,2.75,2.75,0,0,0-.49.6C36.93,58.94,36.88,59.18,36.86,59.17Z" fill="#263238"/><path d="M38,58.84a1.53,1.53,0,0,0-1.59.9,2.57,2.57,0,0,0,0,1.91,2.38,2.38,0,0,0,.49.86,1.29,1.29,0,0,0,.88.42A1.54,1.54,0,0,0,39,62.22,2.7,2.7,0,0,0,39.42,60c-.13-.51-.51-1-1-1" fill="#e0e0e0"/><path d="M38.38,58.94h.12a.72.72,0,0,1,.32.1,1.58,1.58,0,0,1,.67,1,2.73,2.73,0,0,1-.18,1.79,2.45,2.45,0,0,1-.66.86,1.31,1.31,0,0,1-1.14.27,1.68,1.68,0,0,1-.91-.74,3.66,3.66,0,0,1-.38-1,2.23,2.23,0,0,1,.3-1.76,1.58,1.58,0,0,1,1-.65,1.19,1.19,0,0,1,.33,0,.4.4,0,0,1,.12,0,2.4,2.4,0,0,0-.44,0,1.54,1.54,0,0,0-1,.65,2.14,2.14,0,0,0-.25,1.67,3.23,3.23,0,0,0,.37,1,1.47,1.47,0,0,0,.82.67,1.15,1.15,0,0,0,1-.24,2.25,2.25,0,0,0,.62-.8,2.71,2.71,0,0,0,.21-1.71,1.55,1.55,0,0,0-.6-1A1.27,1.27,0,0,0,38.38,58.94Z" fill="#263238"/><path d="M39.48,63.64s0-.09-.15-.21a1.09,1.09,0,0,0-.51-.32A2.57,2.57,0,0,0,38.2,63c-.16,0-.26,0-.26-.05s.1,0,.26-.06a1.64,1.64,0,0,1,.67.06,1,1,0,0,1,.55.4C39.51,63.52,39.5,63.64,39.48,63.64Z" fill="#263238"/><path d="M39.72,58.44s0,.11-.19.21a1.28,1.28,0,0,1-.62.27,1.49,1.49,0,0,1-.68,0c-.16-.06-.25-.12-.24-.14a3.18,3.18,0,0,0,.89,0A3.52,3.52,0,0,0,39.72,58.44Z" fill="#263238"/><path d="M60,37.53l.1,0,.26.13a5,5,0,0,1,.88.63,6.19,6.19,0,0,1,1.9,3,18.14,18.14,0,0,1,.72,3.46c0,.45.08.81.1,1.07a2.87,2.87,0,0,1,0,.39,1.67,1.67,0,0,1-.07-.39c0-.28-.09-.63-.14-1.06A22.8,22.8,0,0,0,63,41.34a6.34,6.34,0,0,0-1.82-2.93A11.55,11.55,0,0,0,60,37.53Z" fill="#263238"/><path d="M56.31,69.67c.85,0,1.53-.88,2.39-.83a1.18,1.18,0,1,1-.2,2.34c-.9-.1-1.42-1.14-2.3-1.34" fill="#263238"/><path d="M63.55,70.39a4.56,4.56,0,0,1-.8-.07l0-.29a3.4,3.4,0,0,0,2.64-.51,4.86,4.86,0,0,0,1.67-3.37v-.06c.1-.64.23-13.13.23-15.5a4.07,4.07,0,0,0-3.42-4.23c-.14,0-3.12-.51-4.7,3.53-1.66,4.24-4.31,12.4-4.49,13.36,0,.11-.05.26-.09.43-.28,1.22-.85,3.77.87,5.24,1.91,1.63,3.42,1,3.48,1l.13.27c-.08,0-1.74.74-3.81-1-1.85-1.58-1.25-4.25-1-5.53q.06-.24.09-.42c.18-1,2.84-9.16,4.5-13.4s5-3.72,5-3.71a4.39,4.39,0,0,1,3.67,4.51c0,2-.13,14.86-.23,15.54v.06a5.11,5.11,0,0,1-1.79,3.57A3.38,3.38,0,0,1,63.55,70.39Z" fill="#263238"/><path d="M67.5,53a5.47,5.47,0,0,0-.62-1.45,4.78,4.78,0,0,0-1.16-1.25,5.14,5.14,0,0,0-1.9-.89,5.64,5.64,0,0,0-3.73.48,7.35,7.35,0,0,0-1.3.92l.07-.09c0-.05.12-.14.22-.23a4.27,4.27,0,0,1,1-.69,5,5,0,0,1,1.66-.58,5.44,5.44,0,0,1,2.16,0,4.94,4.94,0,0,1,1.94.93A4.83,4.83,0,0,1,67,51.47a3.87,3.87,0,0,1,.45,1.09,1.8,1.8,0,0,1,.06.31A.87.87,0,0,1,67.5,53Z" fill="#263238"/><path d="M75,76.32a9.06,9.06,0,0,0-.41-1.24,5.4,5.4,0,0,0-2-2.38A4.28,4.28,0,0,0,71,72.12C70.45,72,70,72,69.55,72l-1-.06a1.58,1.58,0,0,1-.36,0,2,2,0,0,1,.36,0l1,0A11.56,11.56,0,0,1,71,72a4.35,4.35,0,0,1,1.68.59,5.33,5.33,0,0,1,2,2.46A4.4,4.4,0,0,1,75,76,1.3,1.3,0,0,1,75,76.32Z" fill="#263238"/><path d="M60.13,71.45a48.25,48.25,0,0,1,3.64-4.92c.74-.57,7.07-3.4,7.81-2.94s.29,1.44.29,1.44,2.68-.93,3-.57a1.29,1.29,0,0,1,0,1.5s1.49-.23,1.49.23a1.84,1.84,0,0,1-.86,1.52c-.68.51-5.13,3.44-5.49,4.25l-1.44-.09Z" fill="url(#ad)"/><path d="M68.48,70.2a.89.89,0,0,1,.13-.27,4.67,4.67,0,0,1,.48-.68,7.73,7.73,0,0,1,2.1-1.75,15.79,15.79,0,0,1,2.49-1.16l.78-.28a1.33,1.33,0,0,1,.29-.08s-.09.06-.27.14l-.76.32a19,19,0,0,0-2.45,1.19,8.64,8.64,0,0,0-2.1,1.69C68.71,69.84,68.5,70.22,68.48,70.2Z" fill="url(#ae)"/><path d="M64.8,70.13a1.82,1.82,0,0,1,.14-.32c.1-.2.25-.49.45-.84a8.61,8.61,0,0,1,.79-1.17,3.82,3.82,0,0,1,.61-.59c.25-.17.5-.32.77-.48a22.47,22.47,0,0,1,2.83-1.39A9,9,0,0,1,71.3,65a1.48,1.48,0,0,1,.35-.06s-.48.14-1.22.47a26.48,26.48,0,0,0-2.79,1.42c-.27.16-.52.31-.76.47a3.94,3.94,0,0,0-.59.56A9.13,9.13,0,0,0,65.48,69l-.49.81C64.88,70,64.81,70.14,64.8,70.13Z" fill="url(#af)"/></svg>