<svg xmlns="http://www.w3.org/2000/svg" xmlns:xlink="http://www.w3.org/1999/xlink" viewBox="0 0 50 50"><defs><clipPath id="a"><path d="M22.91,27.19l-2.5,1.26-1.54.78-.15.07a1.75,1.75,0,0,0-1,1.53v6.29a1.72,1.72,0,0,1-.83,1.44,2.21,2.21,0,0,1-1.24.37,2.27,2.27,0,0,1-1-.25A5.32,5.32,0,0,1,11.55,34V27.47a4.86,4.86,0,0,0-.83-2.71,5.76,5.76,0,0,0-2.26-2l11.35-5.73h0a5.86,5.86,0,0,1,2.27,2,4.94,4.94,0,0,1,.83,2.71v5.45Z" fill="none"/></clipPath></defs><title>landing</title><ellipse cx="43.74" cy="35.23" rx="5.26" ry="2.66" fill="#e0e0e0"/><polygon points="10.16 37.12 33.69 49 44.48 43.55 20.94 31.67 10.16 37.12" fill="#e0e0e0"/><path d="M6,39.46,1.11,37c-.15-.07-.15-.19,0-.26l17.12-8.65a.62.62,0,0,1,.53,0l4.87,2.46c.14.07.14.19,0,.26L6.5,39.46A.67.67,0,0,1,6,39.46Z" fill="#e0e0e0"/><path d="M21.37,1.94,6.92,9.24a1,1,0,0,0-.53.8V38.56c0,.29.24.41.53.26l14.45-7.3a1,1,0,0,0,.53-.79V2.21C21.9,1.92,21.66,1.8,21.37,1.94ZM21.14,28.1c0,.25-.2.41-.45.53L7.55,35.27c-.25.13-.45,0-.45-.23V12.71A.86.86,0,0,1,7.55,12L20.69,5.39c.25-.13.45,0,.45.22Z" fill="#37474f"/><path d="M6.85,38.85a1.28,1.28,0,0,1-1,0l-.6-.3a1,1,0,0,1-.53-.8V9.21a.79.79,0,0,1,.09-.35l.06-.11h0l1.66.84h0a.56.56,0,0,0-.09.17.72.72,0,0,0-.07.28V38.56C6.39,38.83,6.59,39,6.85,38.85Z" fill="#263238"/><path d="M14.27,32.67c.46-.24.83-.05.83.42a1.56,1.56,0,0,1-.83,1.25c-.46.23-.83,0-.83-.42A1.56,1.56,0,0,1,14.27,32.67Z" fill="#58c2b1"/><path d="M14.15,6.21c.19-.1.35,0,.35.18a.68.68,0,0,1-.35.53c-.2.1-.36,0-.36-.18A.67.67,0,0,1,14.15,6.21Z"/><path d="M12.79,8.08l2.72-1.37c.16-.08.29,0,.29.13a.55.55,0,0,1-.29.43L12.79,8.64c-.17.08-.3,0-.3-.13A.56.56,0,0,1,12.79,8.08Z"/><path d="M21.14,28.07c0,.26-.2.42-.45.54L7.55,35.25c-.25.12-.45,0-.45-.23V12.68A.86.86,0,0,1,7.55,12L20.69,5.36c.25-.12.45,0,.45.23Z" fill="#58c2b1" stroke="#fff" stroke-miterlimit="10"/><path d="M21.89,2.14c0-.24-.25-.33-.52-.2L6.92,9.24a1,1,0,0,0-.37.35L4.89,8.75a1,1,0,0,1,.38-.34l14.45-7.3a1.28,1.28,0,0,1,1.05,0l.6.3A1,1,0,0,1,21.89,2.14Z" fill="#455b64"/><path d="M11,15.7a1.18,1.18,0,0,1,.41-.12.51.51,0,0,1,.32.1A.56.56,0,0,1,12,16a1.38,1.38,0,0,1,.09.45V17a2.54,2.54,0,0,1-.09.54,2.65,2.65,0,0,1-.2.49,2.15,2.15,0,0,1-.32.41,1.49,1.49,0,0,1-.41.3l-.88.45s-.05,0-.06,0a.08.08,0,0,1,0-.07V16.3a.16.16,0,0,1,0-.09.11.11,0,0,1,.06-.07Zm.42,1c0-.33-.16-.43-.44-.28l-.33.16v1.68l.35-.18a.77.77,0,0,0,.42-.72,1.09,1.09,0,0,0,0-.18v-.31A1,1,0,0,0,11.44,16.7Z" fill="#fff"/><path d="M13.58,14.41a.09.09,0,0,1,.1,0,.1.1,0,0,1,0,.07l.72,2.42a.13.13,0,0,1,0,.06.19.19,0,0,1,0,.07.1.1,0,0,1,0,.06L14,17.3a.12.12,0,0,1-.1,0s0,0,0-.06l-.09-.32-.87.44-.09.41a.36.36,0,0,1,0,.09.2.2,0,0,1-.09.09l-.41.21a0,0,0,0,1-.06,0,.08.08,0,0,1,0-.05.45.45,0,0,1,0-.08l.71-3.13a.31.31,0,0,1,0-.12.17.17,0,0,1,.1-.1Zm-.53,2.19.53-.27-.27-.92Z" fill="#fff"/><path d="M16.17,13.1h.06a.09.09,0,0,1,0,.07v.47a.19.19,0,0,1,0,.1l-.06.06-.58.3v2.26a.29.29,0,0,1,0,.09.14.14,0,0,1-.06.07l-.43.22a.06.06,0,0,1-.07,0,.12.12,0,0,1,0-.07V14.4l-.58.29h-.06a.09.09,0,0,1,0-.07v-.47a.22.22,0,0,1,0-.1.17.17,0,0,1,.06-.06Z" fill="#fff"/><path d="M17.53,12.41s.08,0,.1,0a.12.12,0,0,1,.05.07l.71,2.42a.14.14,0,0,1,0,.06.31.31,0,0,1,0,.08l-.05.05-.42.21a.1.1,0,0,1-.09,0,.09.09,0,0,1,0-.06l-.1-.32-.87.44-.09.42a.23.23,0,0,1,0,.09.21.21,0,0,1-.1.08l-.41.21h-.05a.14.14,0,0,1,0-.06.2.2,0,0,1,0-.07l.72-3.14a.56.56,0,0,1,0-.12.24.24,0,0,1,.1-.1ZM17,14.6l.53-.26-.26-.93Z" fill="#fff"/><path d="M43,12.8a1.7,1.7,0,0,0-1.43.57c-.39.4-2.28,3.47-2.28,3.47s.36.87,1.13.79l1.45-2Z" fill="#f7a7a8"/><path d="M43.13,12.8a2.56,2.56,0,0,0-.94.06,1.67,1.67,0,0,0-.86.73c-.21.28-.94,1.44-.94,1.44a1.51,1.51,0,0,0,1.37.87Z" fill="#e0e0e0"/><path d="M45.76,34.59v-.14a3.33,3.33,0,0,1-.83,1.27c-.37.29-.87.63-1,1s.69.46,1,.4a2.16,2.16,0,0,0,1.19-.56c.19-.21.32-.46.46-.62s.47-.36.54-.55a1.07,1.07,0,0,0-.07-.53c-.05-.18-.11-.38-.18-.36v.11a1,1,0,0,1-.58.17C46.17,34.74,45.76,34.71,45.76,34.59Z" fill="#263238"/><path d="M44.6,36l.33-.26a2.94,2.94,0,0,0,.71-1,1.25,1.25,0,0,0,.12-.54v-.58h1.16v1h0v0h0a6.32,6.32,0,0,1-.9,1.14,1.7,1.7,0,0,1-1,.62C44.54,36.39,44.32,36.27,44.6,36Z" fill="#f7a7a8"/><path d="M41.66,33.59v-.14a3.33,3.33,0,0,1-.83,1.27c-.37.29-.87.63-1,1s.69.46,1,.4a2.23,2.23,0,0,0,1.19-.56c.19-.21.32-.46.46-.63s.47-.35.54-.54a1.07,1.07,0,0,0-.07-.53c0-.18-.11-.38-.18-.36v.11a1,1,0,0,1-.58.17C42.07,33.73,41.66,33.7,41.66,33.59Z" fill="#263238"/><path d="M40.5,35l.33-.25a3,3,0,0,0,.71-1,1.25,1.25,0,0,0,.12-.54v-.58h1.16v1h0v0h0a6.69,6.69,0,0,1-.9,1.14,1.64,1.64,0,0,1-1,.61C40.44,35.38,40.22,35.26,40.5,35Z" fill="#f7a7a8"/><path d="M46.69,18.8c.9,1.72,0,7.78,0,7.78a10.32,10.32,0,0,1,.53,2.06,35.59,35.59,0,0,1-.26,5.1,1.43,1.43,0,0,1-1.17,0s-1.11-5.49-1.31-6.94c-.19-1.26-.53-4-.53-4l-.56,4a6.75,6.75,0,0,1,.31,1.24,33,33,0,0,1-.85,4.8,2.89,2.89,0,0,1-1.16,0s-.33-5.24-.42-6.27c-.15-1.71-.06-7.07.3-8.09Z" fill="#455b64"/><path d="M43.92,22.81l-.3-1.59a5,5,0,0,1-1.79-.69,3.17,3.17,0,0,0,1.46.85l.33,1.23-.23,4Z" fill="#37474f"/><path d="M45.1,12.82h0l.71,0c.49,0,.61.68.82,1.05a1.54,1.54,0,0,1,0,1.31l-.8,2s.37.8.81,1.55c-2,1-4.54.47-5.15-.25,0-.15.13-1.35.23-2.13a2.48,2.48,0,0,1-.3-1.79A3.1,3.1,0,0,1,43,12.8Z" fill="#f1f0f0"/><path d="M46.83,9l-.42,0a.45.45,0,0,0,.13-.11.3.3,0,0,0-.14-.42l-.27.43A2.53,2.53,0,0,0,43.9,7.77h-.22A2.27,2.27,0,0,0,41.38,10c.07,1.21.15,2.57.15,2.57L44,12.48a2.4,2.4,0,0,0,2.44-2.37l0-.32a2,2,0,0,0-.13-.59.21.21,0,0,0,.12,0A.33.33,0,0,0,46.83,9Z" fill="#455b64"/><path d="M41.83,10.17a3.42,3.42,0,0,0,0,.7c.09,1.09.52,1.34.72,1.41a2.5,2.5,0,0,0,1-.07v.64s-.45.58-.4.88.78.33,1.26,0a2,2,0,0,0,.67-.86V11.38a.52.52,0,0,0,.68,0,.72.72,0,0,0,.13-1.07c-.26-.21-.8-.12-.88.18,0,0-.88-.06-1-1.33C43.2,10.11,41.88,9.44,41.83,10.17Z" fill="#f7a7a8"/><path d="M45,10.43,45,11h0a.41.41,0,0,1-.44-.35l0-.6Z" fill="#455b64"/><path d="M43.39,10.49a.16.16,0,0,0,.16.15.16.16,0,0,0,.16-.15.16.16,0,0,0-.32,0Z" fill="#263238"/><path d="M43.38,11.46,43,11.6a.23.23,0,0,0,.29.12A.19.19,0,0,0,43.38,11.46Z" fill="#f3908f"/><path d="M43.57,9.88l.36.1a.15.15,0,0,0-.11-.21A.21.21,0,0,0,43.57,9.88Z" fill="#455b64"/><path d="M42,10.55a.14.14,0,0,0,.16.14.14.14,0,1,0-.16-.14Z" fill="#263238"/><polygon points="42.96 10.44 42.99 11.27 42.48 11.15 42.96 10.44" fill="#f3908f"/><path d="M43.55,12.21c.4-.07,1.22-.31,1.33-.6a.76.76,0,0,1-.27.37,4.73,4.73,0,0,1-1.06.45Z" fill="#f3908f"/><path d="M44.59,19c.66-.14.79-.35.61-.93,0,0,0,0,0-.06-.13-.27-.65-.11-.65-.11s.21-.23.45-.52a2.24,2.24,0,0,0,.38-1.13l.09-1a.63.63,0,0,0,.32-.77l.8-.43.14.1a1.55,1.55,0,0,1,0,1.1l-.8,2a11.15,11.15,0,0,1,.81,1.55,5.85,5.85,0,0,1-4.31.25A6.61,6.61,0,0,0,44.59,19Z" fill="#e6e6e6"/><path d="M45.15,10.32l-.91,0a.52.52,0,0,0-.52-.34h-.08a.5.5,0,0,0-.45.3.42.42,0,0,0-.3-.1.4.4,0,0,0-.26.08.52.52,0,0,0-.46-.21h-.08a.47.47,0,0,0-.48.47.5.5,0,0,0,.54.42h.07a.49.49,0,0,0,.49-.47.57.57,0,0,0,0-.14.28.28,0,0,1,.22-.08.34.34,0,0,1,.27.11h0a.28.28,0,0,0,0,.09.5.5,0,0,0,.54.42h.07a.48.48,0,0,0,.49-.46v0l.82,0Zm-2.93.6h-.08a.41.41,0,0,1-.44-.35.38.38,0,0,1,.4-.39h.07a.41.41,0,0,1,.45.35A.39.39,0,0,1,42.22,10.92Zm1.55-.07h-.08a.4.4,0,0,1-.44-.35.39.39,0,0,1,.4-.39h.07a.41.41,0,0,1,.45.35A.4.4,0,0,1,43.77,10.85Z" fill="#263238"/><polygon points="37.65 16.19 41.73 17.13 42.85 21.16 38.97 20.18 37.65 16.19" fill="#58c2b1"/><polygon points="37.65 16.19 41.73 17.13 42.85 21.16 38.97 20.18 37.65 16.19" opacity="0.25"/><path d="M40.4,19.52c0,.22.2.47.71.69a4,4,0,0,0,1.5.09l-.14-.5Z" opacity="0.2"/><g opacity="0.2"><path d="M39.49,19.05a.83.83,0,0,1-.75.43l0-.12Z"/></g><g opacity="0.1"><path d="M38.88,16.83l0-.14c0-.07.22-.07.54,0l.6.13c.31.08.58.19.6.27l0,.13Z"/></g><path d="M38.56,16.32c0-.05.09-.06.22,0l.24.06s-.07-.29.46-.19a.8.8,0,0,1,.64.43l.25.07a.48.48,0,0,1,.29.15l0,.08-2.1-.48Z" fill="#37474f"/><path d="M38.85,16.46c.2.05.28.07.3.18a1.55,1.55,0,0,1,.05.23l.93.22s0-.17-.06-.24,0-.1.17-.07v-.05l-1.46-.32Z" fill="#37474f"/><path d="M38.82,16.84l0-.13c0-.08.22-.08.53,0l.6.14c.32.07.59.19.6.26l0,.14Z" fill="#37474f"/><path d="M38.08,17.49l.19.56c0,.11.49.3.79.38s.62.15.48.52-.62.42-.87.41a.9.9,0,0,1-.73-.56,5.09,5.09,0,0,1-.15-1.15C37.72,17.4,37.93,17.34,38.08,17.49Z" fill="#f7a7a8"/><path d="M45.72,12.85a1.11,1.11,0,0,1,1.15.84c.09.55.6,3.48.4,3.81-.47.76-3.55,2.2-3.85,2.33a3.8,3.8,0,0,1-1.42.33,1.85,1.85,0,0,1-1.44-.39c-.29-.33-.45-1,.2-.85a7.8,7.8,0,0,0,1.48.06l-.08-.27a1.46,1.46,0,0,1,.5.07c.32.08.62-.16,1.19-.47a20.57,20.57,0,0,0,1.85-1.24l-.46-2.44A3.61,3.61,0,0,1,45.72,12.85Z" fill="#f7a7a8"/><path d="M45.62,12.85a1.19,1.19,0,0,1,.59.05.94.94,0,0,1,.72.79c.13.54.38,2.55.38,2.55a2.65,2.65,0,0,1-1.78.22l-.39-1.82S44.83,13.37,45.62,12.85Z" fill="#e0e0e0"/><polygon points="7.94 22.52 20.84 16 20.84 17.57 7.94 24.08 7.94 22.52" fill="#455b64"/><polygon points="8.46 22.78 8.46 23.3 20.33 17.31 20.33 16.79 8.46 22.78" fill="#263238"/><polygon points="7.94 22.52 7.43 22.26 20.33 15.74 20.84 16 7.94 22.52" fill="#37474f"/><polygon points="7.43 22.26 7.94 22.52 7.94 24.08 7.43 23.82 7.43 22.26" fill="#263238"/><polygon points="45.1 42.85 33.74 48.58 33.74 48.33 45.1 42.6 45.1 42.85" fill="#37474f"/><path d="M22.91,27.19l-2.5,1.26-1.54.78-.15.07a1.75,1.75,0,0,0-1,1.53v6.29a1.72,1.72,0,0,1-.83,1.44,2.21,2.21,0,0,1-1.24.37,2.27,2.27,0,0,1-1-.25A5.32,5.32,0,0,1,11.55,34V27.47a4.86,4.86,0,0,0-.83-2.71,5.76,5.76,0,0,0-2.26-2l11.35-5.73h0a5.86,5.86,0,0,1,2.27,2,4.94,4.94,0,0,1,.83,2.71v5.45Z" fill="#f5f5f5"/><path d="M27,44.94a5.33,5.33,0,0,1-3.1-4.69V34a4.73,4.73,0,0,0-.49-2.1,5.24,5.24,0,0,0-.34-.61,5.79,5.79,0,0,0-2.27-2h0a2.08,2.08,0,0,0-3.09,1.56v6.29a2.08,2.08,0,0,1-3.1,1.56A5.32,5.32,0,0,1,11.55,34V27.47a4.86,4.86,0,0,0-.83-2.71,5.76,5.76,0,0,0-2.26-2V23a5.09,5.09,0,0,1,2.84,4.43V34a5.59,5.59,0,0,0,3.22,4.89,2.63,2.63,0,0,0,2.32,0l.13-.07h0a1.94,1.94,0,0,0,1-1.68V30.83a1.55,1.55,0,0,1,.91-1.37,2.06,2.06,0,0,1,1.81,0A5.49,5.49,0,0,1,23.23,32a4.57,4.57,0,0,1,.46,2v6.29a5.55,5.55,0,0,0,3.22,4.88l6.83,3.45v-.25Z" fill="#455b64"/><path d="M45.1,42.6,33.74,48.33,27,44.94a5.33,5.33,0,0,1-3.1-4.69V34a4.73,4.73,0,0,0-.49-2.1,5.24,5.24,0,0,0-.34-.61,5.79,5.79,0,0,0-2.27-2,2.27,2.27,0,0,0-2,0l1.54-.78,3.09-1.56,6.62-3.34h0a2.26,2.26,0,0,1,2.06,0,5.83,5.83,0,0,1,2.26,2,4.86,4.86,0,0,1,.83,2.71v6.29a5.34,5.34,0,0,0,3.1,4.69Z" fill="#fafbfb"/><path d="M23.69,34a4.57,4.57,0,0,0-.46-2,5.49,5.49,0,0,0-2.51-2.51,2.06,2.06,0,0,0-1.81,0A1.55,1.55,0,0,0,18,30.83v6.29a1.94,1.94,0,0,1-1,1.68h0l-.13.07,6.85-3.46Z" fill="#e0e0e0"/><path d="M23.69,34a4.57,4.57,0,0,0-.46-2,5.49,5.49,0,0,0-2.51-2.51,2.06,2.06,0,0,0-1.81,0A1.55,1.55,0,0,0,18,30.83v6.29a1.94,1.94,0,0,1-1,1.68h0l-.13.07,6.85-3.46Z" opacity="0.15"/><g clip-path="url(#a)"><path d="M10.47,22.81a1,1,0,0,0,1,.07l8.1-4.1c.3-.15.38-.44.14-.62a1,1,0,0,0-1,0l-8.1,4.09C10.27,22.38,10.24,22.63,10.47,22.81Z" fill="#58c2b1"/><path d="M17,21.26a.09.09,0,0,1-.08,0s0-.08,0-.1l3.79-1.92a.11.11,0,0,1,.12,0,.07.07,0,0,1,0,.11l-3.79,1.91Z" opacity="0.4"/><path d="M17.3,21.69a.09.09,0,0,1-.08,0,.08.08,0,0,1,0-.11L21,19.63a.09.09,0,0,1,.12,0,.07.07,0,0,1,0,.11l-3.79,1.91Z" opacity="0.4"/><path d="M17.54,22.14a.08.08,0,0,1-.07,0,.07.07,0,0,1,0-.11l3.79-1.91a.09.09,0,0,1,.12,0,.07.07,0,0,1,0,.11l-3.79,1.91Z" opacity="0.4"/><path d="M17.74,22.6a.12.12,0,0,1-.08,0,.08.08,0,0,1,0-.11l3.78-1.91a.11.11,0,0,1,.13,0,.07.07,0,0,1,0,.1l-3.78,1.92Z" opacity="0.4"/><path d="M17.89,23.05s-.07,0-.08,0a.07.07,0,0,1,0-.11L21.63,21a.09.09,0,0,1,.12,0s0,.08,0,.11L17.93,23Z" opacity="0.4"/><path d="M18,23.54a.08.08,0,0,1-.07,0,.07.07,0,0,1,0-.11l3.79-1.91a.1.1,0,0,1,.12,0,.07.07,0,0,1,0,.1L18,23.53Z" opacity="0.4"/><path d="M18,24.06A.1.1,0,0,1,18,24a.07.07,0,0,1,0-.11L21.78,22a.08.08,0,0,1,.12,0s0,.08,0,.1l-3.79,1.92Z" opacity="0.4"/><path d="M12.64,27.76a.06.06,0,0,1-.06,0,0,0,0,0,1,0-.07L21.79,23a.1.1,0,0,1,.09,0,.05.05,0,0,1,0,.08l-9.19,4.64Z" opacity="0.4"/><path d="M12.64,28.26a.06.06,0,0,1-.06,0,.05.05,0,0,1,0-.08l9.19-4.64a.08.08,0,0,1,.09,0,.05.05,0,0,1,0,.08l-9.19,4.64Z" opacity="0.4"/><path d="M12.64,28.75a.08.08,0,0,1-.06,0,.05.05,0,0,1,0-.08L21.79,24a.07.07,0,0,1,.09,0,0,0,0,0,1,0,.07l-9.19,4.65Z" opacity="0.4"/><path d="M12.64,29.25a.06.06,0,0,1-.06,0,0,0,0,0,1,0-.07l9.19-4.65a.1.1,0,0,1,.09,0,.05.05,0,0,1,0,.08l-9.19,4.64Z" opacity="0.4"/><path d="M12.64,27a.06.06,0,0,1-.06,0,0,0,0,0,1,0-.07l4.87-2.46a.07.07,0,0,1,.09,0,.05.05,0,0,1,0,.07L12.67,27Z" opacity="0.4"/><path d="M12.5,24.19a5,5,0,0,1,.45,1,4.58,4.58,0,0,1,.21,1.1c0,.07.07.1.15.07l.27-.14a.24.24,0,0,0,.13-.21A5,5,0,0,0,13,23.91a.17.17,0,0,0-.21-.05l-.27.14A.14.14,0,0,0,12.5,24.19Z" fill="#58c2b1"/><path d="M13.3,23.21A4.93,4.93,0,0,1,14,24.42a4.58,4.58,0,0,1,.29,1.33c0,.08.07.11.15.07l.27-.14a.23.23,0,0,0,.13-.21,5.05,5.05,0,0,0-.3-1.32,5.16,5.16,0,0,0-.64-1.21.21.21,0,0,0-.23-.05l-.27.13A.12.12,0,0,0,13.3,23.21Z" fill="#58c2b1"/><path d="M15.44,23.67l-.27.14a.18.18,0,0,0-.09.2,4.18,4.18,0,0,1,.24,1.19.09.09,0,0,0,.15.07l.27-.13a.24.24,0,0,0,.13-.21,5,5,0,0,0-.25-1.2A.12.12,0,0,0,15.44,23.67Z" fill="#58c2b1"/><path d="M16.52,22.73a.14.14,0,0,0-.2-.06l-.27.13A.17.17,0,0,0,16,23a2.52,2.52,0,0,1,.14.33,4.92,4.92,0,0,1,.3,1.33.09.09,0,0,0,.14.07l.27-.14a.23.23,0,0,0,.13-.21,5.47,5.47,0,0,0-.29-1.32C16.61,22.94,16.57,22.83,16.52,22.73Z" fill="#58c2b1"/><path d="M12.82,26.09a0,0,0,0,0-.06,0l-.11.06-.09-.41.15-.07a0,0,0,0,0,0-.06s0,0-.06,0l-.13.06c0-.13-.09-.26-.13-.39l.14-.08a0,0,0,0,0,0-.05s0,0-.06,0l-.13.06c-.05-.12-.11-.25-.17-.37h0l.14-.08a0,0,0,0,0,0-.05.06.06,0,0,0-.07,0l-.13.07a2.71,2.71,0,0,0-.21-.37l.14-.08s0,0,0-.05a0,0,0,0,0-.06,0l-.14.07c-.08-.12-.16-.24-.25-.35l.16-.08s0,0,0-.06a0,0,0,0,0-.06,0l-.17.08-.31-.36s0,0-.06,0,0,0,0,.05.21.23.3.35l-.15.08s0,0,0,.05,0,0,0,0h0l.16-.08c.09.11.17.23.25.35l-.18.09a0,0,0,0,0,0,.05l0,0h0l.18-.09a2.71,2.71,0,0,1,.21.37l-.19.09s0,0,0,0,0,0,0,0h0l.18-.09h0c.06.12.11.25.17.38l-.19.1s0,0,0,.05a.05.05,0,0,0,0,0h0l.18-.09c0,.13.09.26.12.39l-.18.1s0,0,0,0,0,0,0,0h0l.17-.09c0,.14.06.27.08.41l-.2.1a0,0,0,0,0,0,.06l0,0h0l.17-.09a4.4,4.4,0,0,1,.05.51.07.07,0,0,0,0,0h0s.05,0,0-.05a5,5,0,0,0-.06-.54l.15-.07A0,0,0,0,0,12.82,26.09Z" opacity="0.4"/><g opacity="0.15"><path d="M13.28,33.8a6.7,6.7,0,0,1,0-.89,4.44,4.44,0,0,1,1.6-2.28.89.89,0,0,1,.19-.07h.09c.26,0,.38.33.5.64a3.34,3.34,0,0,0,.16.38.47.47,0,0,0,.41.29.6.6,0,0,0,.27-.07c.49-.24.63-.9.78-1.59a6.87,6.87,0,0,1,.23-.92,1.31,1.31,0,0,1,.6-.78.46.46,0,0,1,.23-.07c.28,0,.39.44.49.86a3.33,3.33,0,0,0,.2.65c.11.21.24.31.41.31a.75.75,0,0,0,.3-.08,2,2,0,0,0,.94-1.31,1.59,1.59,0,0,1,.68-1,.75.75,0,0,1,.3-.08l.12,0a1.67,1.67,0,0,1,0,.24v1a2.82,2.82,0,0,0,.05.47Z" fill="#58c2b1"/><path d="M21.88,29.52c0-.15,0-.32-.05-.5V28a1.68,1.68,0,0,0,0-.28.53.53,0,0,0-.18,0h0a.75.75,0,0,0-.33.09c-.87.45-.54,1.77-1.63,2.32a.56.56,0,0,1-.26.07.4.4,0,0,1-.35-.27c-.26-.51-.25-1.54-.75-1.54a.56.56,0,0,0-.26.07,1.4,1.4,0,0,0-.63.82c-.32.89-.3,2.14-1,2.47a.49.49,0,0,1-.24.07.41.41,0,0,1-.35-.26c-.21-.39-.29-1.05-.72-1.05H15a.59.59,0,0,0-.22.08,4.44,4.44,0,0,0-1.62,2.31,6.44,6.44,0,0,0,.05,1l.13-.06a.33.33,0,0,1,0-.12,5.3,5.3,0,0,1,0-.8,4.35,4.35,0,0,1,1.56-2.23.67.67,0,0,1,.18-.07h.07c.22,0,.33.3.44.6a3.34,3.34,0,0,0,.16.38.56.56,0,0,0,.47.33.83.83,0,0,0,.31-.08c.51-.26.65-.92.8-1.63a6.37,6.37,0,0,1,.23-.91,1.31,1.31,0,0,1,.58-.76.54.54,0,0,1,.19-.05c.23,0,.33.43.43.81a2.85,2.85,0,0,0,.2.66.52.52,0,0,0,.47.34.75.75,0,0,0,.33-.09,2,2,0,0,0,1-1.33,1.58,1.58,0,0,1,.66-1,.54.54,0,0,1,.26-.07h.07c0,.12,0,.19,0,.2v1a4.23,4.23,0,0,0,0,.43.29.29,0,0,0,0,.12l.11-.06"/></g><g opacity="0.4"><path d="M13.18,32.39v.51a5.39,5.39,0,0,0,.05,1l8.65-4.37c0-.15,0-.32-.05-.5V28s0-1.49-1.08-1-.82,2.4-1.63,2.81-.54-1.22-1.62-.67S17,31,15.88,31.53s-.54-2.21-1.62-1.67S13.18,31.77,13.18,32.39Z" fill="#58c2b1"/></g><path d="M12.78,34.66l0,0a0,0,0,0,1,0,0L22,30A.06.06,0,0,1,22,30,0,0,0,0,1,22,30l-9.2,4.61Z" opacity="0.4"/><path d="M14.26,30.13a0,0,0,0,1,0,0V30a0,0,0,0,1,0,0,0,0,0,0,1,0,0v.08A0,0,0,0,1,14.26,30.13Z" fill="#fff"/><path d="M14.28,33.16a0,0,0,0,1,0,0,.76.76,0,0,1,0-.15s0,0,0,0,0,0,.05,0a.76.76,0,0,0,0,.15s0,0,0,0Zm0-.31s0,0,0,0v-.16a0,0,0,0,1,0,0,0,0,0,0,1,.05,0v.15s0,0-.05,0Zm0-.3a0,0,0,0,1,0,0v-.15a0,0,0,0,1,0,0h0a0,0,0,0,1,0,0v.15a0,0,0,0,1,0,0Zm0-.3a0,0,0,0,1,0,0v-.15a0,0,0,0,1,0,0h0a0,0,0,0,1,0,0v.15a0,0,0,0,1,0,0Zm0-.3a0,0,0,0,1,0,0v-.15s0,0,0,0a0,0,0,0,1,0,0v.15A0,0,0,0,1,14.26,32Zm0-.31s0,0,0,0v-.15a0,0,0,0,1,0,0,0,0,0,0,1,0,0v.15A0,0,0,0,1,14.26,31.64Zm0-.3a0,0,0,0,1,0,0v-.15a0,0,0,0,1,0,0,0,0,0,0,1,0,0v.15A0,0,0,0,1,14.26,31.34Zm0-.3h0a0,0,0,0,1,0,0v-.15s0,0,0,0a0,0,0,0,1,0,0V31A0,0,0,0,1,14.26,31Zm0-.31h0s0,0,0,0v-.16a0,0,0,0,1,0,0,0,0,0,0,1,0,0v.16S14.28,30.73,14.26,30.73Zm0-.3a0,0,0,0,1,0,0v-.15a0,0,0,0,1,0,0h0a0,0,0,0,1,0,0v.15A0,0,0,0,1,14.26,30.43Z" fill="#fff"/><path d="M14.31,33.38s0,0,0,0a.22.22,0,0,1,0-.08s0,0,0,0a.05.05,0,0,1,0,0,.22.22,0,0,0,0,.08,0,0,0,0,1,0,0Z" fill="#fff"/><path d="M20.75,27.2a0,0,0,0,1-.05,0v-.08a0,0,0,0,1,.05,0h0a0,0,0,0,1,0,0v.08A0,0,0,0,1,20.75,27.2Z" fill="#fff"/><path d="M20.77,30.23a0,0,0,0,1,0,0c0-.05,0-.1,0-.15a0,0,0,0,1,.05,0,0,0,0,0,1,0,0c0,.05,0,.1,0,.15a0,0,0,0,1,0,0Zm0-.3a0,0,0,0,1,0,0c0-.05,0-.1,0-.15s0,0,.05,0h0a0,0,0,0,1,0,0c0,.05,0,.1,0,.15a0,0,0,0,1-.05,0Zm0-.31s-.05,0-.05,0v-.15a0,0,0,0,1,.05,0h0a0,0,0,0,1,0,0v.15a0,0,0,0,1,0,0Zm0-.3a0,0,0,0,1-.05,0v-.15a0,0,0,0,1,.05,0h0a0,0,0,0,1,0,0v.15a0,0,0,0,1,0,0Zm0-.3a0,0,0,0,1-.05,0v-.15a0,0,0,0,1,.05,0,0,0,0,0,1,0,0V29A0,0,0,0,1,20.75,29Zm0-.3a0,0,0,0,1-.05,0v-.16s0,0,.05,0,0,0,0,0v.16A0,0,0,0,1,20.75,28.72Zm0-.31s-.05,0-.05,0v-.15a0,0,0,0,1,.05,0,0,0,0,0,1,0,0v.15A0,0,0,0,1,20.75,28.41Zm0-.3h0a0,0,0,0,1-.05,0v-.15a0,0,0,0,1,.05,0,0,0,0,0,1,0,0v.15A0,0,0,0,1,20.75,28.11Zm0-.3h0a0,0,0,0,1-.05,0v-.15s0,0,.05,0a0,0,0,0,1,0,0v.15A0,0,0,0,1,20.75,27.81Zm0-.31h0s-.05,0-.05,0v-.15a0,0,0,0,1,.05,0,0,0,0,0,1,0,0v.15A0,0,0,0,1,20.75,27.5Z" fill="#fff"/><path d="M20.8,30.46a0,0,0,0,1,0,0v-.08s0,0,0,0,0,0,0,0l0,.07a.07.07,0,0,1,0,.05Z" fill="#fff"/><path d="M17.5,29.47a0,0,0,0,1,0,0v-.08a0,0,0,0,1,0,0,0,0,0,0,1,.05,0v.08A0,0,0,0,1,17.5,29.47Z" fill="#fff"/><path d="M17.53,31.54a0,0,0,0,1-.05,0c0-.05,0-.09,0-.14a0,0,0,0,1,.09,0s0,.1,0,.15a0,0,0,0,1,0,0Zm0-.3s-.05,0-.05,0v-.15a0,0,0,0,1,0,0h0a0,0,0,0,1,.05,0v.14a0,0,0,0,1,0,0Zm0-.29a0,0,0,0,1,0,0v-.15a0,0,0,0,1,0,0h0a0,0,0,0,1,.05,0v.15a0,0,0,0,1-.05,0Zm0-.3a0,0,0,0,1,0,0v-.14a0,0,0,0,1,0,0h0s.05,0,.05,0v.14s0,0-.05,0Zm0-.29a0,0,0,0,1,0,0v-.15a0,0,0,0,1,0,0,0,0,0,0,1,.05,0v.15A0,0,0,0,1,17.5,30.36Zm0-.3h0a0,0,0,0,1,0,0v-.14a0,0,0,0,1,0,0s.05,0,.05,0V30S17.53,30.06,17.5,30.06Zm0-.29h0a0,0,0,0,1,0,0v-.15a0,0,0,0,1,0,0,0,0,0,0,1,.05,0v.15A0,0,0,0,1,17.5,29.77Z" fill="#fff"/><path d="M17.56,31.76s0,0,0,0v-.08a0,0,0,0,1,0,0,0,0,0,0,1,.05,0v.08a0,0,0,0,1,0,0Z" fill="#fff"/><path d="M14.26,29.71c.08-.05.15,0,.15.06a.28.28,0,0,1-.15.22c-.09.05-.16,0-.16-.06A.27.27,0,0,1,14.26,29.71Z" opacity="0.4"/><path d="M17.5,29.05c.09,0,.16,0,.16.07a.3.3,0,0,1-.16.22c-.08,0-.15,0-.15-.07A.28.28,0,0,1,17.5,29.05Z" opacity="0.4"/><path d="M20.75,26.94c.08,0,.15,0,.15.06a.32.32,0,0,1-.15.23c-.09,0-.16,0-.16-.07A.27.27,0,0,1,20.75,26.94Z" opacity="0.4"/><path d="M12.84,30.62a0,0,0,0,0,0-.05s0,0-.06,0l-.12.06v-.41l.16-.08a0,0,0,0,0,0-.06s0,0-.06,0l-.12.06v-.43a0,0,0,0,0,0,0,0,0,0,0,0-.05,0v.47l-.16.09a0,0,0,0,0,0,.05l0,0s0,0,0,0l.12-.06v.41l-.16.08a0,0,0,0,0,0,.06l0,0h0l.12-.06v.41l-.16.08s0,0,0,.05,0,0,0,0h0l.12-.06v.41l-.16.08a0,0,0,0,0,0,.05.05.05,0,0,0,0,0h0l.12-.06v.4l-.16.09a0,0,0,0,0,0,0,.05.05,0,0,0,0,0s0,0,0,0l.12-.06v.41l-.16.08a0,0,0,0,0,0,.06.05.05,0,0,0,0,0h0l.12-.06v.41l-.16.08a0,0,0,0,0,0,.05s0,0,0,0h0l.12-.06c0,.13,0,.27,0,.4l-.17.09a0,0,0,0,0,0,.05l0,0h0l.13-.07a3.12,3.12,0,0,0,.05.44s0,0,0,0h0a0,0,0,0,0,0,0,3.75,3.75,0,0,1-.05-.47l.15-.08a0,0,0,0,0,0-.06.06.06,0,0,0-.06,0l-.12.06v-.41l.16-.08a0,0,0,0,0,0,0,0,0,0,0,0-.06,0l-.12.06v-.4l.16-.09a0,0,0,0,0,0,0,0,0,0,0,0-.06,0l-.12.05v-.4l.16-.08a0,0,0,0,0,0-.06s0,0-.06,0l-.12.06V31.7l.16-.08s0,0,0-.05a0,0,0,0,0-.06,0l-.12.06V31.2l.16-.08a0,0,0,0,0,0-.05,0,0,0,0,0-.06,0l-.12.06v-.4Z" opacity="0.4"/><path d="M24.12,33.06l-8.64,4.37a1,1,0,0,1-1-.06c-.21-.2-.13-.5.18-.65l8.64-4.37a.88.88,0,0,1,.93.1C24.47,32.64,24.42,32.91,24.12,33.06Z" fill="#58c2b1"/><path d="M12.94,35.19a.05.05,0,0,1,0,0,.05.05,0,0,1,0-.08l9.74-4.92a.06.06,0,0,1,.08,0,0,0,0,0,1,0,.07L13,35.18Z" opacity="0.4"/><path d="M13.14,35.65a.05.05,0,0,1-.05,0,.05.05,0,0,1,0-.08l9.74-4.92a.07.07,0,0,1,.08,0,.05.05,0,0,1,0,.08l-9.74,4.92Z" opacity="0.4"/><path d="M13.39,36.09a.07.07,0,0,1-.06,0,.07.07,0,0,1,0-.08l9.74-4.91a.05.05,0,0,1,.08,0,0,0,0,0,1,0,.07l-9.74,4.92Z" opacity="0.4"/><path d="M13.68,36.51a.07.07,0,0,1-.06,0,.07.07,0,0,1,0-.08l9.74-4.91a.05.05,0,0,1,.08,0,0,0,0,0,1,0,.07L13.71,36.5Z" opacity="0.4"/></g><path d="M22.18,28.36l8-4a1.55,1.55,0,0,1,1.06-.15c.27.09.22.34-.08.5l-8.11,4.09a1.3,1.3,0,0,1-1,.06C21.84,28.7,21.87,28.52,22.18,28.36Z" fill="#58c2b1"/><path d="M23.11,29.47l-.06,0s0-.06,0-.08l9.23-4.66a.07.07,0,0,1,.09,0,.05.05,0,0,1,0,.07l-9.23,4.67Z" opacity="0.4"/><path d="M23.49,29.84a.09.09,0,0,1-.06,0,.07.07,0,0,1,0-.08l9.25-4.67a.07.07,0,0,1,.08,0,.05.05,0,0,1,0,.08l-9.25,4.67Z" opacity="0.4"/><path d="M25,34h0a0,0,0,0,1,0,0V33.5c0-.32,0-.32,0-.54v0a4.94,4.94,0,0,0-.33-1.46,4.12,4.12,0,0,0-.83-1.27,0,0,0,0,1,0-.06.06.06,0,0,1,.07,0,4.06,4.06,0,0,1,.84,1.29,4.84,4.84,0,0,1,.34,1.49v0c0,.22,0,.22,0,.55v.43A0,0,0,0,1,25,34Z" opacity="0.4"/><path d="M24.93,30.59l-.13-.18a.11.11,0,0,1,0-.18l3.53-1.79a.18.18,0,0,1,.22,0,1.27,1.27,0,0,1,.13.19.14.14,0,0,1-.07.2l-3.51,1.77A.16.16,0,0,1,24.93,30.59Z" fill="#58c2b1"/><path d="M25.27,31.31a1.72,1.72,0,0,1,.07.21.12.12,0,0,0,.18.06l8.37-4.23a.18.18,0,0,0,.1-.2c0-.07-.05-.14-.07-.21a.13.13,0,0,0-.19-.06L25.36,31.1A.17.17,0,0,0,25.27,31.31Z" fill="#58c2b1"/><path d="M25.27,31.31a1.72,1.72,0,0,1,.07.21.12.12,0,0,0,.18.06l8.37-4.23a.18.18,0,0,0,.1-.2c0-.07-.05-.14-.07-.21a.13.13,0,0,0-.19-.06L25.36,31.1A.17.17,0,0,0,25.27,31.31Z" fill="#fff" opacity="0.7"/><path d="M25.52,32.28a1.79,1.79,0,0,1,0,.23.09.09,0,0,0,.15.07l5.67-2.87a.22.22,0,0,0,.13-.2l0-.23c0-.08-.08-.11-.16-.07l-5.67,2.86A.21.21,0,0,0,25.52,32.28Z" fill="#58c2b1"/><path d="M25.52,32.28a1.79,1.79,0,0,1,0,.23.09.09,0,0,0,.15.07l5.67-2.87a.22.22,0,0,0,.13-.2l0-.23c0-.08-.08-.11-.16-.07l-5.67,2.86A.21.21,0,0,0,25.52,32.28Z" opacity="0.15"/><path d="M25.56,33.29v.23c0,.07.06.1.14.06l2.43-1.22a.27.27,0,0,0,.13-.21v-.22c0-.08-.06-.11-.13-.07L25.7,33.08A.27.27,0,0,0,25.56,33.29Z" fill="#58c2b1"/><path d="M25.56,33.29v.23c0,.07.06.1.14.06l2.43-1.22a.27.27,0,0,0,.13-.21v-.22c0-.08-.06-.11-.13-.07L25.7,33.08A.27.27,0,0,0,25.56,33.29Z" fill="#fff" opacity="0.5"/><path d="M34.21,29.77s0,0,0,0V30l-.65.32v-.14a0,0,0,0,0-.05,0,0,0,0,0,0,0,0v.19l-.65.32v-.14a0,0,0,0,0,0,0,0,0,0,0,0-.05,0v.19l-.64.33v-.14s0,0,0,0a0,0,0,0,0,0,0v.18l-.65.33V31.3a0,0,0,0,0,0,0,0,0,0,0,0,0,0v.18l-.65.33v-.13a0,0,0,0,0,0,0,0,0,0,0,0-.05,0v.18l-.65.32v-.13a0,0,0,0,0,0,0,0,0,0,0,0-.05,0v.18l-.64.33v-.13a0,0,0,0,0-.05,0,0,0,0,0,0,0,0v.17l-.65.33V32.8a0,0,0,0,0-.05,0,0,0,0,0,0,0,0V33l-.65.33v-.12a0,0,0,0,0,0,0,0,0,0,0,0,0,0v.17l-.65.32v-.12a0,0,0,0,0,0,0,0,0,0,0,0-.05,0v.17l-.64.32v-.11a0,0,0,0,0,0,0,0,0,0,0,0,0,0v.16l-.56.28a0,0,0,0,0,0,.06.05.05,0,0,0,0,0h0l.52-.26v.16a0,0,0,0,0,0,0,0,0,0,0,0,0,0v-.2l.64-.33V34a0,0,0,0,0,.05,0,0,0,0,0,0,0,0v-.21l.65-.32v.15a0,0,0,0,0,0,0,0,0,0,0,0,0,0v-.2l.65-.33v.16a0,0,0,0,0,0,0,0,0,0,0,0,.05,0V33l.65-.33v.15a0,0,0,0,0,0,0,0,0,0,0,0,.05,0v-.19l.64-.33v.15a0,0,0,0,0,.05,0,0,0,0,0,0,0,0v-.2l.65-.32v.14a0,0,0,0,0,.05,0,0,0,0,0,0,0,0V31.9l.65-.32v.14a0,0,0,0,0,0,0,0,0,0,0,0,0,0v-.19L32,31.2v.14a0,0,0,0,0,0,0s0,0,0,0v-.18l.64-.33V31a0,0,0,0,0,.05,0,0,0,0,0,0,0,0v-.18l.65-.33v.13a0,0,0,0,0,0,0,0,0,0,0,0,.05,0v-.18l.65-.32v.13a0,0,0,0,0,0,0,0,0,0,0,0,0,0V29.8S34.24,29.77,34.21,29.77Z" opacity="0.4"/><path d="M27.12,35a2.08,2.08,0,0,0-.48.16A3.24,3.24,0,0,0,25,37.7v.07l1.62-.65Z" fill="#58c2b1"/><path d="M27.12,35l-.48,2.16,1.61-.81a2.46,2.46,0,0,0,0-.26C28.27,35.26,27.78,34.84,27.12,35Z" fill="#58c2b1"/><path d="M28,37a2.51,2.51,0,0,0,.21-.73l-1.61.81Z" fill="#58c2b1"/><path d="M25,37.77c0,.91.75,1.29,1.62.85A3.19,3.19,0,0,0,28,37l-1.4.08Z" fill="#58c2b1"/><path d="M27.12,35l-.48,2.16,1.61-.81a2.46,2.46,0,0,0,0-.26C28.27,35.26,27.78,34.84,27.12,35Z" fill="#fff" opacity="0.7"/><path d="M28,37a2.51,2.51,0,0,0,.21-.73l-1.61.81Z" opacity="0.15"/><path d="M25,37.77c0,.91.75,1.29,1.62.85A3.19,3.19,0,0,0,28,37l-1.4.08Z" fill="#fff" opacity="0.5"/><path d="M27.12,35a2.08,2.08,0,0,0-.48.16A3.24,3.24,0,0,0,25,37.7v.07l1.62-.65Z" fill="none" stroke="#fff" stroke-linecap="round" stroke-linejoin="round" stroke-width="1.05"/><path d="M27.12,35l-.48,2.16,1.61-.81a2.46,2.46,0,0,0,0-.26C28.27,35.26,27.78,34.84,27.12,35Z" fill="none" stroke="#fff" stroke-linecap="round" stroke-linejoin="round" stroke-width="1.05"/><path d="M28,37a2.51,2.51,0,0,0,.21-.73l-1.61.81Z" fill="none" stroke="#fff" stroke-linecap="round" stroke-linejoin="round" stroke-width="1.05"/><path d="M25,37.77c0,.91.75,1.29,1.62.85A3.19,3.19,0,0,0,28,37l-1.4.08Z" fill="none" stroke="#fff" stroke-linecap="round" stroke-linejoin="round" stroke-width="1.05"/><path d="M31.86,32.67a3.1,3.1,0,0,0-.89,2,1.28,1.28,0,0,0,.2.75l1.42-1.57Z" fill="#58c2b1"/><path d="M33.32,31.92a1.53,1.53,0,0,0-.73.19,2.55,2.55,0,0,0-.73.56l.73,1.19Z" fill="#58c2b1"/><path d="M34.06,32.38a.86.86,0,0,0-.74-.46l-.73,1.94Z" fill="#58c2b1"/><path d="M34.06,32.38l-1.47,1.48-1.42,1.57a1.06,1.06,0,0,0,1.42.19A3.19,3.19,0,0,0,34.21,33,1.32,1.32,0,0,0,34.06,32.38Z" fill="#58c2b1"/><path d="M33.32,31.92a1.53,1.53,0,0,0-.73.19,2.55,2.55,0,0,0-.73.56l.73,1.19Z" fill="#fff" opacity="0.7"/><path d="M34.06,32.38a.86.86,0,0,0-.74-.46l-.73,1.94Z" opacity="0.15"/><path d="M34.06,32.38l-1.47,1.48-1.42,1.57a1.06,1.06,0,0,0,1.42.19A3.19,3.19,0,0,0,34.21,33,1.32,1.32,0,0,0,34.06,32.38Z" fill="#fff" opacity="0.5"/><path d="M31.86,32.67a3.1,3.1,0,0,0-.89,2,1.28,1.28,0,0,0,.2.75l1.42-1.57Z" fill="none" stroke="#fff" stroke-linecap="round" stroke-linejoin="round" stroke-width="1.05"/><path d="M33.32,31.92a1.53,1.53,0,0,0-.73.19,2.55,2.55,0,0,0-.73.56l.73,1.19Z" fill="none" stroke="#fff" stroke-linecap="round" stroke-linejoin="round" stroke-width="1.05"/><path d="M34.06,32.38a.86.86,0,0,0-.74-.46l-.73,1.94Z" fill="none" stroke="#fff" stroke-linecap="round" stroke-linejoin="round" stroke-width="1.05"/><path d="M34.06,32.38l-1.47,1.48-1.42,1.57a1.06,1.06,0,0,0,1.42.19A3.19,3.19,0,0,0,34.21,33,1.32,1.32,0,0,0,34.06,32.38Z" fill="none" stroke="#fff" stroke-linecap="round" stroke-linejoin="round" stroke-width="1.05"/><path d="M28.94,34l.27-.13c.07,0,.14,0,.14.07v.22a.26.26,0,0,1-.14.21l-.27.13c-.07,0-.13,0-.13-.07v-.22A.27.27,0,0,1,28.94,34Z" fill="#58c2b1"/><path d="M28.94,35l.27-.13c.07,0,.14,0,.14.07v.22a.26.26,0,0,1-.14.21l-.27.13c-.07,0-.13,0-.13-.07v-.22A.27.27,0,0,1,28.94,35Z" fill="#58c2b1"/><path d="M28.94,35l.27-.13c.07,0,.14,0,.14.07v.22a.26.26,0,0,1-.14.21l-.27.13c-.07,0-.13,0-.13-.07v-.22A.27.27,0,0,1,28.94,35Z" fill="#fff" opacity="0.7"/><path d="M28.94,36l.27-.13c.07,0,.14,0,.14.07v.22a.26.26,0,0,1-.14.21l-.27.14c-.07,0-.13,0-.13-.07v-.23A.28.28,0,0,1,28.94,36Z" fill="#58c2b1"/><path d="M28.94,36l.27-.13c.07,0,.14,0,.14.07v.22a.26.26,0,0,1-.14.21l-.27.14c-.07,0-.13,0-.13-.07v-.23A.28.28,0,0,1,28.94,36Z" opacity="0.15"/><path d="M28.94,37l.27-.14c.07,0,.14,0,.14.07v.22a.26.26,0,0,1-.14.21l-.27.14c-.07,0-.13,0-.13-.07v-.23A.25.25,0,0,1,28.94,37Z" fill="#58c2b1"/><path d="M28.94,37l.27-.14c.07,0,.14,0,.14.07v.22a.26.26,0,0,1-.14.21l-.27.14c-.07,0-.13,0-.13-.07v-.23A.25.25,0,0,1,28.94,37Z" fill="#fff" opacity="0.5"/><path d="M29.62,33.93a.12.12,0,0,1-.08,0,.08.08,0,0,1,0-.11l.81-.41a.12.12,0,0,1,.13,0,.08.08,0,0,1,0,.11l-.81.41Z" opacity="0.4"/><path d="M29.61,34.94a.09.09,0,0,1-.08,0s0-.08,0-.11l.81-.4a.09.09,0,0,1,.12,0,.07.07,0,0,1,0,.11l-.81.41Z" opacity="0.4"/><path d="M29.59,36a.07.07,0,0,1-.07,0s0-.08,0-.11l.81-.4a.08.08,0,0,1,.12,0s0,.08,0,.1l-.81.41Z" opacity="0.4"/><path d="M29.58,37a.09.09,0,0,1-.08,0,.07.07,0,0,1,0-.1l.81-.41a.1.1,0,0,1,.12,0,.07.07,0,0,1,0,.1l-.81.41Z" opacity="0.4"/><path d="M25.12,40.52a.07.07,0,0,1-.07,0,.07.07,0,0,1,0-.11l3.78-1.91a.11.11,0,0,1,.13,0,.08.08,0,0,1,0,.11l-3.78,1.91Z" opacity="0.4"/><path d="M25.25,41s-.07,0-.08,0a.07.07,0,0,1,0-.11L29,39a.1.1,0,0,1,.12,0,.08.08,0,0,1,0,.11L25.29,41Z" opacity="0.4"/><path d="M25.42,41.48a.09.09,0,0,1-.08,0,.07.07,0,0,1,0-.1l3.78-1.91a.08.08,0,0,1,.12,0s0,.08,0,.1l-3.78,1.91Z" opacity="0.4"/><path d="M31.06,37.52a.07.07,0,0,1-.07,0s0-.08,0-.11l3.78-1.91a.11.11,0,0,1,.13,0,.08.08,0,0,1,0,.11l-3.78,1.91Z" opacity="0.4"/><path d="M31.19,38s-.07,0-.08,0,0-.08,0-.11L34.93,36a.1.1,0,0,1,.12,0,.08.08,0,0,1,0,.11L31.23,38Z" opacity="0.4"/><path d="M31.36,38.49a.12.12,0,0,1-.08,0,.08.08,0,0,1,0-.11l3.78-1.91a.09.09,0,0,1,.12,0s0,.08,0,.1l-3.78,1.91Z" opacity="0.4"/><path d="M26.46,42l8.63-4.35a.71.71,0,0,1,.86.13c.19.22.11.51-.19.67l-8.63,4.35a.77.77,0,0,1-.91-.11C26,42.49,26.16,42.18,26.46,42Z" fill="#58c2b1"/><path d="M27.88,44.16a.12.12,0,0,1-.08,0,.08.08,0,0,1,0-.11l3.78-1.91a.09.09,0,0,1,.12,0s0,.08,0,.11l-3.78,1.91Z" opacity="0.4"/><path d="M27.41,43.86a.09.09,0,0,1-.08,0,.07.07,0,0,1,0-.1l3.79-1.91a.09.09,0,0,1,.12,0s0,.08,0,.1l-3.79,1.91Z" opacity="0.4"/><path d="M28.38,44.41a.09.09,0,0,1-.08,0,.07.07,0,0,1,0-.1l3.78-1.91a.08.08,0,0,1,.12,0s0,.08,0,.1L28.43,44.4Z" opacity="0.4"/><path d="M33.29,41.43a.09.09,0,0,1-.08,0,.07.07,0,0,1,0-.11L37,39.37a.11.11,0,0,1,.13,0,.08.08,0,0,1,0,.11l-3.78,1.91Z" opacity="0.4"/><path d="M32.81,41.14a.12.12,0,0,1-.08,0,.08.08,0,0,1,0-.11l3.78-1.91a.09.09,0,0,1,.12,0s0,.08,0,.11l-3.78,1.91Z" opacity="0.4"/><path d="M33.78,41.69a.12.12,0,0,1-.08,0,.08.08,0,0,1,0-.11l3.78-1.91a.11.11,0,0,1,.13,0,.08.08,0,0,1,0,.11l-3.78,1.91Z" opacity="0.4"/><path d="M33.84,44.07a3.84,3.84,0,0,0-3.11.07c-.9.45-1,1.15-.13,1.57a3.92,3.92,0,0,0,3.11-.07C34.6,45.19,34.66,44.48,33.84,44.07Zm-.56,1.35a2.73,2.73,0,0,1-2.22,0c-.59-.3-.54-.8.1-1.12a2.81,2.81,0,0,1,2.22-.05C34,44.6,33.92,45.1,33.28,45.42Z" fill="#58c2b1"/><path d="M31.58,44.56a1.66,1.66,0,0,1,1.33,0c.36.17.33.47,0,.67a1.69,1.69,0,0,1-1.34,0C31.17,45.06,31.2,44.76,31.58,44.56Z" fill="#58c2b1"/><path d="M31.58,44.56a1.66,1.66,0,0,1,1.33,0c.36.17.33.47,0,.67a1.69,1.69,0,0,1-1.34,0C31.17,45.06,31.2,44.76,31.58,44.56Z" opacity="0.5"/><path d="M33.84,44.07a3.84,3.84,0,0,0-3.11.07c-.9.45-1,1.15-.13,1.57a3.92,3.92,0,0,0,3.11-.07C34.6,45.19,34.66,44.48,33.84,44.07Zm-.56,1.35a2.73,2.73,0,0,1-2.22,0c-.59-.3-.54-.8.1-1.12a2.81,2.81,0,0,1,2.22-.05C34,44.6,33.92,45.1,33.28,45.42Z" opacity="0.15"/><path d="M31.56,43.86l.19.29a2.91,2.91,0,0,1,1.1,0l.25-.31A4.44,4.44,0,0,0,31.56,43.86Z" fill="#58c2b1"/><path d="M31.56,43.86l.19.29a2.91,2.91,0,0,1,1.1,0l.25-.31A4.44,4.44,0,0,0,31.56,43.86Z" fill="#fff" opacity="0.7"/><path d="M32.33,43.71h0a.09.09,0,0,1-.09-.08l0-.36,1.66-.84a.09.09,0,0,1,.12,0s0,.08,0,.11l-1.58.79,0,.28A.08.08,0,0,1,32.33,43.71Z" opacity="0.4"/><path d="M38.7,41.61a3.92,3.92,0,0,0-3.11.07c-.89.45-1,1.16-.13,1.57a3.84,3.84,0,0,0,3.11-.07C39.47,42.73,39.53,42,38.7,41.61ZM38.14,43a2.81,2.81,0,0,1-2.22.05c-.58-.3-.54-.8.1-1.12a2.73,2.73,0,0,1,2.22,0C38.83,42.14,38.78,42.65,38.14,43Z" fill="#58c2b1"/><path d="M36.44,42.11a1.69,1.69,0,0,1,1.34,0c.35.18.32.48-.06.67a1.63,1.63,0,0,1-1.33,0C36,42.61,36.06,42.3,36.44,42.11Z" fill="#58c2b1"/><path d="M36.44,42.11a1.69,1.69,0,0,1,1.34,0c.35.18.32.48-.06.67a1.63,1.63,0,0,1-1.33,0C36,42.61,36.06,42.3,36.44,42.11Z" opacity="0.5"/><path d="M38.7,41.61a3.92,3.92,0,0,0-3.11.07c-.89.45-1,1.16-.13,1.57a3.84,3.84,0,0,0,3.11-.07C39.47,42.73,39.53,42,38.7,41.61ZM38.14,43a2.81,2.81,0,0,1-2.22.05c-.58-.3-.54-.8.1-1.12a2.73,2.73,0,0,1,2.22,0C38.83,42.14,38.78,42.65,38.14,43Z" opacity="0.15"/><path d="M38.7,41.61A3.88,3.88,0,0,0,36,41.5l.3.27a2.73,2.73,0,0,1,1.9.08.76.76,0,0,1,.23.15l.55-.17A1.63,1.63,0,0,0,38.7,41.61Z" fill="#58c2b1"/><path d="M38.7,41.61A3.88,3.88,0,0,0,36,41.5l.3.27a2.73,2.73,0,0,1,1.9.08.76.76,0,0,1,.23.15l.55-.17A1.63,1.63,0,0,0,38.7,41.61Z" fill="#fff" opacity="0.7"/><path d="M37.21,41.25h0a.08.08,0,0,1-.08-.08l0-.36L38.81,40a.09.09,0,0,1,.12,0,.07.07,0,0,1,0,.1l-1.58.8,0,.28A.08.08,0,0,1,37.21,41.25Z" opacity="0.4"/><path d="M32.84,46.67a.08.08,0,0,1-.07,0,.07.07,0,0,1,0-.11L42,41.88a.09.09,0,0,1,.12,0,.07.07,0,0,1,0,.11l-9.19,4.64Z" opacity="0.4"/><path d="M33.34,46.92a.12.12,0,0,1-.08,0,.08.08,0,0,1,0-.11l9.19-4.64a.1.1,0,0,1,.12,0,.08.08,0,0,1,0,.11l-9.19,4.64Z" opacity="0.4"/><path d="M33.84,47.17a.1.1,0,0,1-.08,0,.07.07,0,0,1,0-.11L43,42.38a.09.09,0,0,1,.12,0,.07.07,0,0,1,0,.11l-9.19,4.64Z" opacity="0.4"/></svg>