<svg xmlns="http://www.w3.org/2000/svg" xmlns:xlink="http://www.w3.org/1999/xlink" viewBox="0 0 100 100"><defs><linearGradient id="a" x1="2.77" y1="70.77" x2="49.81" y2="70.77" gradientTransform="translate(33.29 -4.4) rotate(25.7)" gradientUnits="userSpaceOnUse"><stop offset="0" stop-color="#fff"/><stop offset="0.17" stop-color="#fcfcfc"/><stop offset="0.28" stop-color="#f3f3f4"/><stop offset="0.37" stop-color="#e4e4e5"/><stop offset="0.46" stop-color="#cfcfd0"/><stop offset="0.51" stop-color="#bfc0c1"/><stop offset="0.86" stop-color="#909295"/><stop offset="0.9" stop-color="#8b8d90"/><stop offset="0.94" stop-color="#7d7e80"/><stop offset="0.98" stop-color="#666567"/><stop offset="0.99" stop-color="#5f5e60"/><stop offset="1" stop-color="#5b595b"/></linearGradient><linearGradient id="b" x1="4.01" y1="70.23" x2="48.05" y2="70.23" gradientTransform="translate(33.04 -4.34) rotate(25.7)" xlink:href="#a"/><linearGradient id="c" x1="11.99" y1="50.86" x2="23.32" y2="50.86" gradientUnits="userSpaceOnUse"><stop offset="0" stop-color="#fff"/><stop offset="0.61" stop-color="#bfc0c1"/><stop offset="0.86" stop-color="#909295"/><stop offset="0.9" stop-color="#8b8d90"/><stop offset="0.94" stop-color="#7d7e80"/><stop offset="0.98" stop-color="#666567"/><stop offset="0.99" stop-color="#5f5e60"/><stop offset="1" stop-color="#5b595b"/></linearGradient><linearGradient id="d" x1="9.15" y1="60.13" x2="16.21" y2="60.13" xlink:href="#c"/><linearGradient id="e" x1="9.73" y1="62.2" x2="13.13" y2="62.2" xlink:href="#c"/><linearGradient id="f" x1="11.66" y1="61.44" x2="31.3" y2="61.44" gradientTransform="matrix(1, 0, 0, 1, 0, 0)" xlink:href="#a"/><linearGradient id="g" x1="12.56" y1="63.32" x2="32.2" y2="63.32" gradientTransform="matrix(1, 0, 0, 1, 0, 0)" xlink:href="#a"/><linearGradient id="h" x1="13.46" y1="65.19" x2="33.1" y2="65.19" gradientTransform="matrix(1, 0, 0, 1, 0, 0)" xlink:href="#a"/><linearGradient id="i" x1="14.37" y1="67.06" x2="34" y2="67.06" gradientTransform="matrix(1, 0, 0, 1, 0, 0)" xlink:href="#a"/><linearGradient id="j" x1="15.27" y1="68.93" x2="34.9" y2="68.93" gradientTransform="matrix(1, 0, 0, 1, 0, 0)" xlink:href="#a"/><linearGradient id="k" x1="16.17" y1="70.8" x2="35.8" y2="70.8" gradientTransform="matrix(1, 0, 0, 1, 0, 0)" xlink:href="#a"/><linearGradient id="l" x1="16.98" y1="74.86" x2="26.8" y2="74.86" gradientTransform="matrix(1, 0, 0, 1, 0, 0)" xlink:href="#a"/><linearGradient id="m" x1="26.75" y1="52.39" x2="29.9" y2="52.39" xlink:href="#c"/><linearGradient id="n" x1="19.2" y1="79.95" x2="24.3" y2="79.95" gradientTransform="matrix(1, 0, 0, 1, 0, 0)" xlink:href="#a"/><linearGradient id="o" x1="20.1" y1="81.59" x2="25.29" y2="81.59" gradientTransform="matrix(1, 0, 0, 1, 0, 0)" xlink:href="#a"/><linearGradient id="p" x1="21.39" y1="83.84" x2="23.77" y2="83.84" gradientTransform="matrix(1, 0, 0, 1, 0, 0)" xlink:href="#a"/><linearGradient id="q" x1="23.17" y1="87.17" x2="29.16" y2="87.17" gradientTransform="matrix(1, 0, 0, 1, 0, 0)" xlink:href="#a"/><linearGradient id="r" x1="83.74" y1="24.88" x2="87.12" y2="24.88" gradientUnits="userSpaceOnUse"><stop offset="0" stop-color="#ee2e51"/><stop offset="0.23" stop-color="#e1264c"/><stop offset="0.52" stop-color="#d62148"/><stop offset="0.67" stop-color="#cb1f45"/><stop offset="0.92" stop-color="#b01e3e"/><stop offset="1" stop-color="#a61d3b"/></linearGradient><linearGradient id="s" x1="77.87" y1="24.88" x2="93" y2="24.88" gradientTransform="translate(110.31 -60.55) rotate(90)" xlink:href="#r"/><linearGradient id="t" x1="44.95" y1="27.28" x2="65.18" y2="27.28" gradientUnits="userSpaceOnUse"><stop offset="0.01" stop-color="#fee2d2"/><stop offset="0.26" stop-color="#fccdb4"/><stop offset="0.49" stop-color="#fbbd9d"/><stop offset="0.75" stop-color="#d69b7d"/><stop offset="1" stop-color="#af785c"/></linearGradient><linearGradient id="u" x1="45.64" y1="68.85" x2="65.52" y2="68.85" xlink:href="#r"/><linearGradient id="v" x1="46.48" y1="93.27" x2="62.67" y2="93.27" xlink:href="#r"/><linearGradient id="w" x1="50.21" y1="41.72" x2="64.72" y2="41.72" xlink:href="#r"/><linearGradient id="x" x1="50.42" y1="39.72" x2="62.87" y2="39.72" xlink:href="#r"/><linearGradient id="y" x1="50.8" y1="41.13" x2="61.61" y2="41.13" xlink:href="#r"/><linearGradient id="z" x1="52.65" y1="38.41" x2="53.41" y2="38.41" xlink:href="#r"/><linearGradient id="aa" x1="56.18" y1="37.98" x2="56.84" y2="37.98" xlink:href="#r"/><linearGradient id="ab" x1="60.51" y1="37.44" x2="61.15" y2="37.44" xlink:href="#r"/><linearGradient id="ac" x1="30.32" y1="67.22" x2="44.95" y2="67.22" gradientUnits="userSpaceOnUse"><stop offset="0" stop-color="#fff"/><stop offset="0.45" stop-color="#bfc0c1"/><stop offset="0.76" stop-color="#909295"/><stop offset="0.82" stop-color="#8b8d90"/><stop offset="0.89" stop-color="#7d7e80"/><stop offset="0.97" stop-color="#666567"/><stop offset="0.99" stop-color="#5f5e60"/><stop offset="1" stop-color="#5b595b"/></linearGradient><linearGradient id="ad" x1="37.83" y1="69.65" x2="50.44" y2="69.65" xlink:href="#ac"/><linearGradient id="ae" x1="44.41" y1="52.77" x2="47.08" y2="52.77" xlink:href="#ac"/><linearGradient id="af" x1="39.77" y1="63.98" x2="41.32" y2="63.98" xlink:href="#ac"/><linearGradient id="ag" x1="39.77" y1="92.64" x2="43.23" y2="92.64" xlink:href="#ac"/><linearGradient id="ah" x1="56.38" y1="65.53" x2="89" y2="65.53" xlink:href="#ac"/><linearGradient id="ai" x1="60.55" y1="68.4" x2="80.26" y2="68.4" xlink:href="#ac"/><linearGradient id="aj" x1="56.3" y1="82.7" x2="80.05" y2="82.7" xlink:href="#ac"/><linearGradient id="ak" x1="72.51" y1="68.67" x2="75.23" y2="68.67" xlink:href="#ac"/><linearGradient id="al" x1="61.07" y1="52.04" x2="67.66" y2="52.04" xlink:href="#ac"/><linearGradient id="am" x1="65.49" y1="62.13" x2="66.9" y2="62.13" xlink:href="#ac"/><linearGradient id="an" x1="66.12" y1="63.22" x2="70.2" y2="63.22" xlink:href="#ac"/><linearGradient id="ao" x1="71.71" y1="49.25" x2="77.73" y2="49.25" xlink:href="#ac"/><linearGradient id="ap" x1="20.38" y1="84.51" x2="24.43" y2="84.51" xlink:href="#t"/><linearGradient id="aq" x1="21.09" y1="85.77" x2="37.83" y2="85.77" xlink:href="#t"/><linearGradient id="ar" x1="26.41" y1="86.71" x2="29.51" y2="86.71" xlink:href="#t"/><linearGradient id="as" x1="29.2" y1="87.25" x2="31.74" y2="87.25" xlink:href="#t"/><linearGradient id="at" x1="31.19" y1="88.47" x2="33.01" y2="88.47" xlink:href="#t"/><linearGradient id="au" x1="32.75" y1="88.09" x2="34.62" y2="88.09" xlink:href="#t"/><linearGradient id="av" x1="21.58" y1="84.67" x2="23.97" y2="84.67" xlink:href="#t"/><linearGradient id="aw" x1="38.03" y1="81.42" x2="57.34" y2="81.42" xlink:href="#t"/></defs><title>medschool</title><g opacity="0.9"><rect x="10.04" y="48.44" width="32.5" height="44.65" rx="2.41" transform="translate(-28.09 18.4) rotate(-25.7)" fill="url(#a)"/></g><g opacity="0.9"><rect x="11.6" y="49.45" width="28.87" height="41.56" transform="translate(-27.88 18.24) rotate(-25.7)" fill="url(#b)"/></g><g opacity="0.9"><path d="M22.58,49.53a3.54,3.54,0,0,0-3.7-.39l-.79-1.58a2.44,2.44,0,0,0-3.25-1.14h0a2.43,2.43,0,0,0-1.13,3.25l.8,1.66-.56.28A3.53,3.53,0,0,0,12,54.72v.83l11.33-5.46Zm-6,.26A1.31,1.31,0,1,1,17.15,48,1.31,1.31,0,0,1,16.54,49.79Z" fill="url(#c)"/></g><path d="M16.21,58.43a38.23,38.23,0,0,1-3.49,1.78c-2,.94-3.54,1.66-3.57,1.62a38.23,38.23,0,0,1,3.49-1.78C14.59,59.11,16.19,58.39,16.21,58.43Z" fill="url(#d)"/><path d="M13.13,61.38a9.35,9.35,0,0,1-1.66.9A9.9,9.9,0,0,1,9.73,63a8.92,8.92,0,0,1,1.66-.9A9.56,9.56,0,0,1,13.13,61.38Z" fill="url(#e)"/><g opacity="0.9"><path d="M31.3,56.72c0,.05-4.36,2.2-9.78,4.81s-9.83,4.69-9.86,4.64S16,64,21.44,61.36,31.27,56.67,31.3,56.72Z" fill="url(#f)"/></g><g opacity="0.9"><path d="M32.2,58.59s-4.36,2.2-9.78,4.81S12.59,68.09,12.56,68s4.36-2.2,9.78-4.81S32.17,58.54,32.2,58.59Z" fill="url(#g)"/></g><g opacity="0.9"><path d="M33.1,60.46s-4.36,2.2-9.78,4.81S13.49,70,13.47,69.91s4.35-2.2,9.77-4.81S33.08,60.42,33.1,60.46Z" fill="url(#h)"/></g><g opacity="0.9"><path d="M34,62.34s-4.36,2.2-9.78,4.8-9.83,4.69-9.85,4.65,4.35-2.2,9.77-4.81S34,62.29,34,62.34Z" fill="url(#i)"/></g><g opacity="0.9"><path d="M34.9,64.21s-4.35,2.2-9.78,4.81-9.83,4.68-9.85,4.64,4.35-2.2,9.77-4.81S34.88,64.16,34.9,64.21Z" fill="url(#j)"/></g><g opacity="0.9"><path d="M35.8,66.08s-4.35,2.2-9.77,4.81-9.84,4.69-9.86,4.64,4.35-2.2,9.78-4.81S35.78,66,35.8,66.08Z" fill="url(#k)"/></g><g opacity="0.9"><path d="M26.8,72.49a2.48,2.48,0,0,1-.37.22l-1,.53c-.88.45-2.1,1.05-3.46,1.7l-3.48,1.65-1.07.48a2.56,2.56,0,0,1-.4.15,2.48,2.48,0,0,1,.37-.22l1-.53c.88-.45,2.1-1,3.46-1.7s2.59-1.23,3.48-1.64l1.07-.48A2.18,2.18,0,0,1,26.8,72.49Z" fill="url(#l)"/></g><g opacity="0.9"><path d="M29.9,51.64a9.22,9.22,0,0,1-1.54.84,8.3,8.3,0,0,1-1.61.67,8.14,8.14,0,0,1,1.53-.84A7.56,7.56,0,0,1,29.9,51.64Z" fill="url(#m)"/></g><g opacity="0.9"><path d="M24.3,78.72A21.52,21.52,0,0,1,21.79,80a23.64,23.64,0,0,1-2.59,1.15,20.63,20.63,0,0,1,2.51-1.32A22.36,22.36,0,0,1,24.3,78.72Z" fill="url(#n)"/></g><g opacity="0.9"><path d="M25.29,80.34a24.28,24.28,0,0,1-2.55,1.33,20.87,20.87,0,0,1-2.64,1.16,24.28,24.28,0,0,1,2.55-1.33A21.61,21.61,0,0,1,25.29,80.34Z" fill="url(#o)"/></g><g opacity="0.9"><path d="M39,71.35a5.45,5.45,0,0,1-1.2.67,4.88,4.88,0,0,1-1.27.51,5.22,5.22,0,0,1,1.19-.67A4.73,4.73,0,0,1,39,71.35Z" fill="#e0e0e0"/></g><g opacity="0.9"><path d="M39.79,72.84a5.17,5.17,0,0,1-1.2.67,4.88,4.88,0,0,1-1.27.51,5.22,5.22,0,0,1,1.19-.67A4.73,4.73,0,0,1,39.79,72.84Z" fill="#e0e0e0"/></g><g opacity="0.9"><path d="M23.77,83.27a5,5,0,0,1-1.15.66,4.72,4.72,0,0,1-1.23.48,4.63,4.63,0,0,1,1.15-.65A4.31,4.31,0,0,1,23.77,83.27Z" fill="url(#p)"/></g><g opacity="0.9"><path d="M40.73,74.58a2.57,2.57,0,0,1-.85.51,2.62,2.62,0,0,1-.93.35s.35-.28.85-.51A2.62,2.62,0,0,1,40.73,74.58Z" fill="#e0e0e0"/></g><g opacity="0.9"><path d="M23.17,88.52l.1-.08.3-.2,1.16-.74,4.16-2.61.08,0,0,.09a2.37,2.37,0,0,1,.05,1.58,1.93,1.93,0,0,1-2.92,1,1.68,1.68,0,0,1-.59-1.75,1.51,1.51,0,0,1,.34-.65A.81.81,0,0,1,26,85a.74.74,0,0,1,.16-.12.28.28,0,0,1,.25,0,.44.44,0,0,1,.14.17,3.1,3.1,0,0,1,.36,1.32,3,3,0,0,1-.2,1.31,2,2,0,0,1-.77,1,1.15,1.15,0,0,1-1.21,0,1.76,1.76,0,0,1-.72-.9,4.29,4.29,0,0,1,0-2l0-.14.09.1a2.81,2.81,0,0,1,.68,1.55,3,3,0,0,1-.12,1.27,2.64,2.64,0,0,1-.36.72l-.13.16-.05.05a3.5,3.5,0,0,0,.47-1,3,3,0,0,0,.09-1.23,2.78,2.78,0,0,0-.68-1.47l.11,0a4,4,0,0,0,0,2,1.61,1.61,0,0,0,.65.81,1,1,0,0,0,1,0,1.85,1.85,0,0,0,.69-.94,3,3,0,0,0-.15-2.48.29.29,0,0,0-.08-.1s0,0-.08,0a.77.77,0,0,0-.23.19,1.36,1.36,0,0,0-.3.57,1.5,1.5,0,0,0,.52,1.55,1.72,1.72,0,0,0,1.6.18,1.78,1.78,0,0,0,1.05-1.13,2.21,2.21,0,0,0,0-1.46L29,85l-4.19,2.55-1.18.71-.32.18Z" fill="url(#q)"/></g><g opacity="0.9"><path d="M41.77,79.49a2.75,2.75,0,0,1-.06.34,1.49,1.49,0,0,1-.17.38.74.74,0,0,1-.45.34.57.57,0,0,1-.34,0,.76.76,0,0,1-.3-.23,6.56,6.56,0,0,1-.4-.69L39.16,78l.16,0-.09,2.66,0,.66v.37L39,81.32c-.48-1-.94-1.95-1.34-2.77h.15a9.38,9.38,0,0,0-.34,2.5c0,.61,0,.95,0,1a.79.79,0,0,1,0-.25,6.72,6.72,0,0,1-.07-.71,9.22,9.22,0,0,1,.28-2.54l.06-.21.09.19,1.37,2.75-.17,0,0-.66c0-.94.07-1.83.11-2.66v-.32l.15.29.87,1.63a7,7,0,0,0,.37.68.49.49,0,0,0,.52.22.9.9,0,0,0,.58-.64C41.72,79.6,41.75,79.49,41.77,79.49Z" fill="#e0e0e0"/></g><g opacity="0.9"><path d="M41.73,78.15s-1.45,1.1-3.3,2.36-3.38,2.24-3.41,2.2,1.45-1.1,3.3-2.36S41.7,78.11,41.73,78.15Z" fill="#e0e0e0"/></g><g opacity="0.9"><path d="M43.54,78.46a27.23,27.23,0,0,1-2.42,2.21,28.55,28.55,0,0,1-2.54,2.06A28.06,28.06,0,0,1,41,80.53,29.92,29.92,0,0,1,43.54,78.46Z" fill="#e0e0e0"/></g><rect x="83.74" y="17.32" width="3.38" height="15.13" fill="url(#r)"/><rect x="83.74" y="17.32" width="3.38" height="15.13" transform="translate(60.55 110.31) rotate(-90)" fill="url(#s)"/><path d="M98,24.92a.58.58,0,0,1,0-.21l0-.59,0-.44c0-.17-.05-.34-.08-.53a8.64,8.64,0,0,0-.27-1.3,11.8,11.8,0,0,0-1.4-3.33A12.59,12.59,0,0,0,93,15a12.48,12.48,0,0,0-11.83-1.78,13,13,0,0,0-1.63.72,13.19,13.19,0,0,0-1.53,1,14.44,14.44,0,0,0-1.41,1.2,15.68,15.68,0,0,0-1.23,1.45A12.08,12.08,0,0,0,73.55,21a13.27,13.27,0,0,0-.64,3.94,13.25,13.25,0,0,0,.64,3.93,12,12,0,0,0,1.78,3.44,14.46,14.46,0,0,0,1.23,1.45,13.18,13.18,0,0,0,2.94,2.19,13,13,0,0,0,1.63.72,12.53,12.53,0,0,0,15-5.33A11.85,11.85,0,0,0,97.55,28a8.3,8.3,0,0,0,.27-1.29c0-.19.06-.37.08-.53l0-.44,0-.6a.55.55,0,0,1,0-.2v.2l0,.6v.45c0,.16,0,.34-.07.53A10.19,10.19,0,0,1,97.65,28a12.15,12.15,0,0,1-1.37,3.39,12.69,12.69,0,0,1-8.55,6,12.76,12.76,0,0,1-6.68-.53,13.5,13.5,0,0,1-1.66-.73,13,13,0,0,1-1.57-1,13.89,13.89,0,0,1-1.45-1.23,13.65,13.65,0,0,1-1.25-1.47,12.2,12.2,0,0,1-1.82-3.51,13.54,13.54,0,0,1-.66-4,13.43,13.43,0,0,1,.66-4,12.2,12.2,0,0,1,1.82-3.51,16.38,16.38,0,0,1,1.26-1.48,12.73,12.73,0,0,1,1.44-1.22,11.88,11.88,0,0,1,1.57-1A12.14,12.14,0,0,1,81.05,13a12.77,12.77,0,0,1,6.68-.54,12.74,12.74,0,0,1,8.55,6,12,12,0,0,1,1.37,3.39,9.88,9.88,0,0,1,.25,1.31c0,.19,0,.37.07.53v.44l0,.6Z" fill="#e7515b"/><path d="M68.38,10.44c0-1.31-1.17-2.32-2.38-2.79a18,18,0,0,1-3.65-1.39,17.22,17.22,0,0,1-2.42-2.48A8,8,0,0,0,46.41,7.47a5.29,5.29,0,0,0,1.32,5.29c1.7,1.44,4.22,1.12,6.4.67s4.65-.88,6.47.4A9.3,9.3,0,0,1,63,17a5.75,5.75,0,0,0,2.79,2.78c1.26.44,3-.32,3-1.66" fill="#263238"/><path d="M68.29,11.16A3.65,3.65,0,0,0,69.73,14a5,5,0,0,1,1.82,2.69c.16,1.28-.77,2.54-.5,3.8a9.14,9.14,0,0,0,1.17,2.14A4.51,4.51,0,0,1,72.45,26c-.32,1.11-.84,3.57-1.61,4.42a17.72,17.72,0,0,1-8.58,5.13,33.53,33.53,0,0,1-9.49.52c-2.59-.16-5.58,0-7.74-3.62a26.78,26.78,0,0,1-2.27-6.38,9.89,9.89,0,0,1-.43-5.5c.31-1,.94-2,1.25-3a23.54,23.54,0,0,0,.39-4A9.27,9.27,0,0,1,57.15,6.2" fill="#263238"/><path d="M45.22,15.64c.24-3.72,2.72-8.29,6.43-7.89l11.58,3a2.17,2.17,0,0,1,2,2.22l-1.3,28,.08,0s-2.64,7.88-10.3,5.47c-1.52-.48-2.21-2.14-2.51-3.85h-.08c0-.2,0-.39,0-.58A18.69,18.69,0,0,1,51,38.11h0c0-2.26,0-3.18,0-3.16s-4.75-.8-5.73-7A66.7,66.7,0,0,1,45.22,15.64Z" fill="url(#t)"/><path d="M47.08,19.38a.8.8,0,0,0,.77.81.77.77,0,0,0,.82-.72.79.79,0,0,0-.76-.8A.76.76,0,0,0,47.08,19.38Z" fill="#263238"/><path d="M46.31,18.28c.1.1.7-.34,1.56-.34s1.48.44,1.58.33-.06-.23-.33-.43a2.17,2.17,0,0,0-2.51,0C46.35,18,46.26,18.23,46.31,18.28Z" fill="#263238"/><path d="M55.51,19.38a.79.79,0,0,0,.76.81.78.78,0,0,0,.83-.72.8.8,0,0,0-.77-.8A.75.75,0,0,0,55.51,19.38Z" fill="#263238"/><path d="M54.73,18.46c.1.1.71-.34,1.56-.34s1.49.43,1.58.33,0-.23-.33-.43a2.19,2.19,0,0,0-1.26-.4A2.1,2.1,0,0,0,55,18C54.77,18.22,54.68,18.41,54.73,18.46Z" fill="#263238"/><path d="M51.61,24.81a5.36,5.36,0,0,0-1.39-.26c-.22,0-.43-.07-.47-.21a1.18,1.18,0,0,1,.15-.65c.21-.53.43-1.09.65-1.67A29.42,29.42,0,0,0,52,17.67a27.19,27.19,0,0,0-1.81,4.22l-.63,1.68a1.3,1.3,0,0,0-.11.86.57.57,0,0,0,.36.32,1.8,1.8,0,0,0,.37.05A6.27,6.27,0,0,0,51.61,24.81Z" fill="#263238"/><path d="M51,35a15.81,15.81,0,0,0,8.33-2.2S57.22,37,51,36.45Z" fill="#ec996f"/><path d="M52,26.87a1.55,1.55,0,0,1,1.38-.57,1.38,1.38,0,0,1,1,.53.88.88,0,0,1,.07,1,1,1,0,0,1-1.12.28,3.36,3.36,0,0,1-1.1-.66,1,1,0,0,1-.24-.25.29.29,0,0,1,0-.32" fill="#ec996f"/><path d="M54.13,25.4c-.14,0-.14.93-.94,1.59s-1.79.55-1.8.68.22.18.64.19a2.26,2.26,0,0,0,1.5-.52A2,2,0,0,0,54.26,26C54.3,25.63,54.19,25.4,54.13,25.4Z" fill="#263238"/><path d="M54.35,17c.08.23.94.12,1.95.24s1.81.4,2,.19-.08-.32-.41-.54a3.24,3.24,0,0,0-1.45-.51,3.34,3.34,0,0,0-1.52.17C54.5,16.66,54.31,16.84,54.35,17Z" fill="#263238"/><path d="M46.63,15.8c.15.19.74,0,1.45,0s1.31.14,1.45-.06,0-.3-.3-.48a2,2,0,0,0-1.17-.33,2,2,0,0,0-1.16.39C46.65,15.5,46.56,15.7,46.63,15.8Z" fill="#263238"/><path d="M67.57,31.14A5.52,5.52,0,0,1,61,25c.19-1.52,1-3.08.49-4.52-.7-1.91-3.38-2.5-4.09-4.4-.41-1.11,0-2.4-.51-3.49a4.1,4.1,0,0,0-2.56-2,10.87,10.87,0,0,1-3-1.32,2.42,2.42,0,0,1-.86-2.93A59.33,59.33,0,0,1,64,9.7a5.24,5.24,0,0,1,2.67,1.73,5.41,5.41,0,0,1,.55,3.33l-.78,16.73" fill="#263238"/><path d="M67.18,33.27s0,0,.1-.06l.28-.21c.24-.19.59-.47,1-.85a11.69,11.69,0,0,0,1.46-1.54,5.72,5.72,0,0,0,1.16-2.56,3.89,3.89,0,0,0-.8-3.26A12.31,12.31,0,0,0,69,23.55,3.38,3.38,0,0,1,67.83,22c-.46-1.26-.25-2.73-.43-4.23a8.47,8.47,0,0,0-1.76-4.28A5.9,5.9,0,0,0,63.8,12a11,11,0,0,0-2.18-.73,5.21,5.21,0,0,1-1.9-.94A7.44,7.44,0,0,1,58.33,8.8c-.78-1.11-1.35-2.29-2.1-3.27A6.9,6.9,0,0,0,55,4.23a4.59,4.59,0,0,0-1.45-.79,3.08,3.08,0,0,0-2.76.27,2.56,2.56,0,0,0-1,1.86,1.84,1.84,0,0,0,.37,1.28,1.06,1.06,0,0,0,.26.24l.1.07s0,0-.09-.09a1.52,1.52,0,0,1-.22-.25,1.81,1.81,0,0,1-.31-1.24,2.41,2.41,0,0,1,1-1.74,2.92,2.92,0,0,1,2.61-.22,4.52,4.52,0,0,1,1.38.77,7.14,7.14,0,0,1,1.17,1.27c.72,1,1.29,2.15,2.08,3.28a7.34,7.34,0,0,0,1.42,1.59,5.44,5.44,0,0,0,2,1,11.76,11.76,0,0,1,2.12.72,5.66,5.66,0,0,1,1.76,1.44,8.15,8.15,0,0,1,1.7,4.14c.19,1.45,0,2.93.47,4.28a3.64,3.64,0,0,0,1.21,1.64,12.41,12.41,0,0,1,1.43,1.2A3.67,3.67,0,0,1,71,28a5.57,5.57,0,0,1-1.09,2.5,11.82,11.82,0,0,1-1.41,1.55l-1,.89Z" fill="#455b64"/><path d="M68.32,34.05c1.27-1.24,3.45-.17,4.52,1.25s1.84,3.24,3.46,4,3.74.1,5.11,1.24c1.88,1.56.82,5.18,2.86,6.54.81.54,1.87.52,2.74,1,2,1,2,3.92,1.69,6.19-.44,3.18-.92,6.48-2.68,9.17s-5.17,4.58-8.21,3.54-4.43-4.15-5.61-7L67.26,48.08A27.65,27.65,0,0,1,65,41a9.3,9.3,0,0,1,1.67-7" fill="#263238"/><path d="M69.13,31.33c.93-.12,1.64,1,1.4,1.92a3,3,0,0,1-2,1.82,3,3,0,0,1-1.54.17,1.51,1.51,0,0,1-1.16-.93.89.89,0,0,1,.43-1.17c.61-.38,1-.68,1.44-1,.74-.4.7-.46,1.43-.86" fill="#e7515b"/><polygon points="47.79 41.32 51.39 38.59 64.97 37.72 65.52 39.54 61.1 67.1 64.58 99.98 45.64 99.98 47.79 41.32" fill="url(#u)"/><g opacity="0.3"><path d="M62.33,88.31a3.18,3.18,0,0,0-1.78-1.11c-4.54-.1-9.17-.55-13.7-.65L46.48,100a16.86,16.86,0,0,0,2.4-6.08c.13-1,.29-2.09,1.16-2.5a2.57,2.57,0,0,1,1.6,0,39.07,39.07,0,0,0,4.93.85,8,8,0,0,0,4.81-1,3,3,0,0,0,1.15-1.24A1.55,1.55,0,0,0,62.33,88.31Z" fill="url(#v)"/></g><path d="M50.73,41.88l-.42-3.94a1.24,1.24,0,0,1,1.13-1.38l12.49-1.13a.6.6,0,0,1,.65.57l.14,4.69L61.1,46.83,57.38,48H52.83l-2.62-2.79Z" fill="url(#w)"/><path d="M62.87,39.18a2.32,2.32,0,0,1-.5,0,9.48,9.48,0,0,0-1.36,0,13.19,13.19,0,0,0-2,.29c-.75.15-1.56.37-2.42.58a15.8,15.8,0,0,1-2.46.44,6.26,6.26,0,0,1-2-.14,4.09,4.09,0,0,1-1.27-.53,2,2,0,0,1-.31-.22q-.09-.08-.09-.09s.15.1.43.26a4.77,4.77,0,0,0,1.27.48,6.7,6.7,0,0,0,2,.1,17.16,17.16,0,0,0,2.44-.45c.85-.21,1.67-.42,2.42-.57A11.75,11.75,0,0,1,61,39a7.41,7.41,0,0,1,1.37.07l.37.07Z" fill="url(#x)"/><g opacity="0.3"><path d="M51,39.8a2.72,2.72,0,0,0,.34,2.77,2.43,2.43,0,0,0,2.22.56,7.13,7.13,0,0,0,2.18-1,18.81,18.81,0,0,1,5.42-2.51.73.73,0,0,0,.35-.15.23.23,0,0,0,0-.34.38.38,0,0,0-.16,0,16.4,16.4,0,0,0-5.14.7,9.27,9.27,0,0,1-5.14.06" fill="url(#y)"/></g><path d="M53.41,36.43a1.11,1.11,0,0,0-.43.41,3.06,3.06,0,0,0-.17,1.44c0,1.16.23,2.1.18,2.1a2.09,2.09,0,0,1-.17-.6,9.18,9.18,0,0,1-.16-1.5,7.57,7.57,0,0,1,0-.83,1.48,1.48,0,0,1,.22-.67.8.8,0,0,1,.35-.31C53.35,36.42,53.41,36.42,53.41,36.43Z" fill="url(#z)"/><path d="M56.71,39.86A16.6,16.6,0,0,0,56.62,38c-.14-1.05-.49-1.84-.44-1.86a1.54,1.54,0,0,1,.26.51,7.06,7.06,0,0,1,.34,1.33,6.56,6.56,0,0,1,0,1.37A1.51,1.51,0,0,1,56.71,39.86Z" fill="url(#aa)"/><path d="M60.74,35.76a1.3,1.3,0,0,1,.24.47,3.42,3.42,0,0,1,.16,1.25,3.07,3.07,0,0,1-.33,1.21c-.15.29-.28.44-.3.43A4.84,4.84,0,0,0,61,37.47,5.17,5.17,0,0,0,60.74,35.76Z" fill="url(#ab)"/><path d="M43.21,43.09a14.15,14.15,0,0,0-5.38,8c-.88,4-3.29,25.45-3.29,25.45l-4.22,8.22,2.76,6.56h0a10.06,10.06,0,0,0,6.62-1.9l1.85-1.34L45,83Z" fill="url(#ac)"/><polygon points="50.44 39.31 43.21 43.09 41.51 48.7 39.99 64.93 42.85 83.97 37.83 99.92 46.48 99.98 46.69 90.63 47.55 60.37 48.4 41.09 50.44 39.31" fill="url(#ad)"/><path d="M46.94,64.54a1.33,1.33,0,0,1-.14-.22l-.35-.67c-.15-.29-.3-.66-.49-1.09-.09-.21-.16-.45-.25-.7s-.18-.51-.25-.79a30.15,30.15,0,0,1-1-9.06c0-.27,0-.55,0-.82v0l0,0,1.26-.53,0,.13-1.26-1,0,0v0A11,11,0,0,1,45,46c.32-1,.67-2,1-2.71s.57-1.34.76-1.73l.22-.46.09-.15s0,.06-.06.17l-.2.46c-.18.4-.43,1-.72,1.74s-.63,1.67-.94,2.72a11,11,0,0,0-.55,3.56l0,0,1.27,1,.1.08-.12,0-1.26.54,0-.07c0,.27,0,.54,0,.82a30.79,30.79,0,0,0,1,9,8.14,8.14,0,0,0,.25.79c.08.25.15.49.23.7.18.43.32.8.46,1.1l.33.67C46.91,64.46,46.94,64.54,46.94,64.54Z" fill="url(#ae)"/><path d="M41.27,75.91s0-.08-.07-.23L41,75c-.07-.3-.16-.66-.24-1.09s-.2-.9-.28-1.44-.2-1.13-.28-1.77-.16-1.31-.24-2c-.13-1.44-.22-3-.22-4.69s.1-3.25.24-4.69c.08-.71.15-1.4.25-2s.18-1.23.28-1.76.2-1,.28-1.45.18-.78.25-1.08l.17-.68a1.29,1.29,0,0,1,.08-.24s0,.09,0,.25l-.15.68c-.07.3-.14.66-.22,1.09s-.18.91-.26,1.45-.19,1.12-.27,1.76-.15,1.31-.23,2c-.12,1.43-.21,3-.22,4.67s.08,3.24.2,4.68c.08.71.14,1.39.23,2s.17,1.22.26,1.76.18,1,.25,1.44.15.8.22,1.09l.14.69A1.12,1.12,0,0,1,41.27,75.91Z" fill="url(#af)"/><path d="M43.22,90.53a3,3,0,0,1-.35.73,11.56,11.56,0,0,1-2.46,3,3.36,3.36,0,0,1-.64.49,4.8,4.8,0,0,1,.57-.57,18.34,18.34,0,0,0,1.31-1.42,18,18,0,0,0,1.13-1.56A6.21,6.21,0,0,1,43.22,90.53Z" fill="url(#ag)"/><path d="M76.42,42.63a9.92,9.92,0,0,1,6.11,7.07C84.89,60.12,88.93,74,89,78.45c.08,5.69-2.41,9.59-5.66,10.31-2.57.56-25.87-.71-25.87-.71l-1.09-8.68,18.87-2.78L72.66,62.16l2.56-20Z" stroke="#000" stroke-miterlimit="10" stroke-width="0.1" fill="url(#ah)"/><path d="M75.22,42.16,70,40l-5.49-3.22,0,.94h0a5.57,5.57,0,0,1,.66,3.83L60.55,65.45l1,17.44L63.72,100H80.26l-7.6-17.87L75.35,58Z" fill="url(#ai)"/><path d="M80.05,88.9l-.11,0-.33,0c-.3,0-.73,0-1.29,0-1.12,0-2.75,0-4.78-.09-4.06-.13-9.7-.4-16.07-.77H57.4v-.06c-.13-1-.26-2.13-.4-3.23-.24-1.88-.46-3.7-.68-5.45V79.3h.07L70.78,77.2,75,76.6l1.13-.16.3,0h.1l-.1,0-.29,0L75,76.65l-4.22.65-14.4,2.14.07-.08q.33,2.63.68,5.45L57.55,88,57.48,88c6.37.38,12,.67,16.06.83,2,.08,3.66.13,4.78.14.56,0,1,0,1.29,0l.33,0Z" fill="url(#aj)"/><path d="M72.51,60.7s0,0,0,.16l.09.46c.08.43.19,1,.32,1.71.25,1.46.6,3.44,1,5.63s.69,4.18.94,5.64c.11.71.2,1.29.27,1.72l.06.46c0,.11,0,.17,0,.17a1.47,1.47,0,0,1,0-.16L75.09,76l-.32-1.71c-.26-1.44-.61-3.43-1-5.63s-.7-4.2-.93-5.65c-.11-.7-.2-1.28-.27-1.71l-.06-.47C72.51,60.75,72.51,60.7,72.51,60.7Z" fill="url(#ak)"/><path d="M66.9,38.49s0,0,0,.06l0,.17c0,.16.11.39.17.68a20.76,20.76,0,0,1,.4,2.57,30,30,0,0,1,.1,3.92c0,1.49-.21,3.14-.44,4.89v0h-.06l-1.7.32.06-.11c.09.27.19.55.27.84a10.65,10.65,0,0,1-.19,5.79,18.24,18.24,0,0,1-2,4.31c-.71,1.16-1.35,2-1.79,2.66l-.52.7-.14.18,0,.06a.28.28,0,0,1,0-.07l.12-.19.5-.72c.42-.62,1.05-1.52,1.75-2.68a18.18,18.18,0,0,0,2-4.3,10.52,10.52,0,0,0,.18-5.7c-.08-.29-.17-.56-.27-.82l0-.09h.09l1.7-.32-.06.07c.23-1.75.39-3.39.45-4.87A30.57,30.57,0,0,0,67.44,42a25.19,25.19,0,0,0-.35-2.57c-.06-.29-.11-.52-.14-.68l0-.18A.28.28,0,0,1,66.9,38.49Z" fill="url(#al)"/><path d="M66.9,63V59.17s0-.94-.74-.74-.64,1.68-.64,1.68-.15,5.79.2,5.74.48-.5.48-.5V63.13Z" fill="url(#am)"/><path d="M70.2,63.22a14.75,14.75,0,0,1-2,.07,14.63,14.63,0,0,1-2-.07,12.24,12.24,0,0,1,2-.08A12.34,12.34,0,0,1,70.2,63.22Z" fill="url(#an)"/><path d="M77.73,44.89a3.29,3.29,0,0,1-.42.16,9.4,9.4,0,0,0-1.14.49,8.92,8.92,0,0,0-3.06,2.6,7.81,7.81,0,0,0-.6,1,6.13,6.13,0,0,0-.36,1,10.8,10.8,0,0,0-.31,1.8c0,.52,0,1,0,1.24a3.16,3.16,0,0,1,0,.45,1.66,1.66,0,0,1,0-.45,10.06,10.06,0,0,1,0-1.24A9.73,9.73,0,0,1,72,50.1a6.43,6.43,0,0,1,.36-1,7.22,7.22,0,0,1,.62-1,8.5,8.5,0,0,1,3.13-2.61A7.53,7.53,0,0,1,77.29,45,2,2,0,0,1,77.73,44.89Z" fill="url(#ao)"/><polygon points="10.58 76.55 37.83 86.65 60.81 90.16 33.49 76.84 10.58 76.55" fill="#263238"/><path d="M22.24,87.44a11.52,11.52,0,0,0-1.45-4.13,3.28,3.28,0,0,1-.37-.78.89.89,0,0,1,.15-.81c.35-.38,1-.21,1.42.08a5,5,0,0,1,1.84,2.56,15.34,15.34,0,0,1,.6,3.16" fill="url(#ap)"/><path d="M32.86,84.84H31.51a2.63,2.63,0,0,0-1.19-.68,1,1,0,0,0-.9.35c.61-1,1.26-2.1,1.39-2.4.24-.58-.29-1-1.17-1s-4.73,5.46-4.73,5.46,2.39-4.39,2.62-5.07c.58-1.67-1.25-1.8-1.92-1-.82,1-4.17,6.06-4.17,6.06a2.35,2.35,0,0,0-.19,2c.44,1,1.7.59,1.7.59a1.65,1.65,0,0,0,.9,1.35,2.77,2.77,0,0,0,2.27-.09l5,1.13,1.81-.18a5.54,5.54,0,0,0,4.92-4.7h0Z" fill="url(#aq)"/><path d="M29.5,84.43A15.28,15.28,0,0,1,28,86.76c-.43.63-.83,1.19-1.13,1.59a4.78,4.78,0,0,1-.5.63,4.22,4.22,0,0,1,.41-.69c.27-.42.66-1,1.09-1.62s.82-1.19,1.11-1.59l.35-.48Z" fill="url(#ar)"/><path d="M29.21,90a4.27,4.27,0,0,1,.44-.81c.29-.49.71-1.16,1.17-1.9.23-.37.46-.73.64-1a1.25,1.25,0,0,0,.11-.93,2.39,2.39,0,0,0-.43-.79s.08,0,.19.16a1.63,1.63,0,0,1,.34.6,1.28,1.28,0,0,1-.09,1c-.18.34-.39.7-.62,1.07-.47.74-.9,1.4-1.22,1.88S29.22,90,29.21,90Z" fill="url(#as)"/><path d="M31.83,90.49a2.94,2.94,0,0,1,.26-.78l.36-.81a6.26,6.26,0,0,0,.37-1,1.22,1.22,0,0,0-.16-1,.9.9,0,0,0-.36-.25,1.18,1.18,0,0,0-.37-.11,1.61,1.61,0,0,0-.54.19.59.59,0,0,1-.2.08s0,0,.17-.13l.23-.14a.91.91,0,0,1,.34-.11,1.07,1.07,0,0,1,.42.1,1,1,0,0,1,.42.28,1.31,1.31,0,0,1,.2,1.1,6.15,6.15,0,0,1-.39,1c-.14.3-.28.57-.39.8A7.22,7.22,0,0,1,31.83,90.49Z" fill="url(#at)"/><path d="M32.75,85.77s.08,0,.21.07a2.53,2.53,0,0,1,.52.3,2.87,2.87,0,0,1,1.07,1.66,3,3,0,0,1-.26,2,2.63,2.63,0,0,1-.35.5c-.09.1-.15.15-.16.14a6.25,6.25,0,0,0,.41-.69,2.9,2.9,0,0,0-.78-3.48C33,85.91,32.73,85.8,32.75,85.77Z" fill="url(#au)"/><path d="M24,82.91a15.77,15.77,0,0,1-1.13,1.8,13,13,0,0,1-1.26,1.72,15.77,15.77,0,0,1,1.13-1.8A13,13,0,0,1,24,82.91Z" fill="url(#av)"/><path d="M56.3,79.7,53.18,79l-3-2.82a2.06,2.06,0,0,0-1.33-.57l-5.45-.32a2.13,2.13,0,0,0-1.49.5L38,79.07l17,8.28,2.33.2Z" fill="url(#aw)"/><path d="M47.07,78.24a9.65,9.65,0,0,1-1-.13,4.52,4.52,0,0,0-2.47.26,6.66,6.66,0,0,0-1.17.73c-.35.26-.65.5-.93.68a3.69,3.69,0,0,1-.67.39.83.83,0,0,1-.27.1s.36-.19.88-.58c.26-.19.56-.44.9-.7a5.89,5.89,0,0,1,1.2-.77,3.57,3.57,0,0,1,1.39-.31A6.59,6.59,0,0,1,46,78a6.86,6.86,0,0,1,.76.16A1.08,1.08,0,0,1,47.07,78.24Z" fill="#ec996f"/><path d="M48.19,81.27s-.23-.07-.59-.11a3.11,3.11,0,0,0-1.4.2,6.84,6.84,0,0,0-1.28.65,2.51,2.51,0,0,1-.53.3s.16-.17.46-.39a5.6,5.6,0,0,1,1.29-.71,2.94,2.94,0,0,1,1.47-.16A1.31,1.31,0,0,1,48.19,81.27Z" fill="#ec996f"/><path d="M55.19,81.78s-.47-.63-1-1.41a14.24,14.24,0,0,1-1-1.41,7.47,7.47,0,0,1,1.16,1.32A6.18,6.18,0,0,1,55.19,81.78Z" fill="#ec996f"/><path d="M46.62,75.6l6.9-6.43a.65.65,0,0,0-.05-1h0a.66.66,0,0,0-.84,0l-8.09,7.26" fill="#e7515b"/><g opacity="0.3"><path d="M46.62,75.6l6.9-6.43a.65.65,0,0,0-.05-1h0a.66.66,0,0,0-.84,0l-8.09,7.26"/></g></svg>