<svg xmlns="http://www.w3.org/2000/svg" xmlns:xlink="http://www.w3.org/1999/xlink" viewBox="0 0 100 100"><defs><linearGradient id="a" x1="5.11" y1="83.78" x2="65.55" y2="83.78" gradientUnits="userSpaceOnUse"><stop offset="0.01" stop-color="#f1f0f0"/><stop offset="0.77" stop-color="#a3a3a3"/><stop offset="0.82" stop-color="#9e9e9e"/><stop offset="0.89" stop-color="#919191"/><stop offset="0.95" stop-color="#7a7a7a"/><stop offset="1" stop-color="#636464"/></linearGradient><linearGradient id="b" x1="50.83" y1="30.17" x2="90.91" y2="30.17" gradientUnits="userSpaceOnUse"><stop offset="0.01" stop-color="#f1f0f0"/><stop offset="0.38" stop-color="#a3a3a3"/><stop offset="0.52" stop-color="#9e9e9e"/><stop offset="0.69" stop-color="#919191"/><stop offset="0.86" stop-color="#7a7a7a"/><stop offset="1" stop-color="#636464"/></linearGradient><linearGradient id="c" x1="63.73" y1="78.38" x2="94.89" y2="78.38" gradientUnits="userSpaceOnUse"><stop offset="0.01" stop-color="#ee2a50"/><stop offset="0.38" stop-color="#d62147"/><stop offset="0.55" stop-color="#d12145"/><stop offset="0.74" stop-color="#c42041"/><stop offset="0.94" stop-color="#ad1e3a"/><stop offset="1" stop-color="#a41d37"/></linearGradient><linearGradient id="d" x1="24.35" y1="35.81" x2="31.79" y2="35.81" gradientUnits="userSpaceOnUse"><stop offset="0" stop-color="#62c0e3"/><stop offset="1" stop-color="#2c5463"/></linearGradient><linearGradient id="e" x1="9.87" y1="45.56" x2="23.93" y2="45.56" xlink:href="#d"/><linearGradient id="f" x1="8.01" y1="31.43" x2="20.28" y2="31.43" xlink:href="#d"/><linearGradient id="g" x1="18.61" y1="57.51" x2="84.41" y2="57.51" xlink:href="#c"/><linearGradient id="h" x1="44.99" y1="20.1" x2="60.71" y2="20.1" gradientUnits="userSpaceOnUse"><stop offset="0.01" stop-color="#fdd6c0"/><stop offset="0.38" stop-color="#fbbd9d"/><stop offset="0.51" stop-color="#f6b999"/><stop offset="0.66" stop-color="#e9ac8d"/><stop offset="0.82" stop-color="#d2977a"/><stop offset="0.99" stop-color="#b27b5f"/><stop offset="1" stop-color="#af785c"/></linearGradient><linearGradient id="i" x1="33.01" y1="47.39" x2="73.63" y2="47.39" xlink:href="#d"/><linearGradient id="j" x1="59.34" y1="39.64" x2="63.97" y2="39.64" xlink:href="#d"/><linearGradient id="k" x1="63.49" y1="42.74" x2="72.25" y2="42.74" xlink:href="#d"/><linearGradient id="l" x1="34.88" y1="46.09" x2="38.93" y2="46.09" xlink:href="#d"/><linearGradient id="m" x1="53.29" y1="31.52" x2="59.41" y2="31.52" xlink:href="#d"/><linearGradient id="n" x1="44.56" y1="31.19" x2="56.35" y2="31.19" xlink:href="#d"/><linearGradient id="o" x1="32.42" y1="50.02" x2="75.74" y2="50.02" xlink:href="#h"/><linearGradient id="p" x1="30.02" y1="42.26" x2="46" y2="42.26" xlink:href="#d"/></defs><title>notifications</title><path d="M5.11,77.34V90.23a4.22,4.22,0,0,0,4.22,4.22H55.57a4.22,4.22,0,0,0,4.22-4.22V79.34l5.76-6L9.34,73.11A4.23,4.23,0,0,0,5.11,77.34Z" fill="url(#a)"/><polygon points="52.97 80.92 11.02 80.73 11.02 79.44 52.98 79.64 52.97 80.92" fill="#e0e0e0"/><polygon points="52.97 85.17 11.02 84.97 11.02 83.68 52.98 83.88 52.97 85.17" fill="#e0e0e0"/><rect x="44.03" y="80.32" width="1.29" height="16.6" transform="translate(-44.16 132.86) rotate(-89.72)" fill="#e0e0e0"/><path d="M90.91,25.89v8.55a2.8,2.8,0,0,1-2.8,2.8H57.45a2.8,2.8,0,0,1-2.81-2.8V27.22l-3.81-4,37.27-.11A2.8,2.8,0,0,1,90.91,25.89Z" fill="url(#b)"/><polygon points="59.16 28.27 86.99 28.14 86.99 27.29 59.16 27.41 59.16 28.27" fill="#f5f5f5"/><polygon points="59.16 31.08 86.99 30.95 86.99 30.1 59.16 30.23 59.16 31.08" fill="#f5f5f5"/><rect x="59.16" y="32.94" width="11.01" height="0.86" transform="translate(-0.16 0.32) rotate(-0.28)" fill="#f5f5f5"/><path d="M67.85,94c-4.59-4.46-4.66-11.37-3.47-17.37a6.53,6.53,0,0,1,.89-2.88,2.07,2.07,0,0,1,2.67-.66,4.28,4.28,0,0,1,1.17,2.19,5.94,5.94,0,0,0,2,2.64,2.29,2.29,0,0,0,2,.53c1-.34,1.25-1.52,1.41-2.52q.44-2.81.88-5.61a9.23,9.23,0,0,1,.79-2.93,3.13,3.13,0,0,1,2.29-1.78,1.91,1.91,0,0,1,2.13,1.65,9,9,0,0,1-.18,1.25,1.06,1.06,0,0,0,.46,1.09,1.19,1.19,0,0,0,1.17-.28,13.26,13.26,0,0,0,3-3.22,18.65,18.65,0,0,1,2.84-3.35,5.47,5.47,0,0,1,4-1.46,3.28,3.28,0,0,1,3,2.75c.14,1.48-.92,2.77-2,3.77a22.19,22.19,0,0,1-5.38,3.67,1.91,1.91,0,0,0-.91.71c-.33.64.19,1.4.82,1.73a11.79,11.79,0,0,0,2.29.65A2.26,2.26,0,0,1,91.42,76c.24,1.09-.79,2-1.75,2.58A19.2,19.2,0,0,1,83.47,81a6.57,6.57,0,0,0-2.27.68,1.86,1.86,0,0,0-.94,2,1.91,1.91,0,0,0,1.92,1.13,14.61,14.61,0,0,0,2.33-.48c1.47-.3,3.23.09,3.91,1.42a3.17,3.17,0,0,1-.12,2.86,7.33,7.33,0,0,1-1.92,2.23,19.46,19.46,0,0,1-9.17,4.43A13.35,13.35,0,0,1,67.85,94" fill="url(#c)"/><path d="M67,98.42a45,45,0,0,1,3-8,90.83,90.83,0,0,1,5.15-9.08q.73-1.17,1.47-2.31c.48-.75,1-1.5,1.48-2.21A42.33,42.33,0,0,1,81.31,73c1.08-1.19,2.14-2.28,3.14-3.29s2-1.92,2.87-2.73a36.3,36.3,0,0,1,4.54-3.46c.57-.37,1-.63,1.33-.81l.35-.2.12-.07-.11.08-.34.22c-.3.19-.75.47-1.31.84A38.62,38.62,0,0,0,87.4,67c-.9.81-1.84,1.73-2.84,2.75s-2,2.1-3.12,3.28a47.11,47.11,0,0,0-3.18,3.88c-.51.7-1,1.45-1.47,2.21l-1.47,2.31a92.37,92.37,0,0,0-5.14,9.05,45.47,45.47,0,0,0-3,7.94" fill="#263238"/><path d="M78.17,76.83a2.64,2.64,0,0,1,0-.44c0-.29,0-.7,0-1.21,0-1,.1-2.43.19-4s.15-3,.16-4V66a3.16,3.16,0,0,1,0-.45,1.37,1.37,0,0,1,.06.44c0,.29.05.7.06,1.21,0,1,0,2.43-.1,4s-.18,2.92-.25,4c0,.48,0,.89-.06,1.21A2.35,2.35,0,0,1,78.17,76.83Z" fill="#263238"/><path d="M91.44,76.53a1.88,1.88,0,0,1-.52,0l-1.42-.09c-1.2-.07-2.86-.1-4.7,0s-3.49.16-4.69.27l-1.42.15a2.86,2.86,0,0,1-.52,0,3.38,3.38,0,0,1,.51-.11c.34-.06.82-.14,1.42-.21,1.19-.15,2.86-.29,4.7-.33a44.52,44.52,0,0,1,4.71.11c.6,0,1.08.1,1.42.15A3.83,3.83,0,0,1,91.44,76.53Z" fill="#263238"/><path d="M70.22,90.22s0,0-.06-.17l-.15-.5c-.12-.44-.28-1.07-.47-1.86-.38-1.58-.84-3.77-1.31-6.2s-.9-4.63-1.25-6.21c-.17-.77-.31-1.4-.42-1.87,0-.21-.08-.38-.11-.51s0-.18,0-.19a1,1,0,0,1,.06.18l.15.5c.12.43.28,1.07.47,1.86.38,1.58.83,3.77,1.31,6.2s.9,4.62,1.25,6.21c.17.77.31,1.4.41,1.87,0,.2.08.37.11.51S70.23,90.22,70.22,90.22Z" fill="#263238"/><path d="M88.23,87.51l-.18,0-.52.09-1.93.29c-1.63.25-3.88.62-6.36,1s-4.73.76-6.37,1l-1.94.24-.53,0q-.18,0-.18,0l.18,0,.52-.08,1.93-.3c1.63-.25,3.88-.62,6.36-1s4.74-.76,6.37-1l1.94-.24.53,0Q88.23,87.5,88.23,87.51Z" fill="#263238"/><path d="M26.35,41.2a5.62,5.62,0,0,1-1.92-5.28,7.43,7.43,0,0,1,3.2-4.76,3.12,3.12,0,0,1,2.55-.66,2.37,2.37,0,0,1,1.54,1.86,4.77,4.77,0,0,1-.29,2.5c-.95,2.75-2.38,5.24-5.08,6.34" fill="url(#d)"/><path d="M23.81,45.9a13.1,13.1,0,0,0-11.56-3c-1,.24-2.19.78-2.36,1.82s.77,1.93,1.68,2.46a11.18,11.18,0,0,0,12.36-1" fill="url(#e)"/><path d="M9.06,24.13a6.61,6.61,0,0,1,5.06.87,11.55,11.55,0,0,1,3.61,3.78c1.82,2.88,2.47,6.74,2.55,10.14-3.78-.15-7-3.12-8.55-4.73-2.44-2.54-5.3-8.61-2.67-10.06" fill="url(#f)"/><path d="M29.52,51a13.06,13.06,0,0,1-.95-1.42,24.24,24.24,0,0,1-2.12-6.06,12.06,12.06,0,0,1,.47-6.4,7.85,7.85,0,0,1,.91-1.73c.27-.38.45-.56.47-.54a16.08,16.08,0,0,0-1.13,2.37,12.67,12.67,0,0,0-.35,6.23,28,28,0,0,0,2,6" fill="#263238"/><path d="M29.55,51.08c-.5-.65-1.17-1.5-2-2.54-1.66-2.14-3.95-5.1-6.53-8.33S16.12,34.08,14.39,32l-2-2.48a7.16,7.16,0,0,1-.71-.94,6.47,6.47,0,0,1,.82.84c.52.56,1.24,1.38,2.13,2.41,1.78,2,4.18,4.92,6.76,8.15s4.84,6.22,6.44,8.41c.8,1.1,1.44,2,1.87,2.61" fill="#263238"/><path d="M14.61,45.11s.22-.1.65-.2a4.45,4.45,0,0,1,.79-.15,9.47,9.47,0,0,1,1.06-.12,13.46,13.46,0,0,1,2.77.11,15.2,15.2,0,0,1,3.3.86,15.42,15.42,0,0,1,3,1.59A13.41,13.41,0,0,1,28.3,49a9.07,9.07,0,0,1,.7.79,5.07,5.07,0,0,1,.48.65c.25.37.21.54.19.55a21.44,21.44,0,0,0-1.56-1.8A14.81,14.81,0,0,0,26,47.49,17,17,0,0,0,23,46a18,18,0,0,0-3.21-.87,17,17,0,0,0-2.71-.18C15.57,45,14.62,45.18,14.61,45.11Z" fill="#263238"/><rect x="4.22" y="31.48" width="92" height="44.89" rx="6.81" transform="translate(-3.94 103.9) rotate(-89.74)" fill="#263238"/><path d="M66,10.7l-6.06,0a1.49,1.49,0,0,0-1.48,1.53v1.1A1.5,1.5,0,0,1,57,14.84l-11.81-.06a1.51,1.51,0,0,1-1.47-1.54v-1.1a1.52,1.52,0,0,0-1.47-1.55H40.11l-5.3,0A4.78,4.78,0,0,0,30,15.31l-.32,76.5a4.76,4.76,0,0,0,4.75,4.79l31.2.15A4.78,4.78,0,0,0,70.43,92l.32-76.51A4.77,4.77,0,0,0,66,10.7Z" fill="#fafbfb"/><path d="M48.35,89.42a.59.59,0,0,1-.65.55.56.56,0,1,1,.65-.55Z" fill="#455b64"/><path d="M50.34,89.43a.65.65,0,1,1-.64-.55A.6.6,0,0,1,50.34,89.43Z" fill="#455b64"/><path d="M52.34,89.44a.65.65,0,0,1-1.29,0,.59.59,0,0,1,.65-.55A.6.6,0,0,1,52.34,89.44Z" fill="#455b64"/><path d="M82,45.65H21A2.39,2.39,0,0,0,18.61,48V67A2.39,2.39,0,0,0,21,69.35h4.54c4.11,0,4.91,0,4.91,0H82A2.39,2.39,0,0,0,84.41,67V48A2.39,2.39,0,0,0,82,45.65Z" fill="url(#g)"/><path d="M66.45,77.26s-7.26.07-16.22.07S34,77.3,34,77.26s7.26-.07,16.22-.07S66.45,77.23,66.45,77.26Z" stroke="#000" stroke-miterlimit="10" stroke-width="0.25"/><path d="M66.45,74.35s-7.26.08-16.22.08S34,74.39,34,74.35s7.26-.07,16.22-.07S66.45,74.32,66.45,74.35Z" stroke="#000" stroke-miterlimit="10" stroke-width="0.25"/><path d="M66.45,80.14s-7.26.07-16.22.07S34,80.18,34,80.14s7.26-.07,16.22-.07S66.45,80.1,66.45,80.14Z" stroke="#000" stroke-miterlimit="10" stroke-width="0.25"/><path d="M55.26,83.12s-4.76.07-10.63.07S34,83.16,34,83.12s4.75-.07,10.62-.07S55.26,83.08,55.26,83.12Z" stroke="#000" stroke-miterlimit="10" stroke-width="0.25"/><path d="M44.6,14a4.1,4.1,0,0,0-1.36-2.63,2.7,2.7,0,0,1-.75-2.87c.27-1,.92-.95,1.18-1.55a4.52,4.52,0,0,0,.15-1.43A3,3,0,0,1,47.39,3,4.14,4.14,0,0,1,55,2.2a3.26,3.26,0,0,1,3,0,3.23,3.23,0,0,1,1.62,2.55,2.32,2.32,0,0,1,3,.45,2.87,2.87,0,0,1,.22,3.15,3.76,3.76,0,0,1-2.71,1.79A5.56,5.56,0,0,1,57,9.59a10.68,10.68,0,0,1-2.67-2" fill="#263238"/><ellipse cx="51.97" cy="46.74" rx="19.5" ry="19.05" fill="#e0e0e0"/><path d="M71.55,46.76l-2.16-5.54-7.73,4.87,6.89,10.63A18.22,18.22,0,0,0,71.55,46.76Z" fill="#ec996f"/><path d="M50.19,34.77h0a5.19,5.19,0,0,0,5.22-4.9c.11-2.3.21-4.5.21-4.5s4.25-.31,4.64-4.47.45-13.79.45-13.79h0a14.79,14.79,0,0,0-14.83.65l-.4.26L45,29.55A5.19,5.19,0,0,0,50.19,34.77Z" fill="url(#h)"/><path d="M52.64,13.51a.6.6,0,0,1,.38.77.61.61,0,1,1-1.16-.38A.62.62,0,0,1,52.64,13.51Z" fill="#263238"/><path d="M53.8,13.73c-.07.07-.46-.27-1-.31s-1,.24-1.08.16,0-.16.24-.29a1.34,1.34,0,0,1,.86-.21,1.41,1.41,0,0,1,.83.33C53.78,13.57,53.84,13.7,53.8,13.73Z" fill="#263238"/><path d="M59,13.51a.62.62,0,0,1,.39.77.63.63,0,0,1-.78.39.62.62,0,0,1-.39-.77A.63.63,0,0,1,59,13.51Z" fill="#263238"/><path d="M60.23,13.74c-.07.07-.46-.27-1-.3s-1,.23-1.08.15,0-.16.24-.29a1.46,1.46,0,0,1,1.69.12C60.21,13.58,60.27,13.71,60.23,13.74Z" fill="#263238"/><path d="M55.86,18.24a3.29,3.29,0,0,1,1-.12c.16,0,.28,0,.29-.11a.75.75,0,0,0-.07-.43c-.12-.4-.24-.79-.36-1.21a15.46,15.46,0,0,1-.74-3.14A15.72,15.72,0,0,1,57,16.28c.11.42.22.82.33,1.21a1,1,0,0,1,0,.63.42.42,0,0,1-.29.22.78.78,0,0,1-.26,0A2.5,2.5,0,0,1,55.86,18.24Z" fill="#263238"/><path d="M55.63,25.31a9.87,9.87,0,0,1-5.36-2s1,3.1,5.28,3.07Z" fill="#ec996f"/><path d="M45.38,14.13a.63.63,0,0,0-.6-.64c-.78,0-2.07.24-2.23,2.39a2,2,0,0,0,2.77,2.27C45.33,18.08,45.36,15.32,45.38,14.13Z" fill="#fbbd9d"/><path d="M44.66,16.93s-.06,0-.15.07a.56.56,0,0,1-.4,0,1.33,1.33,0,0,1-.53-1.24,1.64,1.64,0,0,1,.21-.75.63.63,0,0,1,.43-.38.28.28,0,0,1,.31.17c0,.09,0,.15,0,.16a.18.18,0,0,0,0-.18.37.37,0,0,0-.11-.2.44.44,0,0,0-.29-.1.77.77,0,0,0-.6.43,1.92,1.92,0,0,0-.25.84,1.42,1.42,0,0,0,.69,1.39.58.58,0,0,0,.5-.05C44.65,17,44.67,16.94,44.66,16.93Z" fill="#ec996f"/><path d="M51.06,12.1c.15.2.69.1,1.38.07s1.23,0,1.35-.24-.52-.73-1.41-.66S50.89,11.9,51.06,12.1Z" fill="#263238"/><path d="M57.81,11.9c.08.26.59.34,1.15.34s1.07-.11,1.15-.38-.44-.63-1.16-.62S57.72,11.64,57.81,11.9Z" fill="#263238"/><path d="M61.3,8.43A6.92,6.92,0,0,1,55.49,8c-2.15-1.07-4.67-1.6-5.22-1.16s-.67,2.65-2.81,3.3c0,0,.15,4.24-1.54,4.09s-.64-6.72-.64-6.72l4.14-2,4.51-.85,4.25.6,3.29.9Z" fill="#263238"/><path d="M33,33c4.41-4.54,12.19-4.05,12.19-4.05l6.45,4.62,3.65-4.26a23.68,23.68,0,0,1,7.44,2.3l.25.08v.05c2.83,1.54,6.83,5.22,10.64,8.8l-4.56,4.23-5,4.49a.13.13,0,0,1,0,.09c-.06.27.7,6.44,1.47,11.12a19,19,0,0,1-17,5.13c-2.06-.36-3.06-.86-5-1.36a7,7,0,0,1-5.13-6.11h0c-.34-3.93-.6-8.8-.6-8.8" fill="url(#i)"/><path d="M59.34,30.06a4.24,4.24,0,0,1,.28.73c.17.47.39,1.16.66,2,.53,1.71,1.21,4.08,1.85,6.73s1.12,5.07,1.42,6.83c.16.88.27,1.59.34,2.09a4,4,0,0,1,.08.77,4.06,4.06,0,0,1-.17-.76c-.11-.53-.24-1.22-.41-2.07-.35-1.75-.85-4.16-1.49-6.81s-1.29-5-1.78-6.73c-.24-.83-.44-1.52-.58-2A6.31,6.31,0,0,1,59.34,30.06Z" fill="url(#j)"/><path d="M63.5,46.31c0-.05,1.88-1.69,4.3-3.66s4.41-3.53,4.45-3.48-1.88,1.69-4.3,3.66S63.54,46.36,63.5,46.31Z" fill="url(#k)"/><path d="M38.84,39.2l-4,13,1.47.76,1.46-3.68S39.3,41.56,38.84,39.2Z" opacity="0.2" fill="url(#l)"/><g opacity="0.2"><path d="M58.92,30.07c2.13,1.13-3.21,3.83-5.63,3.76L55,29.2A25.37,25.37,0,0,1,58.92,30.07Z" fill="url(#m)"/></g><path d="M44.56,29.2V25.76s6.73,1.73,7,5.76c0,0,.85-4.45,4.32-4.67l.49,6.26-4,3.51H48.23L45,33.83l-.43-4.35" fill="url(#n)"/><path d="M53.05,50.83a5.37,5.37,0,0,1,0-.74c0-.48,0-1.17,0-2,0-1.7-.05-4-.26-6.64s-.55-4.91-.84-6.59l-.35-2a3.58,3.58,0,0,1-.11-.73,6.4,6.4,0,0,1,.2.71c.11.46.26,1.14.43,2a63.17,63.17,0,0,1,.9,6.6,60.34,60.34,0,0,1,.2,6.66c0,.86-.06,1.55-.1,2A3.42,3.42,0,0,1,53.05,50.83Z" fill="#263238"/><path d="M51.23,30.36a.77.77,0,0,0-.4,0c-.26.08-.49.4-.68.86A19.73,19.73,0,0,0,48.87,35l0,.15-.14-.08c-.4-.24-.81-.51-1.23-.79a23.83,23.83,0,0,1-2.18-1.65,2.77,2.77,0,0,1-.74-1,3.16,3.16,0,0,1-.23-1,6.24,6.24,0,0,1,.15-1.5,2.28,2.28,0,0,1,.15-.54,2.44,2.44,0,0,1-.06.55,7,7,0,0,0-.07,1.48,2.71,2.71,0,0,0,.24,1,2.56,2.56,0,0,0,.7.89c.64.53,1.38,1.09,2.17,1.63.42.28.82.54,1.22.78l-.17.08A17.14,17.14,0,0,1,50,31.19a3.18,3.18,0,0,1,.35-.58,1,1,0,0,1,.43-.29A.46.46,0,0,1,51.23,30.36Z" fill="#263238"/><path d="M55.86,26.85a2,2,0,0,1,.06.54L56,28.86c0,.62.13,1.35.25,2.16a3.55,3.55,0,0,1,.08,1.32,2.29,2.29,0,0,1-.88,1.13A9.56,9.56,0,0,0,54,34.6l-.18.2,0-.27a8.07,8.07,0,0,0-1-3.36C52.38,30.41,52,30,52.05,30s.11.08.27.26a6.65,6.65,0,0,1,.61.85A7.68,7.68,0,0,1,54,34.51l-.2-.06a9.33,9.33,0,0,1,1.51-1.17,2.07,2.07,0,0,0,.8-1,3.43,3.43,0,0,0-.07-1.23,19.56,19.56,0,0,1-.2-2.18c0-.62,0-1.13,0-1.48A2,2,0,0,1,55.86,26.85Z" fill="#263238"/><path d="M77.52,27.72c-.28.32-10.18,13.57-10.18,13.57l1.39.79L78.9,29Z" fill="#263238"/><path d="M37.72,38.19s10.42,15,11.05,15.3c1.24.58,15.5-11.74,16.86-12.92L67,38.74s1.12-5.15,2.32-4.75-.65,2.61.13,4.57,4.36-2.71,4.5-3.13l.93-1.21a16.18,16.18,0,0,1,.9,3.9c-.21,3.67-3.69,8-3.69,8S56.45,65.48,45.76,66.08c-3.07.17-8.54-8.56-12.2-15.11a9,9,0,0,1,2.55-11.61Z" fill="url(#o)"/><path d="M74,38.77a12.59,12.59,0,0,1,.66-1.36,14.37,14.37,0,0,1,.68-1.36,5.93,5.93,0,0,1-.55,1.42A5.6,5.6,0,0,1,74,38.77Z" fill="#ec996f"/><path d="M36,30.87s-11.19,4-2.87,22.79L46,45.86l-1.83-4.4Z" fill="url(#p)"/><path d="M35.1,31.2a3.66,3.66,0,0,1,1.35.11,5.42,5.42,0,0,1,1.47.62,8.22,8.22,0,0,1,1.63,1.33,20.11,20.11,0,0,1,3,4.54c1,1.83,1.83,3.92,2.74,6.1l.79,1.92,0,.1-.09,0c-3.74,2-7,3.94-9.29,5.37-1.15.71-2.07,1.29-2.7,1.7l-.72.47-.26.15.24-.19c.15-.12.39-.29.7-.5.61-.43,1.52-1,2.66-1.77C39,49.74,42.21,47.81,46,45.76l-.05.15c-.26-.61-.53-1.26-.8-1.92-.9-2.18-1.78-4.26-2.71-6.09a19.66,19.66,0,0,0-3-4.52A7.74,7.74,0,0,0,37.85,32a5.51,5.51,0,0,0-1.42-.64A7.4,7.4,0,0,0,35.1,31.2Z" fill="#263238"/><path d="M59.16,3.31s0,.06.06.19a2.48,2.48,0,0,1,0,.59A3,3,0,0,1,55.39,6.8a2.63,2.63,0,0,1-1.54-1.12,1.55,1.55,0,0,1-.23-1,1.32,1.32,0,0,1,.55-.93,1.15,1.15,0,0,1,1.08-.07,1.43,1.43,0,0,1,.74.75,2,2,0,0,1-.3,1.87,2.34,2.34,0,0,1-2.95.64,4.84,4.84,0,0,0-1.11-.42,1.4,1.4,0,0,0-.86.09,3.48,3.48,0,0,0-.64.42s0-.06.13-.16a.73.73,0,0,1,.18-.16,1.82,1.82,0,0,1,.29-.19,1.4,1.4,0,0,1,.92-.13,5,5,0,0,1,1.16.4,4.13,4.13,0,0,0,.65.22,2.2,2.2,0,0,0,.72,0,2.11,2.11,0,0,0,1.34-.82,1.74,1.74,0,0,0,.26-1.65,1.06,1.06,0,0,0-1.48-.57,1.07,1.07,0,0,0-.45.77,1.31,1.31,0,0,0,.19.86,2.45,2.45,0,0,0,1.41,1,2.89,2.89,0,0,0,2.83-.67,3,3,0,0,0,.88-1.84A5.1,5.1,0,0,0,59.16,3.31Z" fill="#455b64"/><path d="M56.73,20.3s-.14.09-.39.1a2,2,0,0,1-.93-.22,1.93,1.93,0,0,1-.73-.62c-.14-.21-.18-.36-.15-.37s.36.48,1,.78A5.53,5.53,0,0,0,56.73,20.3Z" fill="#263238"/><path d="M44.91,18.31s.15.19,0,.5a.73.73,0,0,1-.46.37.79.79,0,0,1-.7-.18.87.87,0,0,1-.3-.66.88.88,0,0,1,.21-.54c.21-.25.43-.28.44-.25s-.16.11-.31.35a.7.7,0,0,0,.11.92.61.61,0,0,0,.5.15.65.65,0,0,0,.37-.24A1.14,1.14,0,0,0,44.91,18.31Z" fill="#263238"/><path d="M59.91,4.83a1.46,1.46,0,0,1,.21.82,2.76,2.76,0,0,1-2.5,2.89,1.36,1.36,0,0,1-.85-.1s.33,0,.83-.06a2.93,2.93,0,0,0,1.68-.93A2.92,2.92,0,0,0,60,5.65C60,5.15,59.87,4.84,59.91,4.83Z" fill="#455b64"/><path d="M44.67,42.52c0,.06-2.94,1.59-6.64,3.41s-6.71,3.26-6.74,3.21,3-1.59,6.64-3.42S44.64,42.46,44.67,42.52Z" fill="#e0e0e0"/><path d="M42,37.41c0,.06-2.61,1.54-5.9,3.31s-6,3.15-6,3.09,2.61-1.53,5.9-3.3S41.93,37.36,42,37.41Z" fill="#e0e0e0"/><path d="M39.35,33.28a11.6,11.6,0,0,1-1.33.78l-3.23,1.81L31.57,37.7a11.31,11.31,0,0,1-1.35.73,8.67,8.67,0,0,1,1.26-.87c.81-.51,1.93-1.18,3.19-1.9S37.1,34.34,38,33.92A8.1,8.1,0,0,1,39.35,33.28Z" fill="#e0e0e0"/><path d="M49.24,32.3a1.93,1.93,0,0,1-.87-.23,6.52,6.52,0,0,1-1.82-1.19,11.17,11.17,0,0,1-1.47-1.59,3.38,3.38,0,0,1-.51-.74,4,4,0,0,1,.64.63,20.23,20.23,0,0,0,1.49,1.53,8.26,8.26,0,0,0,1.74,1.21C48.92,32.17,49.25,32.27,49.24,32.3Z" fill="#e0e0e0"/><path d="M55.81,29.86a2.44,2.44,0,0,1-.93,1.35,2.62,2.62,0,0,1-1.49.7c0-.07.67-.3,1.34-.88A14.8,14.8,0,0,0,55.81,29.86Z" fill="#e0e0e0"/><path d="M67.53,36.64a.79.79,0,0,1-.25,0l-.73.09c-.63.07-1.54.16-2.67.25-2.26.18-5.39.35-8.84.48s-6.59.17-8.86.15c-1.13,0-2,0-2.68-.06l-.73,0-.26,0a.76.76,0,0,1,.26,0h.73l2.68,0c2.26,0,5.39-.1,8.85-.22s6.58-.27,8.84-.41l2.67-.17.73,0Z" fill="#e0e0e0"/><path d="M64,42a6.78,6.78,0,0,1-.74.11c-.48.06-1.17.14-2,.21-1.72.16-4.09.33-6.72.43s-5,.14-6.73.12c-.87,0-1.56,0-2,0a3.7,3.7,0,0,1-.75-.06l.75,0,2,0c1.72,0,4.1-.08,6.72-.18s5-.25,6.72-.36l2-.14A3.89,3.89,0,0,1,64,42Z" fill="#e0e0e0"/><path d="M55.89,48.58a9.54,9.54,0,0,1-1.49.21c-.93.09-2.21.19-3.63.27s-2.7.09-3.63.09a9,9,0,0,1-1.51-.06,8.88,8.88,0,0,1,1.5-.11l3.63-.16,3.63-.2A9,9,0,0,1,55.89,48.58Z" fill="#e0e0e0"/><path d="M45.57,32.94c0,.07-1.38.08-3.09.15s-3.08.17-3.08.1a15.2,15.2,0,0,1,3.08-.33A15.19,15.19,0,0,1,45.57,32.94Z" fill="#e0e0e0"/><path d="M64.58,32.7a35.61,35.61,0,0,1-4,.1,36.38,36.38,0,0,1-4-.13,31.48,31.48,0,0,1,4-.11A32.53,32.53,0,0,1,64.58,32.7Z" fill="#e0e0e0"/><path d="M65.27,60.11s-.14.1-.41.24-.67.32-1.17.53a26.63,26.63,0,0,1-4,1.3,25.75,25.75,0,0,1-4.21.6c-.54,0-1,0-1.28,0a1.68,1.68,0,0,1-.48,0s.67-.06,1.75-.16A32.29,32.29,0,0,0,59.59,62a33.21,33.21,0,0,0,4-1.22C64.64,60.35,65.25,60.08,65.27,60.11Z" fill="#e0e0e0"/></svg>