<svg xmlns="http://www.w3.org/2000/svg" xmlns:xlink="http://www.w3.org/1999/xlink" viewBox="0 0 75 50"><defs><clipPath id="a"><rect width="75" height="50" fill="none"/></clipPath></defs><title>text</title><g clip-path="url(#a)"><circle cx="43.82" cy="33.29" r="12.6" fill="#fad66b"/><path d="M43,32.08h24l-4.34-.54a1.06,1.06,0,0,0-.62-.85,1,1,0,0,0-1,.1,1.25,1.25,0,0,0-.86-1.2,3.61,3.61,0,0,0-1.53-.19,3.28,3.28,0,0,0-2.06-2.7,3.75,3.75,0,0,0-3.45.35,4.33,4.33,0,0,0-1.85,3,2,2,0,0,0-1.89.91,1.63,1.63,0,0,0-2.05.56Z" fill="#fff"/><path d="M44.45,10.82h14.2l-2.57-.32a.61.61,0,0,0-1-.44.78.78,0,0,0-.51-.71,2.3,2.3,0,0,0-.91-.11,1.91,1.91,0,0,0-1.21-1.59,2.21,2.21,0,0,0-2,.21,2.55,2.55,0,0,0-1.09,1.75,1.14,1.14,0,0,0-1.11.54,1,1,0,0,0-1.22.33Z" fill="#fff"/><path d="M38.59,9H20l3-.48A2.41,2.41,0,0,1,25.1,5.82a2.54,2.54,0,0,1,.95.09A3.15,3.15,0,0,1,31,6.14a2.42,2.42,0,0,1,2.31-.57,2.47,2.47,0,0,1,1.74,1.69,1.39,1.39,0,0,1,1.37,0,1.33,1.33,0,0,1,.65,1.17Z" fill="#fff"/><path d="M33.54,30.41H16.11l3.7-.43a3.08,3.08,0,0,1,.86-2.6,3,3,0,0,1,4.2-.09,2.81,2.81,0,0,1,.57.75,1.43,1.43,0,0,1,1.29-.28,1.57,1.57,0,0,1,1,.91,1.58,1.58,0,0,1,1.54-.4,1.55,1.55,0,0,1,1.1,1.13.82.82,0,0,1,1,.61Z" fill="#fff"/><path d="M2.4,20.36H15.9l-2.44-.3a.59.59,0,0,0-.92-.42.72.72,0,0,0-.48-.67,2.08,2.08,0,0,0-.86-.11A1.84,1.84,0,0,0,10,17.35a2.07,2.07,0,0,0-1.93.2,2.39,2.39,0,0,0-1,1.67A1.09,1.09,0,0,0,6,19.73.92.92,0,0,0,4.85,20Z" fill="#fff"/><path d="M59.83,19.19h16l-2.88-.36a.7.7,0,0,0-.41-.57.67.67,0,0,0-.67.07.86.86,0,0,0-.58-.8,2.32,2.32,0,0,0-1-.12,2.15,2.15,0,0,0-1.36-1.79,2.48,2.48,0,0,0-2.29.23,2.9,2.9,0,0,0-1.23,2,1.33,1.33,0,0,0-1.25.6,1.08,1.08,0,0,0-1.36.38Z" fill="#fff"/><path d="M59.06,23.21H47.38l1.89-.3a1.5,1.5,0,0,1,1.34-1.65,1.67,1.67,0,0,1,.59,0,2,2,0,0,1,2.79-.2,2.1,2.1,0,0,1,.31.35,1.52,1.52,0,0,1,1.45-.36,1.57,1.57,0,0,1,1.09,1.06.88.88,0,0,1,.86,0,.85.85,0,0,1,.4.74Z" fill="#fff"/><path d="M51.73,17.57H25.21l5.63-.67a4.73,4.73,0,0,1,1.31-4,4.54,4.54,0,0,1,6.4-.14,5,5,0,0,1,.86,1.14,2.16,2.16,0,0,1,2-.41,2.29,2.29,0,0,1,1.54,1.38,2.44,2.44,0,0,1,2.35-.61A2.34,2.34,0,0,1,46.93,16a1.26,1.26,0,0,1,1.46.93Z" fill="#fff"/><path d="M19,27.71H-1.59l4.37-.51a3.64,3.64,0,0,1,1-3.07,3.51,3.51,0,0,1,5.62.78,1.67,1.67,0,0,1,1.52-.32,1.79,1.79,0,0,1,1.2,1.07A1.86,1.86,0,0,1,14,25.19a1.83,1.83,0,0,1,1.3,1.32,1,1,0,0,1,1.12.72Z" fill="#fff"/><path d="M41.5,19.91a1.88,1.88,0,0,0-2.45.25,1.83,1.83,0,0,0-1-.75,1.34,1.34,0,0,0-1.36.25c-.09.11.06.26.15.16A1.16,1.16,0,0,1,38,19.63a1.6,1.6,0,0,1,.9.74.12.12,0,0,0,0,.05.09.09,0,0,0,.13,0h0a1.66,1.66,0,0,1,2.27-.32C41.51,20.18,41.62,20,41.5,19.91Z" fill="#846a29"/><path d="M41.52,22a1,1,0,0,0-1.36-.1.93.93,0,0,0-1.23,0,.1.1,0,0,0,0,.15h0a.11.11,0,0,0,.15,0,.71.71,0,0,1,1,0,.11.11,0,0,0,.13.08l0,0a.78.78,0,0,1,1.11,0l0,0C41.46,22.28,41.62,22.13,41.52,22Z" fill="#846a29"/><path d="M43.5,20.8a.55.55,0,0,0-.86-.11.73.73,0,0,0-.43-.11.71.71,0,0,0-.47.23.11.11,0,0,0,0,.15.1.1,0,0,0,.15,0h0a.46.46,0,0,1,.65-.07h0l0,0a.12.12,0,0,0,.15,0,.33.33,0,0,1,.29-.15h.08l.08,0,0,0h0l0,0h0l0,0a.11.11,0,0,0,.19-.1Z" fill="#846a29"/><path d="M48.1,22.73a1.36,1.36,0,0,0-1.77.18,1.32,1.32,0,0,0-.73-.54,1,1,0,0,0-1,.18c-.07.08,0,.19.11.11a.84.84,0,0,1,.85-.13,1.16,1.16,0,0,1,.64.53l0,0a.08.08,0,0,0,.1,0h0A1.21,1.21,0,0,1,48,22.87.08.08,0,0,0,48.1,22.73Z" fill="#846a29"/><path d="M48.72,25.09a.72.72,0,0,0-1-.06.63.63,0,0,0-.42-.17.67.67,0,0,0-.47.16.08.08,0,0,0,0,.11h0a.08.08,0,0,0,.11,0,.52.52,0,0,1,.7,0,.07.07,0,0,0,.09,0s0,0,0,0a.57.57,0,0,1,.81,0l0,0A.09.09,0,0,0,48.72,25.09Z" fill="#846a29"/><path d="M45.9,24.07a.42.42,0,0,0-.34-.2.42.42,0,0,0-.29.12.47.47,0,0,0-.3-.08.54.54,0,0,0-.34.16.08.08,0,0,0,0,.11.07.07,0,0,0,.11,0,.34.34,0,0,1,.48,0h0a0,0,0,0,0,0,0,.07.07,0,0,0,.11,0,.28.28,0,0,1,.21-.1h.06l.05,0,0,0h0l0,0h0v0a.07.07,0,0,0,.11,0,.08.08,0,0,0,0-.1Z" fill="#846a29"/><path d="M2.82,39.6q37.85-1.38,75.71-1.12c.21,4,.45,8.08.65,12.08-26.63.06-53.31.47-79.95.53A68,68,0,0,1-.68,40.22C.39,40.5,1.72,39.64,2.82,39.6Z" fill="#adddd7"/><path d="M2.82,38.79q37.85-.42,75.71-.34c.21,1.22.45,2.46.65,3.68-26.63,0-53.31.14-79.95.16A6.41,6.41,0,0,1-.68,39C.39,39.07,1.72,38.8,2.82,38.79Z" fill="#52c1b2"/><path d="M2.82,38.64q37.85-.24,75.71-.2c.21.7.45,1.42.65,2.12q-39.95,0-79.95.09a2.19,2.19,0,0,1,.09-1.9C.39,38.8,1.72,38.65,2.82,38.64Z" fill="#1a937e"/><path d="M2.82,44.23q37.85-.82,75.71-.67c.21,2.39.45,4.82.65,7.21-26.63,0-53.31.28-79.95.32A24.32,24.32,0,0,1-.68,44.6C.39,44.77,1.72,44.25,2.82,44.23Z" fill="#fdf7d9"/><path d="M4.54,45.11s-2.71,1-5.84-3.23c0,0,0-.27.14-.78,0-.23.1-.49.18-.8s.13-.56.21-.88.26-1,.42-1.53c.08-.25.16-.51.24-.79l.32-1,.37-1c.14-.4.3-.82.46-1.25l.27-.7c.18-.43.36-.88.56-1.34l.18-.43.38-.83L2.68,30h0c.19-.41.39-.83.6-1.25.07-.16.15-.31.23-.47.22-.44.45-.89.69-1.34.1-.2.22-.4.32-.6h0c.22-.4.44-.8.68-1.2a3.12,3.12,0,0,1,.2-.35l.52-.9.31-.51.61-1c.1-.17.21-.33.32-.5s.41-.63.62-.95l.27-.41c1-1.49,2.13-3,3.36-4.58l1.41,1.34a27.59,27.59,0,0,0-2.24,3.2A42.33,42.33,0,0,0,4.54,45.11Z" fill="#ccaa4a"/><path d="M1.44,42A12,12,0,0,1-1,40.3c.06-.26.13-.56.22-.88A13.23,13.23,0,0,0,1.44,42Z" fill="#fad66b"/><path d="M1.63,39.44a16.48,16.48,0,0,1-2-1.55c.07-.25.15-.51.24-.79A8.35,8.35,0,0,0,1.63,39.44Z" fill="#fad66b"/><path d="M2.07,37.51a8.48,8.48,0,0,1-1.86-1.4c.11-.34.23-.68.36-1A6.4,6.4,0,0,0,2.07,37.51Z" fill="#fad66b"/><path d="M2.74,34.92A5.29,5.29,0,0,1,1,33.82c.08-.23.18-.46.27-.7A5.43,5.43,0,0,0,2.74,34.92Z" fill="#fad66b"/><path d="M3.23,32.68a4.18,4.18,0,0,1-1.37-.9c.06-.14.13-.28.19-.43A5,5,0,0,0,3.23,32.68Z" fill="#fad66b"/><path d="M4,31.29a4.6,4.6,0,0,1-1.57-.77c.08-.18.16-.37.25-.55A3.63,3.63,0,0,0,4,31.29Z" fill="#fad66b"/><path d="M4.39,29.58a3.39,3.39,0,0,1-1.12-.87l.24-.46A3.68,3.68,0,0,0,4.39,29.58Z" fill="#fad66b"/><path d="M5.46,27.76A2.51,2.51,0,0,1,4.2,26.9c.1-.2.21-.4.32-.6A3.08,3.08,0,0,0,5.46,27.76Z" fill="#fad66b"/><path d="M6.18,25.78a2.13,2.13,0,0,1-1-.68l.2-.34A2.73,2.73,0,0,0,6.18,25.78Z" fill="#fad66b"/><path d="M6.76,24.61a2.2,2.2,0,0,1-.85-.75l.32-.52A2.36,2.36,0,0,0,6.76,24.61Z" fill="#fad66b"/><path d="M7.8,23a2.1,2.1,0,0,1-1-.67c.1-.17.21-.34.32-.5A2.6,2.6,0,0,0,7.8,23Z" fill="#fad66b"/><path d="M8.66,21.51a2.14,2.14,0,0,1-.89-.59l.28-.42A3.17,3.17,0,0,0,8.66,21.51Z" fill="#fad66b"/><path d="M4.54,45.11s-2.71,1-5.84-3.23c0,0,0-.27.14-.78A5,5,0,0,0,.17,42.53a1.93,1.93,0,0,0,2.12.08,3,3,0,0,0,.83-2.21,41,41,0,0,1,7.46-19.94A42.33,42.33,0,0,0,4.54,45.11Z" fill="#e0cdc2"/><path d="M11.32,17.73c-.5-.2-1-.43-1.52-.62a15.7,15.7,0,0,0,0-1.68,4.69,4.69,0,0,1,1.24,0l-1.29-.89c0-.32-.06-.63-.11-1a3.67,3.67,0,0,1,1.23-.23l-1.33-.4c-.05-.27-.1-.54-.16-.81.5-.26,1-.53,1.48-.8a15.16,15.16,0,0,1-1.65,0c-.07-.27-.14-.55-.22-.82l1.68-.85-2-.08c-.06-.19-.12-.38-.19-.57s-.12-.34-.19-.51c.5-.39,1-.77,1.52-1.12l-1.78.44-.27-.66,1.67-.79a17.13,17.13,0,0,1-1.88.31h0l-.24-.53h0l1.38-.76A12.11,12.11,0,0,1,7,5.28H7c-.15-.31-.3-.62-.46-.93l1.4-.76-1.8,0h0c-.33-.65-.67-1.3-1-1.95a11,11,0,0,1,7.17,6.5A11,11,0,0,1,11.32,17.73Z" fill="#658539"/><path d="M29,21.16l-1.15-.37-.23-.07-.72-.23h0l-.33-1.77-.51,1.51-.5-.15-.2,0a1.71,1.71,0,0,0-.3-.09h0a12.07,12.07,0,0,1-.43-1.75c-.18.49-.35,1-.52,1.48h0l-.1,0-.2-.06-.27-.06h0c0-.63,0-1.27,0-1.9-.16.59-.33,1.18-.5,1.78l-.29-.07-.2-.05-.21,0,.09-1.3c0-.18,0-.36,0-.53,0,.06-.05.12-.09.19-.23.5-.49,1-.75,1.49L21.3,19l-.2,0h0l-.59-.09c-.13-.64-.26-1.29-.4-1.93-.18.6-.37,1.2-.55,1.8l-.32,0-.2,0-.33,0a15.21,15.21,0,0,1-.23-1.63l-.54,1.59H17.1c-.2-.42-.41-.83-.62-1.24a3.51,3.51,0,0,1,0,1.25h-.39c-.19,0-.38,0-.57,0-.36-.37-.72-.75-1.09-1.12a4.61,4.61,0,0,1,.16,1.23l-.49.07-.2,0-1,.21c-.28-.46-.6-.94-.87-1.4a10.77,10.77,0,0,1,2.13-1.47l.24-.12c.3-.15.62-.28.93-.4l.18-.07a12.58,12.58,0,0,1,1.29-.38l.2,0A10.94,10.94,0,0,1,18.74,15h.2a9.53,9.53,0,0,1,1.6.07,1.66,1.66,0,0,1,.22,0c.21,0,.42.06.63.1l.48.11.22.06a11.33,11.33,0,0,1,1.63.6l.21.1c.25.12.5.26.74.4l.27.17a9.77,9.77,0,0,1,1.11.8,5.34,5.34,0,0,1,.5.43A10.64,10.64,0,0,1,29,21.16Z" fill="#92bd55"/><path d="M17,15.22l-.19,0a14.48,14.48,0,0,1,.74,3.38h.2A14.4,14.4,0,0,0,17,15.22ZM19,15h-.2A14.18,14.18,0,0,1,19,18.72l.19,0A13.59,13.59,0,0,0,18.94,15Zm1.81.1-.21,0A14.27,14.27,0,0,1,21.1,19l.2,0A13.94,13.94,0,0,0,20.76,15.08Zm3.18,1-.21-.1a22,22,0,0,1,.09,3.63l.2.05a23.79,23.79,0,0,0-.08-3.58Zm1,.56-.27-.16a10.35,10.35,0,0,1,.7,3.57l.2,0a10.23,10.23,0,0,0-.63-3.46Zm-9.4-1-.18.06a16.57,16.57,0,0,1,.71,2.94h.2a16.11,16.11,0,0,0-.73-3Zm-1.11.47-.24.12a8.84,8.84,0,0,0-.3,2.66l.19,0a8.81,8.81,0,0,1,.35-2.75Zm7.67-.76a.9.9,0,0,0-.22-.06,17.57,17.57,0,0,1,.51,2.31c0,.11,0,.22.05.33q.09.68.12,1.35l.2,0A17.25,17.25,0,0,0,22.1,15.36Zm4.46,2.5c-.16-.16-.33-.3-.5-.44a13,13,0,0,1,1.58,3.3l.22.07a13.23,13.23,0,0,0-1.3-2.93Z" fill="#658539"/><path d="M28,11.84a16,16,0,0,0-1.87-.1h-.82a6.77,6.77,0,0,1-1-1.16,9.5,9.5,0,0,1,.37,1.18l-1.14.1-.21,0-.39,0-1.09-1.8c.08.65.16,1.29.23,1.93l-.75.14-1-1.41c.1.53.2,1,.3,1.56l-.15,0-.19,0c-.22.06-.44.12-.64.19l-1.61-2a12.64,12.64,0,0,0,.45,2.44l-.35.17-.17.09-.33.17a8.65,8.65,0,0,1-1.45-1.74A15.21,15.21,0,0,0,17,14l-.55.37-.16.12-.11.08L14.56,13a7.6,7.6,0,0,1,.9,2.09l-.47.4-.15.14-.31.29c-.2-.1-.39-.2-.6-.29l-.26-.11c-.27-.1-.53-.2-.8-.28.3.5.57,1,.82,1.51l-.58.67-.14.16-.67.8a8.71,8.71,0,0,0-2.05-1.28,10.52,10.52,0,0,1,1.22-2.82l.13-.2a11.12,11.12,0,0,1,1.08-1.4,1.29,1.29,0,0,1,.16-.17c.2-.21.41-.42.63-.62a1.07,1.07,0,0,1,.16-.14,10.47,10.47,0,0,1,1.25-.94l.18-.11A10.58,10.58,0,0,1,16.35,10l.18-.08c.36-.15.72-.27,1.08-.38s.52-.14.78-.2l.21,0a11.48,11.48,0,0,1,3.15-.14l.25,0a11.21,11.21,0,0,1,2.85.7l.3.12A9.81,9.81,0,0,1,28,11.84Z" fill="#92bd55"/><path d="M13.11,17.4l-.14.16q-.83-1.62-1.5-3.3a1.37,1.37,0,0,1,.13-.2C12.05,15.19,12.56,16.3,13.11,17.4Z" fill="#658539"/><path d="M13.94,15.61l-.27-.1a22.54,22.54,0,0,1-1-2.86c.06-.06.1-.12.16-.17A19.42,19.42,0,0,0,13.94,15.61Z" fill="#658539"/><path d="M15,15.47l-.15.14a32.93,32.93,0,0,1-1.37-3.75,1.07,1.07,0,0,1,.16-.14c.09.3.18.6.28.91C14.23,13.59,14.59,14.54,15,15.47Z" fill="#658539"/><path d="M16.41,14.33l-.16.11a17.52,17.52,0,0,1-1.37-3.66l.18-.12A17.76,17.76,0,0,0,16.41,14.33Z" fill="#658539"/><path d="M18.2,13.24l-.18.09L16.35,10l.18-.08Z" fill="#658539"/><path d="M20.54,12.39l-.19,0a30.47,30.47,0,0,0-2-3.1l.21,0c.2.27.38.54.56.81A25.28,25.28,0,0,1,20.54,12.39Z" fill="#658539"/><path d="M23.58,11.87l-.21,0a30.46,30.46,0,0,0-1.62-2.75l.25,0A26.07,26.07,0,0,1,23.58,11.87Z" fill="#658539"/><path d="M26.15,11.74h-.22c-.34-.63-.71-1.25-1.08-1.86l.31.12C25.5,10.57,25.84,11.15,26.15,11.74Z" fill="#658539"/><path d="M21.2,25.56a6.34,6.34,0,0,1,.36-1.22,7.19,7.19,0,0,1-.66.8c-.29-.4-.6-.78-.91-1.15l.76-1.58c-.41.34-.82.7-1.24,1L19.07,23l.54-1.33-1,.92c-.22-.2-.43-.39-.64-.56l.66-2a9.66,9.66,0,0,0-1.5,1.43c-.23-.14-.47-.28-.7-.4A7.72,7.72,0,0,1,17,19.2a13.45,13.45,0,0,0-1.21,1.5c-.25-.11-.51-.22-.78-.31.12-.6.25-1.21.37-1.81a6.22,6.22,0,0,1-1.05,1.58c-.34-.1-.67-.19-1-.26a8.12,8.12,0,0,0-.28-1.47c-.22.44-.44.85-.68,1.27-.6-.1-1.19-.18-1.79-.24a6.91,6.91,0,0,0,0-2,9.13,9.13,0,0,1,8.67,1.7,9.32,9.32,0,0,1,3.15,8.35A16.4,16.4,0,0,0,21.2,25.56Z" fill="#658539"/><path d="M.28,20.33a4.1,4.1,0,0,0,.08-1,7.92,7.92,0,0,0,.28.82c.34-.22.7-.43,1-.61L1.57,18l.65,1.18L2.7,19c0-.4,0-.79,0-1.19.15.34.3.66.46,1,.23-.1.45-.18.66-.25,0-.59.07-1.18.1-1.77a8.5,8.5,0,0,1,.73,1.56l.66-.1a6.36,6.36,0,0,0,.12-1.57,11.23,11.23,0,0,1,.49,1.52h.7c.08-.49.17-1,.26-1.5a5,5,0,0,0,.33,1.54,8.39,8.39,0,0,1,.86.1,6.64,6.64,0,0,1,.66-1c0,.4.08.8.14,1.19.49.1,1,.21,1.45.34A5.86,5.86,0,0,1,11,17.24,7.57,7.57,0,0,0,3.74,16a7.76,7.76,0,0,0-4.95,5.52A15,15,0,0,1,.28,20.33Z" fill="#658539"/><path d="M11.84,18.05l-2.13.85a10.92,10.92,0,0,0-1-1.73L8.6,17l-.07-.1a9.84,9.84,0,0,1,.68-.79l-1,.35L8,16.25a.86.86,0,0,0-.13-.14l-.23-.24c.32-.64.65-1.27,1-1.9-.6.36-1.2.74-1.77,1.16a4.23,4.23,0,0,0-.41-.33l-.16-.11L6,14.47a12,12,0,0,1,.75-1.58c-.47.38-.92.78-1.37,1.2h0l-.42-.23-.18-.09-.19-.09c.08-.72.17-1.43.26-2.15a19.24,19.24,0,0,0-1.25,1.75l-.62-.19-.19,0A2.22,2.22,0,0,0,2.37,13a11.73,11.73,0,0,0-.1-1.87c-.19.59-.37,1.17-.55,1.75l-.16,0-.2,0-.4,0L.9,10.86a19.17,19.17,0,0,0-1,1.85l-.66,0-.21,0H-1a12.81,12.81,0,0,1-.08-1.39l-.64,1.51A7.43,7.43,0,0,0-3,13.23l-.24.1a5.24,5.24,0,0,0-2.12,1.56,6.23,6.23,0,0,1,2.84-4.07,6.37,6.37,0,0,1,.86-.45l.38-.16a8.13,8.13,0,0,1,1.9-.47l.27,0a8.8,8.8,0,0,1,1,0h.2l.25,0a10.27,10.27,0,0,1,1.24.17l.2,0a12,12,0,0,1,1.76.55l.19.07a14.72,14.72,0,0,1,1.44.7,11.1,11.1,0,0,1,1,.61l.17.11a9.9,9.9,0,0,1,1.87,1.67l.13.16.17.22a7.7,7.7,0,0,1,.55.85,1.14,1.14,0,0,0,.1.19A5.94,5.94,0,0,1,11.84,18.05Z" fill="#92bd55"/><path d="M-1.67,10.37a9.47,9.47,0,0,0-1.57,3l.23-.1a9.63,9.63,0,0,1,1.72-3ZM.61,9.74a9.31,9.31,0,0,0-1.55,3l.21,0a9,9,0,0,1,1.61-3Zm1.3-.06a14.2,14.2,0,0,0-.55,3.1l.2,0a15.1,15.1,0,0,1,.55-3.13Zm1.7.19A25.22,25.22,0,0,0,2.74,13l.19.05A24.91,24.91,0,0,1,3.8,9.91l-.19,0Zm2,.59c-.28,1.1-.56,2.2-.85,3.3l.19.09.84-3.32-.18-.07ZM8.2,11.83a29.17,29.17,0,0,1-1.94,2.85l.16.12c.69-.92,1.34-1.87,1.94-2.86Zm2,1.79c-.77.85-1.57,1.68-2.38,2.49a1.66,1.66,0,0,1,.13.14c.81-.8,1.6-1.63,2.37-2.48l-.13-.15Zm.84,1.23A16.49,16.49,0,0,1,8.6,17l.12.16A17.16,17.16,0,0,0,11.17,15a1.51,1.51,0,0,0-.09-.18Z" fill="#658539"/><path d="M15.86,24.58v.23a5.89,5.89,0,0,1-.19,1.45,1.66,1.66,0,0,1-.06.21,4.83,4.83,0,0,1-.48,1.15l-.12.21-.17.24A4.47,4.47,0,0,1,11.78,30a4.06,4.06,0,0,0,1.51-2.19l.06-.19a.74.74,0,0,1,0-.14L14.5,27c-.34,0-.67-.06-1-.11,0-.12,0-.24.05-.35a1.37,1.37,0,0,0,0-.19v-.16A13.35,13.35,0,0,0,15,25.6l-1.37-.13c0-.1,0-.2,0-.3s0-.13,0-.2v0l1.28-.32a7.54,7.54,0,0,0-1.34-.16L13.43,24c0-.07,0-.13,0-.2a1.46,1.46,0,0,0-.05-.2,12.75,12.75,0,0,0,1.32-.83l-1.56.1a1.67,1.67,0,0,1-.08-.2l-.08-.18-.1-.21h0c.31-.31.62-.62.92-.94a9.85,9.85,0,0,1-1.17.47l-.17-.28-.12-.16-.15-.23c.32-.39.63-.8.91-1.22l-1.41.61-.18-.19a1.66,1.66,0,0,0-.14-.13l-.1-.1.3-.73c-.2.17-.4.32-.6.46a7.71,7.71,0,0,0-1.39-.94c.23-.5.48-1,.7-1.5a4.5,4.5,0,0,1,2.77,1l.12.1,0,0a6.68,6.68,0,0,1,1.34,1.61l.1.17A6.17,6.17,0,0,1,15,21a2,2,0,0,1,.1.21.91.91,0,0,1,.08.18,9.09,9.09,0,0,1,.53,1.6c0,.06,0,.13,0,.19A6.9,6.9,0,0,1,15.86,24.58Z" fill="#92bd55"/><path d="M13.34,27.57a1.05,1.05,0,0,1-.05.19,6.18,6.18,0,0,0,1.72.06c0-.07.08-.13.12-.21A6,6,0,0,1,13.34,27.57Zm.23-1.2a1.37,1.37,0,0,0,0,.19,8.87,8.87,0,0,0,2.06-.09l.06-.21a9.87,9.87,0,0,1-2.1.11Zm0-1.4c0,.07,0,.13,0,.19a9.77,9.77,0,0,0,2.28-.36v-.21a10.34,10.34,0,0,1-2.29.38ZM15.66,23a19.86,19.86,0,0,1-2.29.77c0,.06,0,.13.05.19a18.72,18.72,0,0,0,2.29-.78c0-.06,0-.12,0-.19Zm-.6-1.79a22.86,22.86,0,0,1-2.14,1.24,1.42,1.42,0,0,0,.08.18,22.76,22.76,0,0,0,2.14-1.23c0-.07-.05-.13-.08-.19Zm-.58-1.09a10.7,10.7,0,0,1-2.2,1.21l.11.16a11,11,0,0,0,2.2-1.21l-.11-.16ZM13.11,18.5,13,18.4l-1.68,1.78.14.14,1.69-1.8Z" fill="#658539"/><path d="M11.08,18.4a1.49,1.49,0,0,1-2,.08,1.41,1.41,0,0,1,.09-1.89,1.15,1.15,0,0,1,1.72,0,1.52,1.52,0,0,1,.49,1A1.09,1.09,0,0,1,11.08,18.4Z" fill="#cbdd59"/><path d="M11.08,18.4a1.49,1.49,0,0,1-2,.08A1.27,1.27,0,0,1,8.89,17a.89.89,0,0,0,.13.57,1.56,1.56,0,0,0,.57.51,1.49,1.49,0,0,0,.67.2A1.18,1.18,0,0,0,11,18a1.43,1.43,0,0,0,.35-.42A1.1,1.1,0,0,1,11.08,18.4Z" fill="#dce0bf"/><path d="M12.76,19.63a1.24,1.24,0,0,1-1.67.07,1.07,1.07,0,0,1-.16-1.25,1.56,1.56,0,0,1,.23-.34,1,1,0,0,1,1.45,0A1.29,1.29,0,0,1,13,19,.87.87,0,0,1,12.76,19.63Z" fill="#cbdd59"/><path d="M12.76,19.63a1.24,1.24,0,0,1-1.67.07,1.07,1.07,0,0,1-.16-1.25.74.74,0,0,0,.11.48,1.25,1.25,0,0,0,.48.43,1.22,1.22,0,0,0,.56.17.94.94,0,0,0,.64-.24A1.05,1.05,0,0,0,13,19,.87.87,0,0,1,12.76,19.63Z" fill="#dce0bf"/><path d="M10.81,19.85a1,1,0,0,1-1.33,0,.84.84,0,0,1-.12-1,1.27,1.27,0,0,1,.18-.27.78.78,0,0,1,1.15,0,1,1,0,0,1,.32.66A.74.74,0,0,1,10.81,19.85Z" fill="#cbdd59"/><path d="M10.81,19.85a1,1,0,0,1-1.33,0,.84.84,0,0,1-.12-1,.71.71,0,0,0,.08.38,1.12,1.12,0,0,0,.38.34,1,1,0,0,0,.45.14.78.78,0,0,0,.51-.19A1,1,0,0,0,11,19.3.74.74,0,0,1,10.81,19.85Z" fill="#dce0bf"/><path d="M81.25,43s-1.33,2.55-6.48,1.64c0,0-.16-.23-.43-.67l-.42-.7-.45-.79c-.22-.42-.47-.88-.73-1.4l-.36-.74-.45-1c-.15-.33-.3-.67-.44-1s-.34-.8-.52-1.23l-.27-.7q-.26-.64-.51-1.35c0-.15-.1-.29-.16-.44s-.2-.57-.3-.87-.13-.37-.19-.57h0l-.42-1.32c-.05-.17-.1-.33-.14-.5-.15-.48-.28-1-.42-1.46-.06-.22-.11-.44-.17-.66h0c-.11-.44-.23-.88-.33-1.34,0-.13-.06-.25-.1-.38-.07-.34-.15-.67-.22-1,0-.2-.09-.39-.13-.59-.07-.37-.15-.74-.22-1.13,0-.19-.07-.38-.11-.58-.07-.37-.13-.74-.19-1.12,0-.16-.06-.32-.08-.49-.29-1.78-.52-3.66-.67-5.64l1.94,0a27,27,0,0,0,.55,3.87A42.36,42.36,0,0,0,81.25,43Z" fill="#ccaa4a"/><path d="M76.85,42.87a11.57,11.57,0,0,1-2.93.41c-.14-.23-.28-.5-.45-.79A13.8,13.8,0,0,0,76.85,42.87Z" fill="#fad66b"/><path d="M75.25,40.86a16.25,16.25,0,0,1-2.5.23c-.12-.23-.24-.48-.37-.74A8.27,8.27,0,0,0,75.25,40.86Z" fill="#fad66b"/><path d="M74.25,39.15a7.88,7.88,0,0,1-2.31.25c-.15-.32-.3-.65-.45-1A6.34,6.34,0,0,0,74.25,39.15Z" fill="#fad66b"/><path d="M73,36.81a5.48,5.48,0,0,1-2,.35c-.09-.22-.19-.45-.28-.69A5.53,5.53,0,0,0,73,36.81Z" fill="#fad66b"/><path d="M71.8,34.84a4.2,4.2,0,0,1-1.61.28c0-.15-.1-.3-.16-.45A4.83,4.83,0,0,0,71.8,34.84Z" fill="#fad66b"/><path d="M71.41,33.3a4.49,4.49,0,0,1-1.68.51c-.06-.19-.13-.38-.19-.57A3.71,3.71,0,0,0,71.41,33.3Z" fill="#fad66b"/><path d="M70.53,31.78a3.32,3.32,0,0,1-1.4.13l-.15-.5A3.76,3.76,0,0,0,70.53,31.78Z" fill="#fad66b"/><path d="M70.07,29.72a2.36,2.36,0,0,1-1.5.23l-.18-.65A3.09,3.09,0,0,0,70.07,29.72Z" fill="#fad66b"/><path d="M69.25,27.78a2.22,2.22,0,0,1-1.19.18L68,27.57A2.55,2.55,0,0,0,69.25,27.78Z" fill="#fad66b"/><path d="M68.87,26.53a2.07,2.07,0,0,1-1.13,0L67.62,26A2.42,2.42,0,0,0,68.87,26.53Z" fill="#fad66b"/><path d="M68.55,24.67a2,2,0,0,1-1.16.17c0-.19-.07-.39-.11-.58A2.61,2.61,0,0,0,68.55,24.67Z" fill="#fad66b"/><path d="M68.14,23a2,2,0,0,1-1,.17c0-.17,0-.33-.08-.5A3.2,3.2,0,0,0,68.14,23Z" fill="#fad66b"/><path d="M81.25,43s-1.33,2.55-6.48,1.64c0,0-.16-.23-.43-.67a5.1,5.1,0,0,0,1.94.14,1.9,1.9,0,0,0,1.6-1.39,2.94,2.94,0,0,0-.9-2.19,41,41,0,0,1-8.15-19.66A42.35,42.35,0,0,0,81.25,43Z" fill="#e0cdc2"/><path d="M67.59,18.37c-.46.27-1,.54-1.43.82a14.66,14.66,0,0,0-1.3-1.06,4.22,4.22,0,0,1,.72-1l-1.5.47-.81-.5A3.65,3.65,0,0,1,63.84,16l-1.13.8c-.24-.13-.49-.25-.74-.37.1-.55.19-1.1.28-1.66a15.83,15.83,0,0,1-1,1.34l-.78-.34.36-1.84-1.26,1.5-.57-.2L58.5,15c0-.62,0-1.25.06-1.88l-.75,1.67-.7-.19c.13-.6.26-1.2.4-1.8a15.92,15.92,0,0,1-.91,1.67h0L56,14.37h0c.09-.51.18-1,.25-1.55a13.83,13.83,0,0,1-1.2,1.34h0l-1-.21c.08-.53.17-1,.26-1.58l-1.13,1.4h0L51,13.37a10.79,10.79,0,0,1,16.56,5Z" fill="#658539"/><path d="M81.17,6.53l-1,.68-.2.14-.62.42h0L77.75,7l.88,1.33-.43.3L78,8.7l-.25.18h0a13.55,13.55,0,0,1-1.65-.73c.28.44.58.88.86,1.31h0l-.09.07-.16.13-.21.16h0A14.34,14.34,0,0,1,75,8.65c.36.5.73,1,1.1,1.49l-.24.19-.16.13-.17.14-1-.87-.4-.35.1.18c.26.5.49,1,.71,1.52l-.26.22-.14.14h0l-.44.41L72.4,11l1.08,1.54-.23.23-.13.15a2.73,2.73,0,0,0-.23.25c-.5-.26-1-.53-1.43-.83.3.47.61.94.92,1.41l-.1.12-.13.15-.29.36-1.36-.27a3.66,3.66,0,0,1,1,.79l-.12.15-.11.16c-.11.16-.22.31-.32.47l-1.56.17a4.43,4.43,0,0,1,1.07.63c-.09.14-.17.29-.25.43l-.09.17c-.15.3-.3.59-.43.89-.53-.06-1.11-.1-1.63-.17a10.26,10.26,0,0,1,.15-2.59,2.38,2.38,0,0,1,0-.26c.07-.33.15-.66.25-1l.06-.19A12,12,0,0,1,69,12.51l.09-.18a10.32,10.32,0,0,1,.88-1.5l.11-.16a11.09,11.09,0,0,1,1-1.23l.15-.15a6.42,6.42,0,0,1,.48-.43c.12-.11.25-.21.38-.31l.18-.14a11.38,11.38,0,0,1,1.48-.92l.21-.1c.25-.12.51-.23.77-.33L75.1,7a10,10,0,0,1,1.32-.39c.21,0,.43-.1.65-.13A10.88,10.88,0,0,1,81.17,6.53Z" fill="#92bd55"/><path d="M69.11,12.33l-.08.18A14.35,14.35,0,0,1,72.14,14l.13-.15A14.61,14.61,0,0,0,69.11,12.33Zm1-1.66-.12.16a14.17,14.17,0,0,1,3.13,2.07l.13-.14A13.74,13.74,0,0,0,70.11,10.67ZM71.3,9.29l-.15.15a14,14,0,0,1,3.45,2l.15-.14A14.69,14.69,0,0,0,71.3,9.29ZM74,7.39l-.21.1a23.75,23.75,0,0,1,2.92,2.17l.16-.12A23.08,23.08,0,0,0,74,7.39ZM75.09,7l-.3.11A10.48,10.48,0,0,1,78,8.7l.16-.12a10.54,10.54,0,0,0-3.11-1.64Zm-6.55,6.81a1.39,1.39,0,0,0-.06.19,16.64,16.64,0,0,1,2.76,1.24l.11-.16a17.29,17.29,0,0,0-2.81-1.27Zm-.31,1.17-.06.26a8.73,8.73,0,0,0,1.92,1.87l.09-.17a8.84,8.84,0,0,1-2-2Zm4.11-6.52-.18.14a18,18,0,0,1,2.13,1l.3.17c.39.23.77.48,1.14.73l.16-.13A17.64,17.64,0,0,0,72.34,8.41Zm4.72-2c-.22,0-.44.08-.65.13A13.27,13.27,0,0,1,80,7.35l.2-.14A14,14,0,0,0,77.06,6.43Z" fill="#658539"/><path d="M73.21,1.57C72.8,2,72.38,2.48,72,3l-.13.18c-.13.15-.24.31-.36.47A6.43,6.43,0,0,1,70,3.7a10.69,10.69,0,0,1,1.16.44c-.21.32-.43.64-.63,1a1.74,1.74,0,0,0-.11.18c-.07.11-.14.22-.2.33L68.1,5.36l1.66,1c-.13.23-.25.46-.36.68L67.69,7l1.41.72L69,7.81,69,8c-.09.21-.17.42-.24.62l-2.56.05a12.73,12.73,0,0,0,2.2,1.14c0,.13-.06.25-.08.38a1.18,1.18,0,0,0,0,.2l-.06.37a9.57,9.57,0,0,1-2.27.07,15.26,15.26,0,0,0,2.17.8c0,.21,0,.43,0,.65v.35l-2.19.28a7.61,7.61,0,0,1,2.2.58l0,.62a1.36,1.36,0,0,0,0,.2c0,.14,0,.28,0,.42l-.59.29-.25.15a6.54,6.54,0,0,0-.71.45c.58.07,1.13.16,1.7.28q.06.43.15.87c0,.07,0,.14,0,.21.07.34.14.68.22,1a8.91,8.91,0,0,0-2.28.83,10.55,10.55,0,0,1-1.47-2.7c0-.07,0-.15-.08-.23a11,11,0,0,1-.44-1.71c0-.08,0-.16,0-.23,0-.29-.08-.58-.1-.88,0-.07,0-.14,0-.21a10.27,10.27,0,0,1,0-1.57,1.49,1.49,0,0,1,0-.21,10,10,0,0,1,.26-1.43,1.05,1.05,0,0,1,0-.19A9.93,9.93,0,0,1,65,8.37c.1-.25.21-.5.33-.74a1.74,1.74,0,0,1,.1-.19,11,11,0,0,1,1.82-2.57l.17-.18a11.47,11.47,0,0,1,2.3-1.81L70,2.71A10.18,10.18,0,0,1,73.21,1.57Z" fill="#92bd55"/><path d="M68.42,16.75a1.55,1.55,0,0,1,0,.21c-1.18-.23-2.36-.51-3.52-.84a2.09,2.09,0,0,1-.08-.23C66,16.23,67.22,16.52,68.42,16.75Z" fill="#658539"/><path d="M67.53,15a2,2,0,0,0-.25.14,22,22,0,0,1-2.87-1l0-.24A20.5,20.5,0,0,0,67.53,15Z" fill="#658539"/><path d="M68.06,14.09a1.65,1.65,0,0,0,0,.21,35.81,35.81,0,0,1-3.8-1.23,1.55,1.55,0,0,1,0-.22l.89.34C66.11,13.53,67.08,13.83,68.06,14.09Z" fill="#658539"/><path d="M68,12.27v.2a18.07,18.07,0,0,1-3.74-1.18,1.49,1.49,0,0,0,0-.21A18.11,18.11,0,0,0,68,12.27Z" fill="#658539"/><path d="M68.28,10.18a1.42,1.42,0,0,0,0,.2l-3.67-.73c0-.07,0-.13.05-.19Z" fill="#658539"/><path d="M69,7.81c0,.06-.05.12-.08.19a29.89,29.89,0,0,0-3.65-.37,1.74,1.74,0,0,1,.1-.19l1,0C67.28,7.56,68.17,7.67,69,7.81Z" fill="#658539"/><path d="M70.5,5.1a1.74,1.74,0,0,0-.11.18,26,26,0,0,0-3.16-.41c0-.07.11-.12.17-.19A26.85,26.85,0,0,1,70.5,5.1Z" fill="#658539"/><path d="M72,3l-.13.18c-.71-.12-1.42-.22-2.14-.29L70,2.71C70.66,2.79,71.32,2.88,72,3Z" fill="#658539"/><path d="M79.83,15.39a5.33,5.33,0,0,1-.73-1c.09.33.17.67.23,1-.49,0-1,0-1.47,0l-.78-1.58.06,1.62-.64.06-.72-1.24c0,.45.09.88.14,1.32-.3,0-.58.1-.83.16L73.88,14A10.31,10.31,0,0,0,74.09,16q-.37.13-.75.3a7.55,7.55,0,0,1-1.08-1.55,12.45,12.45,0,0,0,.43,1.88c-.25.13-.48.27-.72.42l-1.2-1.4a6.26,6.26,0,0,1,.6,1.8c-.29.2-.56.41-.83.63a7.67,7.67,0,0,0-1.34-.68c.22.44.41.87.59,1.32q-.67.6-1.29,1.26a7.23,7.23,0,0,0-1.63-1.22A9.16,9.16,0,0,1,73.54,13a9.36,9.36,0,0,1,8.53,2.65A16.89,16.89,0,0,0,79.83,15.39Z" fill="#658539"/><path d="M62.85,28.68a4.45,4.45,0,0,0-.78-.72,6.15,6.15,0,0,0,.82.29c0-.4.09-.81.16-1.2l-1.23-.8,1.33.21.12-.52-1-.72,1.07.25c.07-.24.14-.46.22-.67l-1.33-1.17A8.87,8.87,0,0,1,64,24c.1-.2.21-.39.32-.58a6.23,6.23,0,0,0-1.17-1.06,10.72,10.72,0,0,1,1.5.55l.42-.55-1-1.13a5.08,5.08,0,0,0,1.43.68c.19-.21.39-.42.6-.62a6.33,6.33,0,0,1-.43-1.17c.34.22.68.43,1,.62.38-.33.77-.64,1.16-.93A6.26,6.26,0,0,1,67,18.35a7.63,7.63,0,0,0-5.45,4.9,7.76,7.76,0,0,0,1.31,7.3A14.59,14.59,0,0,1,62.85,28.68Z" fill="#658539"/><path d="M68.16,18.16c-.22.73-.42,1.47-.65,2.2a10.75,10.75,0,0,0-2-.28h-.32a10.21,10.21,0,0,1-.21-1c-.12.34-.23.69-.35,1h-.29l-.2,0-.33,0-.9-1.93c-.09.7-.15,1.4-.17,2.11l-.51.12-.19,0-.36.12A12.8,12.8,0,0,1,60.92,19c0,.61,0,1.22.1,1.82h0l-.44.19-.18.09-.19.1-1.53-1.53a18.07,18.07,0,0,0,.61,2.06l-.52.37-.16.12-.3.24a10.26,10.26,0,0,0-1.54-1.06l1,1.5a.57.57,0,0,0-.11.11l-.15.14-.27.29-1.52-1.12a16.38,16.38,0,0,0,.86,1.91c-.13.17-.26.35-.38.54a1.74,1.74,0,0,0-.11.18.22.22,0,0,0-.05.08c-.39-.25-.77-.51-1.14-.8l.78,1.43a8.94,8.94,0,0,0-.5,1.2c0,.08,0,.16-.07.25a5.21,5.21,0,0,0-.07,2.63A6.18,6.18,0,0,1,53.62,25a6.1,6.1,0,0,1,.17-.95c0-.14.06-.27.1-.4a8.73,8.73,0,0,1,.8-1.79l.15-.23a8.35,8.35,0,0,1,.6-.83l.13-.16.17-.19a9.35,9.35,0,0,1,.9-.88l.16-.12a10.51,10.51,0,0,1,1.51-1.06l.18-.1a12.68,12.68,0,0,1,1.43-.71A11.12,11.12,0,0,1,61,17.2l.19-.06a9.86,9.86,0,0,1,2.47-.44h.48a6.78,6.78,0,0,1,1,.1l.21,0A5.85,5.85,0,0,1,68.16,18.16Z" fill="#92bd55"/><path d="M53.79,24.09a9.58,9.58,0,0,0,1.37,3.06,2.33,2.33,0,0,1,.07-.25,9.42,9.42,0,0,1-1.33-3.21C53.86,23.82,53.82,24,53.79,24.09Zm.91-2.18A9.61,9.61,0,0,0,56.13,25l.12-.18a9.06,9.06,0,0,1-1.4-3.14A1.58,1.58,0,0,0,54.7,21.91Zm.75-1.07a14.69,14.69,0,0,0,2.11,2.34l.15-.13a14.1,14.1,0,0,1-2.13-2.37l-.13.16Zm1.2-1.22a25,25,0,0,0,2,2.64l.16-.12a26.75,26.75,0,0,1-2-2.65l-.16.13Zm1.67-1.19,2.09,2.7.18-.09-2.1-2.71-.18.1ZM61,17.21a31.28,31.28,0,0,1,1,3.28l.19-.06a31.34,31.34,0,0,0-1.06-3.28Zm2.65-.51c.2,1.13.37,2.26.5,3.4h.2c-.13-1.14-.3-2.27-.5-3.4Zm1.49.09a17.11,17.11,0,0,1,.19,3.28h.2a17.62,17.62,0,0,0-.17-3.25l-.22,0Z" fill="#658539"/><path d="M75.78,19h0l.16.13a6,6,0,0,1,1,1.05,1.09,1.09,0,0,1,.13.17,5.07,5.07,0,0,1,.61,1.09l.09.22a1.52,1.52,0,0,1,.09.28,4.42,4.42,0,0,1-.4,3.57A4,4,0,0,0,76.7,23a.91.91,0,0,0-.11-.16l-.09-.12c.12-.38.24-.75.37-1.13-.23.25-.47.49-.7.72a3,3,0,0,0-.25-.25l-.14-.14-.11-.1A12.12,12.12,0,0,0,76,20.34c-.32.33-.63.66-.94,1l-.25-.18-.16-.11,0,0,.54-1.21a7.18,7.18,0,0,0-1,1l-.42-.22-.18-.08-.2-.08c.08-.52.13-1,.16-1.56l-.89,1.3-.2-.06-.19,0L72.08,20h0c0-.44-.11-.87-.17-1.31a10,10,0,0,1-.35,1.22l-.32,0h-.48c-.11-.5-.24-1-.4-1.48-.13.5-.25,1-.38,1.5l-.26,0-.2,0h-.13L69,19.23c0,.26,0,.5,0,.76a7.46,7.46,0,0,0-1.6.51L66.64,19a4.4,4.4,0,0,1,2.5-1.55l.15,0h0a7,7,0,0,1,2.1-.07l.2,0a7,7,0,0,1,.8.14l.23,0,.19.05a8.76,8.76,0,0,1,1.58.57l.18.08A8.74,8.74,0,0,1,75.78,19Z" fill="#92bd55"/><path d="M76.59,22.83a.91.91,0,0,1,.11.16,6.08,6.08,0,0,0,1.11-1.32l-.09-.22A6.21,6.21,0,0,1,76.59,22.83Zm-.81-.92.14.14a10,10,0,0,0,1.2-1.69L77,20.19a10.25,10.25,0,0,1-1.21,1.72Zm-1.1-.86.16.1a10.41,10.41,0,0,0,1.12-2L75.8,19a10.28,10.28,0,0,1-1.12,2Zm-.26-2.86a18.11,18.11,0,0,1-.8,2.28l.18.09a19.29,19.29,0,0,0,.8-2.28l-.18-.09Zm-1.77-.62c-.07.82-.19,1.64-.34,2.45l.19.05a22.55,22.55,0,0,0,.34-2.45l-.19-.05Zm-1.22-.21a10.89,10.89,0,0,1-.4,2.47l.2,0a11.57,11.57,0,0,0,.4-2.47l-.2,0Zm-2.14.07-.15,0c.12.81.25,1.61.37,2.42l.2,0c-.12-.81-.25-1.62-.38-2.44Z" fill="#658539"/><path d="M68,19A1.49,1.49,0,0,1,66.8,20.6a1.26,1.26,0,0,1-1.29-.77,1.84,1.84,0,0,1-.15-.47,1.16,1.16,0,0,1,1-1.37,1.58,1.58,0,0,1,1.1.24A1.11,1.11,0,0,1,68,19Z" fill="#cbdd59"/><path d="M68,19A1.49,1.49,0,0,1,66.8,20.6a1.26,1.26,0,0,1-1.29-.77.88.88,0,0,0,.53.25,1.54,1.54,0,0,0,.76-.14,1.41,1.41,0,0,0,.57-.4,1.21,1.21,0,0,0,.25-.78,1.4,1.4,0,0,0-.11-.53A1.11,1.11,0,0,1,68,19Z" fill="#dce0bf"/><path d="M70,18.41a1.23,1.23,0,0,1-1,1.35,1,1,0,0,1-1.07-.64,1.06,1.06,0,0,1-.13-.39,1,1,0,0,1,.88-1.14,1.25,1.25,0,0,1,.92.2A.88.88,0,0,1,70,18.41Z" fill="#cbdd59"/><path d="M70,18.41a1.23,1.23,0,0,1-1,1.35,1,1,0,0,1-1.07-.64.73.73,0,0,0,.44.21,1.26,1.26,0,0,0,.63-.11,1.27,1.27,0,0,0,.48-.34,1,1,0,0,0,.21-.65,1.13,1.13,0,0,0-.1-.44A.92.92,0,0,1,70,18.41Z" fill="#dce0bf"/><path d="M68.94,20.08a1,1,0,0,1-.77,1.07.84.84,0,0,1-.86-.51,1,1,0,0,1-.1-.31.76.76,0,0,1,.7-.9,1,1,0,0,1,.73.16A.73.73,0,0,1,68.94,20.08Z" fill="#cbdd59"/><path d="M68.94,20.08a1,1,0,0,1-.77,1.07.84.84,0,0,1-.86-.51.61.61,0,0,0,.35.17,1.08,1.08,0,0,0,.5-.09.94.94,0,0,0,.38-.27.8.8,0,0,0,.17-.51,1.05,1.05,0,0,0-.08-.35A.7.7,0,0,1,68.94,20.08Z" fill="#dce0bf"/><path d="M20.64,30.1s-1.47,2.92,1.58,4a22.51,22.51,0,0,1,7.59-6.06A50.4,50.4,0,0,0,20.64,30.1Z" fill="#a08130"/><path d="M22.22,34.12s.39,2.24,4,2.35l3.63-8.41A23.28,23.28,0,0,0,22.22,34.12Z" fill="#c2414e"/><path d="M26.18,36.47s1.24,2.1,4.35,1.41a28.29,28.29,0,0,0-.72-9.82Z" fill="#a08130"/><path d="M30.53,37.88a2.76,2.76,0,0,0,3.52-1.19l-4.24-8.63S30.91,34.62,30.53,37.88Z" fill="#c2414e"/><path d="M30,27.66a35.07,35.07,0,0,0-6.78,20.1.29.29,0,0,0,.57,0A34.48,34.48,0,0,1,30.49,28C30.72,27.65,30.22,27.36,30,27.66Z" fill="#846a29"/><path d="M29.81,28.06s3.77,3.83,4.25,8.63a4,4,0,0,1-3.22-2.21Z" fill="#f2727c"/><path d="M24.89,31.05s-3,1-4.25-.95a14.93,14.93,0,0,1,9.17-2" fill="#fad66b"/><path d="M29.81,28.06s1.66,3.79,1,6.42c0,0-2.59.33-2.77-2Z" fill="#fad66b"/><path d="M24.89,31.05a2.74,2.74,0,0,0,3.17,1.41c.69-1.68,1.34-3.3,1.75-4.4C27.8,28.72,26.67,29.91,24.89,31.05Z" fill="#f2727c"/><path d="M37,42.5a4.4,4.4,0,0,1,.33-1.56,2.76,2.76,0,0,1,.89-1.21,1.48,1.48,0,0,1,1.45-.19,1.81,1.81,0,0,1,.89,1.1,13.28,13.28,0,0,1,.33,2,.1.1,0,0,1-.19,0c-.1-.54-.1-1.1-.23-1.64a1.9,1.9,0,0,0-.71-1.19,1.22,1.22,0,0,0-1.31,0,2.3,2.3,0,0,0-.88,1.07,4.27,4.27,0,0,0-.38,1.64.1.1,0,0,1-.13.06A.07.07,0,0,1,37,42.5Z" fill="#846a29"/><path d="M37.17,46.8A2.29,2.29,0,0,0,39.9,47l.23-.8,1-3.33a6.37,6.37,0,0,0-4.3-.29l.07.85Z" fill="#f6947d"/><path d="M41.4,42.69l-.27.69a8.49,8.49,0,0,0-4.4-.41l-.07-.86S39.54,41.49,41.4,42.69Z" fill="#c2414e"/><path d="M37.17,46.8A2.29,2.29,0,0,0,39.9,47l.23-.8-.24.11a1.32,1.32,0,0,1-.81.08,1.27,1.27,0,0,1-.66-.43,4.46,4.46,0,0,1-.44-.66L36.9,43.41Z" fill="#dcbeb8"/><path d="M40.78,46.46a.44.44,0,0,0-.61-.08.48.48,0,0,0-.15.22.28.28,0,0,0-.28-.19.45.45,0,0,0-.31.16,1.92,1.92,0,0,0-.18.31,1.35,1.35,0,0,0-.69-.33.45.45,0,0,0-.28,0,.39.39,0,0,0-.2.28.78.78,0,0,0,0,.34.3.3,0,0,0-.26,0,.33.33,0,0,0-.12.19,1,1,0,0,0,0,.24,4.37,4.37,0,0,0,2,0,1.85,1.85,0,0,0,.66-.29A2,2,0,0,0,40.78,46.46Z" fill="#fdf7d9"/><path d="M31.44,43.85s.87,3.07,2.59,2.49l.08,0c1.57-.65.1-3.38.1-3.38l-1,.33L32,40.11a1.45,1.45,0,0,0,.74-.48,1.52,1.52,0,0,0,.1-1.22.24.24,0,1,0-.46.16c0,.25.13.58-.05.8a1.63,1.63,0,0,1-.82.37,1.12,1.12,0,0,1-.88-.05.84.84,0,0,1-.4-.6.25.25,0,0,0-.25-.23.26.26,0,0,0-.23.26,1.35,1.35,0,0,0,.62,1,1.53,1.53,0,0,0,1.2.12l.89,3.28Z" fill="#fad66b"/><path d="M30.41,40.1a1.53,1.53,0,0,0,1.2.12l.89,3.28.36-.12-1.08-3.45a1.56,1.56,0,0,1-1.2,0,1.3,1.3,0,0,1-.66-1h0a.21.21,0,0,0-.09.2A1.38,1.38,0,0,0,30.41,40.1Z" fill="#dcbeb8"/><path d="M34,46.34l.08,0a2.29,2.29,0,0,1-1.37-.91A6.23,6.23,0,0,1,32,43.68l-.52.17S32.31,46.92,34,46.34Z" fill="#dcbeb8"/><polygon points="29.3 38.45 29.61 39.37 33.11 38.4 32.74 37.3 29.3 38.45" fill="#f6947d"/><path d="M29.44,38.86l.17.51,3.5-1L33,38l-2.17.59A6.91,6.91,0,0,1,29.44,38.86Z" fill="#dcbeb8"/><path d="M34.66,46.22a.3.3,0,0,0-.41-.12l-.07.06a.25.25,0,0,0-.18-.23.24.24,0,0,0-.28.08.58.58,0,0,0-.25-.5.33.33,0,0,0-.27-.07.31.31,0,0,0-.2.2.7.7,0,0,0,0,.29.36.36,0,0,0-.46-.12.38.38,0,0,0-.19.44,1.74,1.74,0,0,0,1.13.42A2,2,0,0,0,34.66,46.22Z" fill="#fdf7d9"/><path d="M46.74,46.08l0,.11a1.81,1.81,0,0,1-.78,1h0a1.57,1.57,0,0,1-.46.2l-.33.06H45a1.8,1.8,0,0,1-1.15-.45,1.89,1.89,0,0,1-.2-.2h0a1.83,1.83,0,0,1-.35-.66,2,2,0,0,1,0-.24s0-.08,0-.12v-.08h0a1.82,1.82,0,0,1,.89-1.6l.05,0a1.82,1.82,0,0,1,.85-.22h.07l.28,0a1.58,1.58,0,0,1,.31.09,1.74,1.74,0,0,1,.91.8,1.33,1.33,0,0,1,.11.24.88.88,0,0,1,.05.15A1.75,1.75,0,0,1,46.74,46.08Z" fill="#fad66b"/><path d="M45.93,47.23h0a1.57,1.57,0,0,1-.46.2l-.33.06a4,4,0,0,1-.55-3,.58.58,0,0,1,.26-.06,6.13,6.13,0,0,1,.8,1.38A4.3,4.3,0,0,1,45.93,47.23Z" fill="#f2727c"/><path d="M44.47,44.58a3,3,0,0,0-.69,1.22,2.31,2.31,0,0,0,0,1.25,1.26,1.26,0,0,1-.2-.2h0a1.83,1.83,0,0,1-.35-.66,2,2,0,0,1,0-.24,1.76,1.76,0,0,1,1.21-1.49A.67.67,0,0,1,44.47,44.58Z" fill="#f2727c"/><path d="M46.71,45.22a1.79,1.79,0,0,1,0,.86,2.37,2.37,0,0,0-.6-1A2.88,2.88,0,0,0,45,44.44s0-.09,0-.13a1.59,1.59,0,0,1,1.6.52,1.28,1.28,0,0,1,.11.24A.47.47,0,0,1,46.71,45.22Z" fill="#f2727c"/><path d="M45.05,43.91a1,1,0,0,0-.18.38,1.5,1.5,0,0,0-.37.05.69.69,0,0,0-.37-.21,1.79,1.79,0,0,1,.85-.22Z" fill="#f2727c"/><path d="M44.76,44.67a.28.28,0,0,1-.39-.15c0-.13.08-.28.26-.33a.32.32,0,0,1,.4.15C45.07,44.48,44.94,44.62,44.76,44.67Z" fill="#fdf7d9"/><path d="M46.74,46.08l0,.11a1.81,1.81,0,0,1-.78,1h0a1.57,1.57,0,0,1-.46.2l-.33.06H45a1.8,1.8,0,0,1-1.15-.45,1.89,1.89,0,0,1-.2-.2h0a1.83,1.83,0,0,1-.35-.66,2,2,0,0,1,0-.24s0-.08,0-.12a1.93,1.93,0,0,0,.89.78,1.68,1.68,0,0,0,1.48-.1,1.44,1.44,0,0,0,.66-1.3,1.57,1.57,0,0,0-.41-.87,2.28,2.28,0,0,0-.48-.39,1.81,1.81,0,0,1,.31.09,1.87,1.87,0,0,1,.91.8,2.56,2.56,0,0,1,.11.24c0,.05,0,.1.05.16A2,2,0,0,1,46.74,46.08Z" fill="#dcbeb8"/><ellipse cx="42.22" cy="48.08" rx="0.96" ry="0.31" fill="#d2c9a7"/><path d="M41.4,47.56c0,.09-.21.16-.48.16s-.48-.07-.48-.16.21-.15.48-.15S41.4,47.48,41.4,47.56Z" fill="#d2c9a7"/><path d="M43.62,47.39s-.13.1-.3.1-.3,0-.3-.1.13-.1.3-.1S43.62,47.34,43.62,47.39Z" fill="#d2c9a7"/><ellipse cx="32.65" cy="48.22" rx="0.96" ry="0.31" fill="#d2c9a7"/><path d="M33.46,48.74c0-.09.22-.16.49-.16s.48.07.48.16-.22.15-.48.15S33.46,48.82,33.46,48.74Z" fill="#d2c9a7"/><path d="M31.25,48.91c0-.06.13-.1.3-.1s.3,0,.3.1-.14.1-.3.1S31.25,49,31.25,48.91Z" fill="#d2c9a7"/><path d="M43.62,45.91c0-.09.22-.16.48-.16s.48.07.48.16-.21.15-.48.15S43.62,46,43.62,45.91Z" fill="#d2c9a7"/><path d="M49.15,45.17c0-.08.22-.15.48-.15s.48.07.48.15-.21.16-.48.16S49.15,45.26,49.15,45.17Z" fill="#d2c9a7"/><path d="M40.42,46.1c0-.09.22-.15.48-.15s.48.06.48.15-.21.15-.48.15S40.42,46.19,40.42,46.1Z" fill="#d2c9a7"/><path d="M34.46,45.43c0-.08.21-.15.48-.15s.48.07.48.15-.22.16-.48.16S34.46,45.52,34.46,45.43Z" fill="#d2c9a7"/><path d="M46.5,47.33c0-.08.21-.15.48-.15s.48.07.48.15-.21.16-.48.16S46.5,47.42,46.5,47.33Z" fill="#d2c9a7"/><path d="M46.71,45.83s.11-.08.24-.08.24,0,.24.08-.11.07-.24.07S46.71,45.87,46.71,45.83Z" fill="#d2c9a7"/><path d="M34.7,46.68s.11-.08.24-.08.24,0,.24.08-.11.07-.24.07S34.7,46.72,34.7,46.68Z" fill="#d2c9a7"/><path d="M16,47.9a2.29,2.29,0,0,1,1.29-1.28,10,10,0,0,1,1.22-.2,3.55,3.55,0,0,0,1.8-1.13c.3-.33.58-.68.9-1a2.1,2.1,0,0,1,1.16-.6,2.39,2.39,0,0,1,1.5.43,5.66,5.66,0,0,1,1.54,1.38,1.9,1.9,0,0,1,.48,1.07A1.84,1.84,0,0,1,25.05,48a4.05,4.05,0,0,1-2.27.75,5.41,5.41,0,0,0-2.48.16c-.51.27-.84.8-1.31,1.15a2.31,2.31,0,0,1-1.76.45,2.27,2.27,0,0,1-1.51-.88C15.47,49.23,15.85,48.31,16,47.9Z" fill="#396430"/><path d="M24.35,47.42a16.13,16.13,0,0,1-1.52-1.21l1.32-.55c.1,0,.05-.2,0-.16-.44.18-.89.36-1.32.55a9.32,9.32,0,0,1-.12-1.67c0-.11-.16-.1-.17,0a10,10,0,0,0,.12,1.73l-1,.44a5.78,5.78,0,0,1-.13-1.5c0-.1-.16-.1-.17,0a5.9,5.9,0,0,0,.15,1.57l-.8.38-.15-1.08c0-.1-.18-.1-.17,0,.05.38.1.75.16,1.12v0l-.75.38,0,0a3.62,3.62,0,0,1-.06-1,.09.09,0,0,0-.07-.1.07.07,0,0,0-.09.07h0a4.45,4.45,0,0,0,.07,1.15l-.9.49-.13-1.18c0-.11-.18-.1-.16,0,0,.42.08.84.13,1.26h0c-.26.14-.51.29-.76.44a4.7,4.7,0,0,1-.22-1.39c0-.11-.17-.1-.17,0a4.8,4.8,0,0,0,.24,1.46l-.74.45a6.37,6.37,0,0,1-.24-1.23c0-.1-.18-.1-.17,0a7.25,7.25,0,0,0,.27,1.31c-.36.22-.72.45-1.07.69-.75.5-1.49,1-2.22,1.57-.08.07,0,.21.1.14,1.06-.8,2.16-1.56,3.3-2.27a8.21,8.21,0,0,1,1.06.77c.09.07.2,0,.11-.12a6.78,6.78,0,0,0-1-.75l.5-.3.22-.13.9.71c.09.07.2-.06.11-.12l-.86-.68c.24-.14.48-.28.73-.41l.78.67c.08.07.2-.05.11-.12l-.74-.64.92-.5a7.11,7.11,0,0,0,.81.74c.09.06.2-.06.11-.13a7.16,7.16,0,0,1-.77-.69l.77-.39a9.41,9.41,0,0,0,1.3,1.13c.08.06.2-.07.11-.13a8.58,8.58,0,0,1-1.25-1.08l.84-.4A20.83,20.83,0,0,0,23.31,48c.09.06.17-.09.08-.15-.58-.35-1.13-.73-1.67-1.13l.94-.42a16,16,0,0,0,1.58,1.27C24.33,47.61,24.44,47.48,24.35,47.42Z" fill="#658539"/><path d="M5.57,43.26a4.41,4.41,0,0,1,.51-2.21c.3-.53.75-1,1-1.5a6.76,6.76,0,0,0,.45-3.1,4.08,4.08,0,0,1,.92-2.94,3.91,3.91,0,0,1,2-.87,3.63,3.63,0,0,1,2.14.06,2.53,2.53,0,0,1,1.39,2,4,4,0,0,1-.58,2.42,9.77,9.77,0,0,1-1.62,2,2.9,2.9,0,0,0-1,1.49,11.09,11.09,0,0,0,.09,1.4,2.53,2.53,0,0,1-.77,1.63,6.34,6.34,0,0,1-1.51,1c-.62.34-1.25.65-1.89,1a1.87,1.87,0,0,1-.52.17c-.53,0-.45-.46-.52-.84A10,10,0,0,1,5.57,43.26Z" fill="#cbdd59"/><path d="M12.76,35.9a13,13,0,0,1-2.06-.2l.67-1.23a.09.09,0,0,0,0-.13.1.1,0,0,0-.12,0c-.24.42-.47.85-.7,1.27a15.48,15.48,0,0,1-1.24-1.32c-.08-.1-.22,0-.14.14a16.59,16.59,0,0,0,1.28,1.37c-.17.32-.34.64-.5,1q-.54-.6-1.11-1.17a.1.1,0,0,0-.14.14c.4.4.78.81,1.15,1.22l-.45.9c-.26-.35-.53-.68-.82-1a.1.1,0,0,0-.14.14c.3.35.59.7.86,1.07L8.83,39l-.64-.69a.1.1,0,0,0-.14.14l.68.74s0,0,0,0c-.13.26-.25.53-.37.8a4.91,4.91,0,0,0-.43-.48.09.09,0,0,0-.14,0,.09.09,0,0,0,0,.12,3.07,3.07,0,0,1,.25.26l.12.14h0v0l0,0,.06.08h0c-.14.3-.27.61-.4.91l-.59-.65a.11.11,0,0,0-.14,0,.11.11,0,0,0,0,.14l0,0,.65.71c-.13.28-.25.57-.36.85l-.84-.9c-.09-.1-.22.05-.14.14l.89,1c-.11.28-.23.56-.34.85l-.64-.71a.11.11,0,0,0-.14,0,.11.11,0,0,0,0,.14l0,0c.23.26.46.52.7.77l-.31.78c-.37,1-.71,1.91-1,2.88,0,.12.15.17.19,0,.42-1.24.87-2.47,1.36-3.69L9,43.51c.13,0,.13-.19,0-.2l-1.81-.08.33-.82,2.06.05a.1.1,0,0,0,.1-.1.09.09,0,0,0-.1-.1l-2,0,.06-.14.3-.7a11.49,11.49,0,0,0,2,.15.1.1,0,0,0,.1-.1.09.09,0,0,0-.1-.1,11.63,11.63,0,0,1-2-.14l.41-.92,1.5,0a.1.1,0,0,0,.1-.1.11.11,0,0,0-.1-.1l-1.41,0c.12-.27.25-.54.38-.81h1.52a.1.1,0,1,0,0-.2H9c.14-.3.29-.6.43-.89.57,0,1.14,0,1.7,0a.1.1,0,0,0,0-.2c-.53,0-1.07,0-1.6,0l.41-.81.05-.1h0l2,0a.09.09,0,0,0,.1-.1.1.1,0,0,0-.1-.1l-1.87,0,.51-1h0a14.12,14.12,0,0,0,2.15.22.1.1,0,0,0,.07-.12A.11.11,0,0,0,12.76,35.9Z" fill="#b3c635"/><path d="M18,40.68a.64.64,0,0,0-.42-.48.77.77,0,0,0-.66.34A13,13,0,0,0,14.75,44,6.43,6.43,0,0,0,15,42.72a1.56,1.56,0,0,0,0-.61.6.6,0,0,0-.44-.39c-.33,0-.58.3-.73.6a11.16,11.16,0,0,0-1,2.73,27.53,27.53,0,0,0,.32-5.59c0-.28-.07-.63-.34-.72a.56.56,0,0,0-.58.24,2.43,2.43,0,0,0-.43,1.5A46.21,46.21,0,0,0,12,47.92h1.74a28.05,28.05,0,0,0,3.82-5A2.89,2.89,0,0,0,18,40.68Z" fill="#92bd55"/><path d="M12.56,39.71a.1.1,0,0,0-.2,0c-.13,2-.2,4.08-.2,6.12,0,.58,0,1.16,0,1.74a.09.09,0,0,0,.1.1.1.1,0,0,0,.1-.1q-.06-3.06.08-6.12C12.49,40.87,12.52,40.29,12.56,39.71Z" fill="#658539"/><path d="M14.33,42.55l-1.41,4.51a.1.1,0,0,0,.19.06l1.41-4.52C14.56,42.48,14.36,42.43,14.33,42.55Z" fill="#658539"/><path d="M17.17,41.39,14.4,45.9l-.79,1.29c-.07.11.1.21.17.1l2.77-4.51.79-1.29C17.41,41.38,17.24,41.28,17.17,41.39Z" fill="#658539"/><path d="M-.22,41a30.24,30.24,0,0,1-.1-4.36A9.87,9.87,0,0,1,.85,32.45c.2-.34.53-.71.9-.61s.49.51.53.87a15.46,15.46,0,0,1-.93,6.18A10.73,10.73,0,0,1,2.71,35c.14-.22.38-.48.62-.37s.22.36.2.58a20.71,20.71,0,0,1-.83,4.1,3.16,3.16,0,0,1,.59-1.17A.34.34,0,0,1,3.53,38a.25.25,0,0,1,.24.21.78.78,0,0,1,0,.34A8.44,8.44,0,0,1,2.3,40.92C1.43,40.91.65,41-.22,41Z" fill="#cbdd59"/><path d="M1.5,33.09c0-.13-.17-.18-.19-.06a35.75,35.75,0,0,0-.55,5.74c0,.55,0,1.09,0,1.64a.1.1,0,0,0,.2,0,36.3,36.3,0,0,1,.28-5.71C1.32,34.16,1.41,33.62,1.5,33.09Z" fill="#b3c635"/><path d="M2.79,35.93,1.45,40.44a.1.1,0,0,0,.08.12.11.11,0,0,0,.11-.07L3,36a.1.1,0,0,0-.08-.12A.09.09,0,0,0,2.79,35.93Z" fill="#b3c635"/><path d="M3.1,38.93A14.59,14.59,0,0,1,2,40.44c-.08.1.06.24.14.14A13.93,13.93,0,0,0,3.27,39C3.34,38.92,3.16,38.82,3.1,38.93Z" fill="#b3c635"/><path d="M19.64,50.94l-.44,0a76,76,0,0,0-10.77-.58c0-.69,0-1.41.06-2.12,0-.36,0-.71,0-1.06a4.38,4.38,0,0,1,1.12-1A1.58,1.58,0,0,1,11.08,46a2.35,2.35,0,0,1,1,1.33,2,2,0,0,1,2.29-.81,1.93,1.93,0,0,1,1.21,2.08,4.18,4.18,0,0,1,1-.63,1.15,1.15,0,0,1,1.05,0A1.49,1.49,0,0,1,18.25,49a1,1,0,0,1,1.21.53A2.84,2.84,0,0,1,19.64,50.94Z" fill="#cbdd59"/><path d="M13.38,47.91a.25.25,0,0,0,0,.5A.25.25,0,0,0,13.38,47.91Z" fill="#b3c635"/><path d="M14,47.8a.1.1,0,1,0,0,.2.1.1,0,0,0,0-.2Z" fill="#b3c635"/><path d="M14.19,48.33a.2.2,0,0,0,0,.4A.2.2,0,0,0,14.19,48.33Z" fill="#b3c635"/><path d="M12.27,48.5a.15.15,0,1,0,0,.3h0a.15.15,0,0,0,0-.3Z" fill="#b3c635"/><path d="M12.43,49a.25.25,0,0,0,0,.5A.25.25,0,0,0,12.43,49Z" fill="#b3c635"/><path d="M12.92,48.81a.15.15,0,0,0-.15.15.15.15,0,0,0,.15.15.15.15,0,0,0,.15-.15A.14.14,0,0,0,12.92,48.81Z" fill="#b3c635"/><path d="M17.1,49.2a.15.15,0,1,0,.15.15A.15.15,0,0,0,17.1,49.2Z" fill="#b3c635"/><path d="M17.57,49.56a.25.25,0,0,0,0,.5A.25.25,0,0,0,17.57,49.56Z" fill="#b3c635"/><path d="M16.33,49.34a.15.15,0,1,0,0,.3.15.15,0,0,0,0-.3Z" fill="#b3c635"/><path d="M17.13,48.26a.1.1,0,1,0,0,.2.1.1,0,1,0,0-.2Z" fill="#b3c635"/><path d="M17.51,48.47a.1.1,0,0,0-.1.1.1.1,0,1,0,.2,0A.1.1,0,0,0,17.51,48.47Z" fill="#b3c635"/><path d="M11.06,46.75a.2.2,0,0,0,0,.4A.2.2,0,0,0,11.06,46.75Z" fill="#b3c635"/><path d="M18.75,49.71a.15.15,0,1,0,.15.15A.15.15,0,0,0,18.75,49.71Z" fill="#b3c635"/><path d="M19.2,50.89a76,76,0,0,0-10.77-.58c0-.69,0-1.41.06-2.12a3.85,3.85,0,0,1,.95-.53,1.91,1.91,0,0,1,.9-.2,1.52,1.52,0,0,1,.92.53,4.16,4.16,0,0,1,.57.92,1.69,1.69,0,0,1,1.19-1,1.58,1.58,0,0,1,1.89,1.2,1.63,1.63,0,0,1,0,.66,4.55,4.55,0,0,1,.94-.53,1.55,1.55,0,0,1,1-.06l.11,0a1.14,1.14,0,0,1,.23.15,1.3,1.3,0,0,1,.19.22.77.77,0,0,1,.12.35,1.23,1.23,0,0,1,.26-.12,1.07,1.07,0,0,1,.82.1l.09.06h0a1.38,1.38,0,0,1,.4.6A2.29,2.29,0,0,1,19.2,50.89Z" fill="#dce0bf"/><path d="M11,48.43a8.16,8.16,0,0,1-.5,2.13l-1-.1a78.22,78.22,0,0,0-10-.32c-.28-2.39-.83-5.06-.56-7.5a8.68,8.68,0,0,1,.43-2A2,2,0,0,1,.83,39.43a2,2,0,0,1,1.8.6,3.06,3.06,0,0,1,.64,2.06,20.24,20.24,0,0,0,0,2.2,2.15,2.15,0,0,1,1-1,.54.54,0,0,1,.41-.08c.18.05.27.24.33.41A2.75,2.75,0,0,1,5,45.07a2.41,2.41,0,0,1,.66-.38,1,1,0,0,1,.79-.06,1.06,1.06,0,0,1,.57.77,3,3,0,0,1,0,1,2.71,2.71,0,0,1,1.92-.28,1.31,1.31,0,0,1,.8,1.67l0,.07a1.92,1.92,0,0,1,.57-.24.61.61,0,0,1,.57,0A.83.83,0,0,1,11,48.43Z" fill="#92bd55"/><path d="M1.51,41.33a.35.35,0,0,0,0,.7A.35.35,0,0,0,1.51,41.33Z" fill="#658539"/><path d="M1.71,42.21a.2.2,0,0,0,0,.4A.2.2,0,0,0,1.71,42.21Z" fill="#658539"/><path d="M1.34,43.82a.2.2,0,0,0,0,.4A.2.2,0,0,0,1.34,43.82Z" fill="#658539"/><path d="M2.38,44.63a.35.35,0,0,0,0,.7A.35.35,0,0,0,2.38,44.63Z" fill="#658539"/><path d="M2.67,45.58a.25.25,0,0,0,0,.5A.25.25,0,0,0,2.67,45.58Z" fill="#658539"/><path d="M5,46a.25.25,0,0,0,0,.5A.25.25,0,0,0,5,46Z" fill="#658539"/><path d="M4.35,46.49a.09.09,0,0,0-.1.1.1.1,0,0,0,.1.1.11.11,0,0,0,.1-.1A.1.1,0,0,0,4.35,46.49Z" fill="#658539"/><path d="M5,46.76a.15.15,0,1,0,.15.15A.15.15,0,0,0,5,46.76Z" fill="#658539"/><path d="M7.74,47.68a.15.15,0,0,0-.15.15.15.15,0,0,0,.3,0A.15.15,0,0,0,7.74,47.68Z" fill="#658539"/><path d="M7.14,46.91a.3.3,0,0,0,0,.6A.3.3,0,0,0,7.14,46.91Z" fill="#658539"/><path d="M8.11,46.93a.25.25,0,0,0,0,.5A.25.25,0,0,0,8.11,46.93Z" fill="#658539"/><path d="M9.62,48.57a.2.2,0,0,0,0,.4A.2.2,0,0,0,9.62,48.57Z" fill="#658539"/><path d="M9.16,48.23a.1.1,0,0,0,0,.2.1.1,0,0,0,0-.2Z" fill="#658539"/><path d="M8.38,49a.15.15,0,1,0,0,.3.15.15,0,0,0,0-.3Z" fill="#658539"/><path d="M3.82,47.56a.15.15,0,1,0,.15.15A.15.15,0,0,0,3.82,47.56Z" fill="#658539"/><path d="M4.37,47.87a.25.25,0,0,0,0,.5A.25.25,0,0,0,4.37,47.87Z" fill="#658539"/><path d="M9.89,49.55a5,5,0,0,1-.31.92,76.67,76.67,0,0,0-10-.33c-.28-2.39-.83-5.06-.56-7.5A1.81,1.81,0,0,1-.27,42a1.73,1.73,0,0,1,1.8.22l.08.07a1.81,1.81,0,0,1,.25.3,4.56,4.56,0,0,1,.42.86,14.17,14.17,0,0,1,.83,3.21A3.05,3.05,0,0,1,3.28,46a.52.52,0,0,1,.53-.35.45.45,0,0,1,.32.22,1.14,1.14,0,0,1,.15.36l.06.31,0,.2a3.62,3.62,0,0,1,0,.93,1.48,1.48,0,0,1,.65-1,.52.52,0,0,1,.52-.09.57.57,0,0,1,.22.37,5.22,5.22,0,0,1,.07,1.31,3,3,0,0,1,1.59-.7,1,1,0,0,1,.69.12.75.75,0,0,1,.25.7,2.32,2.32,0,0,1-.27.72,2.32,2.32,0,0,1,1.29-.35h.06a.6.6,0,0,1,.34.11s0,0,0,0A.74.74,0,0,1,9.89,49.55Z" fill="#bed8b7"/><path d="M-1,50.11A27.73,27.73,0,0,1,.11,46.22a9.22,9.22,0,0,1,2.17-3.38c.26-.24.65-.48,1-.3s.28.59.23.92A14.32,14.32,0,0,1,1,48.7a9.91,9.91,0,0,1,2.26-3.11c.18-.16.46-.32.65-.16s.1.38,0,.57a18.17,18.17,0,0,1-1.85,3.41,3.16,3.16,0,0,1,.84-.87.32.32,0,0,1,.26-.09.25.25,0,0,1,.16.26.7.7,0,0,1-.13.29,7.83,7.83,0,0,1-1.92,1.75C.5,50.51-.2,50.35-1,50.11Z" fill="#cbdd59"/><path d="M2.68,43.58c0-.1-.1-.2-.16-.1a33.9,33.9,0,0,0-2,5c-.15.48-.29,1-.43,1.46a.09.09,0,0,0,.18,0A32.59,32.59,0,0,1,2,45C2.23,44.49,2.45,44,2.68,43.58Z" fill="#b3c635"/><path d="M3.05,46.45.65,50.09a.09.09,0,0,0,.15.1l2.41-3.64A.09.09,0,0,0,3.05,46.45Z" fill="#b3c635"/><path d="M2.52,49.2a13.57,13.57,0,0,1-1.35,1c-.1.07,0,.23.09.17a14.25,14.25,0,0,0,1.38-1.08C2.73,49.26,2.61,49.12,2.52,49.2Z" fill="#b3c635"/><path d="M11,50.1a.66.66,0,0,0,.14-.62.77.77,0,0,0-.67-.34,13.34,13.34,0,0,0-4,.26,5.42,5.42,0,0,0,1.16-.5,1.64,1.64,0,0,0,.47-.4.58.58,0,0,0,0-.58c-.16-.29-.58-.3-.91-.24a11.3,11.3,0,0,0-2.79.81,27.92,27.92,0,0,0,4.72-3c.22-.17.46-.42.38-.7A.58.58,0,0,0,9,44.42,2.54,2.54,0,0,0,7.5,45,59.66,59.66,0,0,0,.93,50c.3.44,1.36.45,1.67.88A28.17,28.17,0,0,0,8.89,51,3,3,0,0,0,11,50.1Z" fill="#396430"/><path d="M8.58,45.13c.1-.07,0-.23-.12-.16Q5.88,46.62,3.4,48.42l-1.4,1c-.1.07,0,.23.12.16,1.63-1.23,3.29-2.41,5-3.54Z" fill="#658539"/><path d="M7.32,48.24,2.84,49.75c-.12,0,0,.23.07.19l4.48-1.52A.1.1,0,0,0,7.32,48.24Z" fill="#658539"/><path d="M9.93,49.85l-5.27.42-1.51.12a.09.09,0,0,0-.09.11.1.1,0,0,0,.11.09l5.27-.42L10,50.05a.09.09,0,0,0,.09-.11A.09.09,0,0,0,9.93,49.85Z" fill="#658539"/><path d="M59.13,45.48a2.3,2.3,0,0,1-1.71-.62,12.24,12.24,0,0,1-.7-1,3.63,3.63,0,0,0-1.78-1.15c-.43-.14-.86-.23-1.27-.4a2.12,2.12,0,0,1-1-.8A2.33,2.33,0,0,1,52.38,40a5.75,5.75,0,0,1,.6-2,1.92,1.92,0,0,1,.76-.88,1.84,1.84,0,0,1,1.68.17A4.05,4.05,0,0,1,57.06,39c.37.75.53,1.67,1.19,2.17a10.34,10.34,0,0,0,1.6.7A2.31,2.31,0,0,1,61,43.27,2.29,2.29,0,0,1,60.85,45C60.57,45.43,59.58,45.48,59.13,45.48Z" fill="#92bd55"/><path d="M55.17,38.15a17.53,17.53,0,0,1-.46,1.9c-.35-.32-.71-.64-1.05-1-.08-.08-.2,0-.12.11.34.33.69.66,1.05,1a9.1,9.1,0,0,1-1.46.82c-.1,0,0,.19.08.14a8.93,8.93,0,0,0,1.51-.84l.83.71a5.67,5.67,0,0,1-1.3.76c-.1,0,0,.19.08.15a5.59,5.59,0,0,0,1.35-.8l.69.57-.91.59c-.09.06,0,.21.08.15l.94-.62,0,0,.67.52,0,0a3.57,3.57,0,0,1-.92.5.08.08,0,1,0,0,.16h0a4,4,0,0,0,1-.55l.82.61-1,.62c-.09.05,0,.2.08.15l1.08-.66h0l.72.5a5.06,5.06,0,0,1-1.16.79c-.1,0,0,.2.07.14a4.67,4.67,0,0,0,1.23-.83l.72.48a6.46,6.46,0,0,1-1,.74c-.1.06,0,.21.08.15a6.27,6.27,0,0,0,1.06-.8l1.08.68c.77.47,1.56.91,2.36,1.34.1,0,.19-.09.09-.14-1.18-.63-2.33-1.3-3.45-2a7,7,0,0,1,.24-1.29.07.07,0,0,0,0-.1.08.08,0,0,0-.11,0h0A8.76,8.76,0,0,0,60,44.07l-.48-.32-.21-.14.25-1.13a.08.08,0,0,0-.16,0l-.25,1.06L58.43,43l.28-1a.08.08,0,0,0-.06-.1.07.07,0,0,0-.1,0h0l-.27.94c-.28-.2-.56-.4-.83-.61a7.92,7.92,0,0,0,.32-1c0-.11-.14-.16-.16,0a8.1,8.1,0,0,1-.3,1l-.68-.52A9.52,9.52,0,0,0,57.1,40c0-.1-.14-.15-.16,0a9.87,9.87,0,0,1-.44,1.59L55.78,41c.15-.7.26-1.4.35-2.1,0-.11-.16-.11-.17,0q-.12,1-.33,2l-.77-.67a17.08,17.08,0,0,0,.47-2C55.35,38.1,55.18,38.05,55.17,38.15Z" fill="#658539"/><path d="M61.8,43.08a17.76,17.76,0,0,1-3.27-5.56,1.79,1.79,0,0,1-.11-.94.66.66,0,0,1,.67-.55.94.94,0,0,1,.53.33A19.81,19.81,0,0,1,62.51,40a7.06,7.06,0,0,1-.95-3.47c0-.19,0-.42.2-.5s.42.1.55.28A10.11,10.11,0,0,1,64,39.56a6.88,6.88,0,0,1,.15-2.22c.07-.29.24-.64.54-.63a.47.47,0,0,1,.39.29,1.24,1.24,0,0,1,.1.5c.09,1.48.09,3,.09,4.46A9.73,9.73,0,0,0,61.8,43.08Z" fill="#396430"/><path d="M63.3,42.52q-1.63-2.19-3.24-4.41l-.9-1.25c-.07-.1-.24,0-.17.1,1,1.48,2.13,3,3.21,4.42l.93,1.24C63.21,42.72,63.38,42.62,63.3,42.52Z" fill="#658539"/><path d="M64.13,42.14a44.12,44.12,0,0,0-2-5.36c-.06-.11-.23,0-.18.1a42.28,42.28,0,0,1,2,5.31.1.1,0,0,0,.13.06A.12.12,0,0,0,64.13,42.14Z" fill="#658539"/><path d="M64.54,37.47c0,1.44-.08,2.88-.11,4.33a.1.1,0,0,0,.1.1.11.11,0,0,0,.1-.1c0-1.45.07-2.89.11-4.33a.1.1,0,0,0-.1-.1A.09.09,0,0,0,64.54,37.47Z" fill="#658539"/><path d="M70.17,40.51a3.73,3.73,0,0,1-.87-1.74c-.09-.51,0-1-.15-1.55a5.82,5.82,0,0,0-1.4-2.29,3.5,3.5,0,0,1-1-2.44,3.4,3.4,0,0,1,.85-1.69,3.06,3.06,0,0,1,1.45-1.13,2.14,2.14,0,0,1,2,.54A3.3,3.3,0,0,1,72,32.13a7.89,7.89,0,0,1,0,2.17,2.48,2.48,0,0,0,.17,1.53,8.57,8.57,0,0,0,.83.88,2.1,2.1,0,0,1,.38,1.49A5.76,5.76,0,0,1,73,39.71c-.23.57-.47,1.12-.73,1.67a1.28,1.28,0,0,1-.25.4c-.33.31-.55-.05-.8-.27A8.67,8.67,0,0,1,70.17,40.51Z" fill="#cbdd59"/><path d="M70.87,31.72a10.5,10.5,0,0,1-1.47,1c-.08-.39-.15-.78-.23-1.18a.08.08,0,0,0-.1-.06.1.1,0,0,0-.07.09c.08.41.16.82.25,1.22a13.39,13.39,0,0,1-1.55-.19c-.11,0-.12.15,0,.17a12.49,12.49,0,0,0,1.6.2c.07.31.13.61.2.92-.45-.07-.91-.12-1.37-.17a.1.1,0,0,0-.1.08.08.08,0,0,0,.08.09l1.44.18c.06.28.12.56.19.84a10.19,10.19,0,0,0-1.1-.22.09.09,0,0,0,0,.17,11.33,11.33,0,0,1,1.16.23l.21.82-.8-.1c-.11,0-.13.15,0,.17l.86.11s0,0,0,0c.06.24.13.49.2.73a3.47,3.47,0,0,0-.55-.08.08.08,0,0,0-.09.08s0,.08.07.09h0L70,37l.15,0h.06l.08,0h0l.24.82-.75-.1a.08.08,0,0,0-.09.08.08.08,0,0,0,.08.09l.81.12c.08.25.15.5.23.76l-1-.14c-.11,0-.12.15,0,.17l1.11.14.24.75-.81-.12a.08.08,0,0,0-.09.08.09.09,0,0,0,.08.09l.88.13c.07.23.15.45.22.68.28.83.58,1.65.9,2.47,0,.1.2,0,.16-.07-.41-1-.78-2.12-1.14-3.19l1.31-1c.08-.06,0-.2-.11-.13l-1.25.94c-.08-.24-.16-.48-.23-.72l1.38-1.1c.09-.07,0-.2-.1-.13l-1.33,1.05,0-.12L70.71,38a10.21,10.21,0,0,0,1.42-1c.08-.07,0-.2-.11-.13a10.9,10.9,0,0,1-1.36,1L70.42,37l1-.81a.07.07,0,0,0,0-.12.09.09,0,0,0-.11,0l-.93.76c-.07-.25-.14-.5-.2-.74l1-.83a.08.08,0,1,0-.1-.13l-1,.77L69.92,35a14.3,14.3,0,0,0,1.13-.93c.08-.07,0-.21-.11-.13a12.56,12.56,0,0,1-1.06.87l-.18-.76s0-.06,0-.09h0L71,32.94c.09-.07,0-.2-.11-.13l-1.25,1c-.07-.31-.13-.62-.2-.93h0a12.15,12.15,0,0,0,1.54-1C71.07,31.78,71,31.65,70.87,31.72Z" fill="#b3c635"/><path d="M64.17,50.51l-.32,0a66.11,66.11,0,0,1-16.15-.1l-.6-.08a1.83,1.83,0,0,1,1.67-1.94,2,2,0,0,1,.73.1,2.51,2.51,0,0,1,.59-2A2.59,2.59,0,0,1,52,45.62a2,2,0,0,1,.71-1.68,2.13,2.13,0,0,1,1.61-.47,3.26,3.26,0,0,1,1.57.65,2,2,0,0,1,1.45-1.52,3.43,3.43,0,0,1,2.2.3,6.12,6.12,0,0,1,1.92,1.46,8.71,8.71,0,0,1,1.22,1.79,15.67,15.67,0,0,1,.9,2.3C63.82,49.13,64,49.82,64.17,50.51Z" fill="#cbdd59"/><path d="M51.26,46.8a.1.1,0,0,0-.1.1.09.09,0,0,0,.1.1.1.1,0,0,0,.1-.1A.11.11,0,0,0,51.26,46.8Z" fill="#b3c635"/><path d="M51.88,46.91a.2.2,0,0,0,0,.4A.2.2,0,0,0,51.88,46.91Z" fill="#b3c635"/><path d="M51.81,46a.3.3,0,0,0,0,.6A.3.3,0,0,0,51.81,46Z" fill="#b3c635"/><path d="M51.24,47.78a.2.2,0,0,0,0,.4A.2.2,0,0,0,51.24,47.78Z" fill="#b3c635"/><path d="M51.67,48.31a.15.15,0,0,0-.15.15.15.15,0,0,0,.3,0A.15.15,0,0,0,51.67,48.31Z" fill="#b3c635"/><path d="M50.62,48.63a.2.2,0,0,0,0,.4A.2.2,0,0,0,50.62,48.63Z" fill="#b3c635"/><path d="M49.13,49.07a.2.2,0,0,0,0,.4A.2.2,0,0,0,49.13,49.07Z" fill="#b3c635"/><path d="M54.56,45.6a.2.2,0,0,0,0,.4A.2.2,0,0,0,54.56,45.6Z" fill="#b3c635"/><path d="M54.24,46.2a.15.15,0,0,0-.15.15.15.15,0,0,0,.3,0A.15.15,0,0,0,54.24,46.2Z" fill="#b3c635"/><path d="M53.67,44.76a.1.1,0,0,0-.1.1.09.09,0,0,0,.1.1.1.1,0,0,0,.1-.1A.11.11,0,0,0,53.67,44.76Z" fill="#b3c635"/><path d="M54.15,44.39a.2.2,0,0,0,0,.4A.2.2,0,0,0,54.15,44.39Z" fill="#b3c635"/><path d="M54.17,45.13a.11.11,0,0,0-.1.1.1.1,0,0,0,.1.1.09.09,0,0,0,.1-.1A.1.1,0,0,0,54.17,45.13Z" fill="#b3c635"/><path d="M56.51,44.49a.09.09,0,0,0-.1.1.1.1,0,0,0,.1.1.11.11,0,0,0,.1-.1A.1.1,0,0,0,56.51,44.49Z" fill="#b3c635"/><path d="M57.2,44.32a.2.2,0,0,0,0,.4A.2.2,0,0,0,57.2,44.32Z" fill="#b3c635"/><path d="M56.81,43.77a.15.15,0,0,0-.15.15.15.15,0,1,0,.3,0A.15.15,0,0,0,56.81,43.77Z" fill="#b3c635"/><path d="M57.52,45.81a.15.15,0,0,0-.15.15.15.15,0,1,0,.3,0A.15.15,0,0,0,57.52,45.81Z" fill="#b3c635"/><path d="M56.78,46.4a.25.25,0,0,0,0,.5A.25.25,0,0,0,56.78,46.4Z" fill="#b3c635"/><path d="M57.7,46.45a.2.2,0,0,0,0,.4A.2.2,0,0,0,57.7,46.45Z" fill="#b3c635"/><path d="M55.52,47.94a.2.2,0,0,0,0,.4A.2.2,0,0,0,55.52,47.94Z" fill="#b3c635"/><path d="M54.61,47.37a.15.15,0,0,0-.15.15.14.14,0,0,0,.15.15.15.15,0,0,0,.15-.15A.15.15,0,0,0,54.61,47.37Z" fill="#b3c635"/><path d="M63.85,50.54a66.11,66.11,0,0,1-16.15-.1v0a1.39,1.39,0,0,1,1-1.16,4,4,0,0,1,1.59-.11,2,2,0,0,1,.59-1.82,1.93,1.93,0,0,1,1.84-.42,1.39,1.39,0,0,1,.65-1.43A1.82,1.82,0,0,1,55,45.35a2.68,2.68,0,0,1,1.26,1.07,2.05,2.05,0,0,1,.89-1.67,3.7,3.7,0,0,1,1.83-.64,6.52,6.52,0,0,1,4.25,1c.15,1.09.3,2.19.43,3.29C63.7,49.15,63.78,49.84,63.85,50.54Z" fill="#dce0bf"/><path d="M76.42,50.93a109,109,0,0,1-12.13-.25l-1.1-.1a1.92,1.92,0,0,0-.29-.5,9.5,9.5,0,0,1-2.35-5.16,3.34,3.34,0,0,1,.25-2.05,2.45,2.45,0,0,1,1.48-1.13,4,4,0,0,1,1.89,0,1.81,1.81,0,0,1,.51-1.9,2.53,2.53,0,0,1,1.93-.63,4.41,4.41,0,0,1,2,.67.61.61,0,0,1,.33-.75.86.86,0,0,1,.86.08,1.67,1.67,0,0,1,.57.69c.14.26.25.55.39.81a1.79,1.79,0,0,1,1.63-1.34,1.85,1.85,0,0,1,1.76,1.23,1,1,0,0,1,.7-.89,1,1,0,0,1,1,.35l.24,2.74h0C76.29,45.48,76.43,48.2,76.42,50.93Z" fill="#92bd55"/><path d="M64,43.51a.13.13,0,0,0-.13.13.13.13,0,1,0,.26,0,.13.13,0,0,0-.13-.13Z" fill="#658539"/><path d="M65,43.53A.22.22,0,0,0,65,44,.22.22,0,0,0,65,43.53Z" fill="#658539"/><path d="M64.68,42.83a.19.19,0,0,0-.17.19.19.19,0,0,0,.17.17.18.18,0,0,0,.16-.19A.19.19,0,0,0,64.68,42.83Z" fill="#658539"/><path d="M66.8,40.64a.27.27,0,0,0,0,.53A.27.27,0,0,0,66.8,40.64Z" fill="#658539"/><path d="M67.56,41a.13.13,0,1,0,0,.26.13.13,0,0,0,0-.26Z" fill="#658539"/><path d="M67.25,41.46a.22.22,0,0,0,0,.44A.22.22,0,0,0,67.25,41.46Z" fill="#658539"/><path d="M70.22,41.18a.18.18,0,0,0-.17.19.17.17,0,0,0,.17.16.18.18,0,0,0,0-.35Z" fill="#658539"/><path d="M71,41.21a.27.27,0,0,0,0,.53A.27.27,0,0,0,71,41.21Z" fill="#658539"/><path d="M70.75,42.22a.22.22,0,0,0,0,.44A.22.22,0,0,0,70.75,42.22Z" fill="#658539"/><path d="M73.8,42.26a.22.22,0,0,0,0,.44A.22.22,0,0,0,73.8,42.26Z" fill="#658539"/><path d="M73.73,41.23a.31.31,0,0,0,0,.62A.31.31,0,0,0,73.73,41.23Z" fill="#658539"/><path d="M73.12,41.75a.17.17,0,0,0-.16.19.16.16,0,0,0,.16.16.18.18,0,0,0,.17-.19A.19.19,0,0,0,73.12,41.75Z" fill="#658539"/><path d="M67.78,43.41a.17.17,0,0,0-.16.19.19.19,0,0,0,.16.16.19.19,0,0,0,.17-.19A.17.17,0,0,0,67.78,43.41Z" fill="#658539"/><path d="M68.29,43.65a.22.22,0,0,0,0,.44A.22.22,0,0,0,68.29,43.65Z" fill="#658539"/><path d="M62.18,44.71a.22.22,0,0,0,0,.44A.22.22,0,0,0,62.18,44.71Z" fill="#658539"/><path d="M62.67,45.11a.32.32,0,0,0,0,.63A.32.32,0,0,0,62.67,45.11Z" fill="#658539"/><path d="M62.45,43.69a.18.18,0,0,0-.17.19.19.19,0,0,0,.17.17.18.18,0,0,0,.16-.19A.19.19,0,0,0,62.45,43.69Z" fill="#658539"/><path d="M75,43.51a.18.18,0,0,0,0,.35.18.18,0,0,0,.17-.19A.17.17,0,0,0,75,43.51Z" fill="#658539"/><path d="M62.49,47.27a.22.22,0,0,0,0,.44A.22.22,0,0,0,62.49,47.27Z" fill="#658539"/><path d="M63,47.67a.31.31,0,0,0,0,.62A.31.31,0,0,0,63,47.67Z" fill="#658539"/><path d="M63.18,47.07a.17.17,0,0,0-.16.19.16.16,0,0,0,.16.16.19.19,0,0,0,.17-.19A.17.17,0,0,0,63.18,47.07Z" fill="#658539"/><path d="M66.6,43.3a.17.17,0,0,0-.16.19.16.16,0,0,0,.16.16.17.17,0,0,0,.16-.19A.17.17,0,0,0,66.6,43.3Z" fill="#658539"/><path d="M66.21,42.86a.09.09,0,0,0-.08.1s0,.07.08.08a.1.1,0,0,0,.08-.1A.11.11,0,0,0,66.21,42.86Z" fill="#658539"/><path d="M65.31,40.65a.09.09,0,1,0,.09.09A.09.09,0,0,0,65.31,40.65Z" fill="#658539"/><path d="M65.68,40.73a.18.18,0,0,0-.17.19.17.17,0,0,0,.17.16.18.18,0,0,0,0-.35Z" fill="#658539"/><path d="M72.53,40.11a.18.18,0,0,0,0,.36.17.17,0,0,0,.16-.19A.17.17,0,0,0,72.53,40.11Z" fill="#658539"/><path d="M72.14,40.14a.09.09,0,0,0-.08.1s0,.07.08.08a.1.1,0,0,0,.08-.1A.11.11,0,0,0,72.14,40.14Z" fill="#658539"/><path d="M76.42,50.93a109,109,0,0,1-12.13-.25,7.48,7.48,0,0,1-2.07-4.3,2.77,2.77,0,0,1,.2-1.66,1.89,1.89,0,0,1,1.44-.93,2.54,2.54,0,0,1,1.69.46,4.86,4.86,0,0,1-.22-1.31,1.83,1.83,0,0,1,.42-1.24,1.76,1.76,0,0,1,1.87-.41,3.29,3.29,0,0,1,1.55,1.26,1.51,1.51,0,0,1,0-.52.57.57,0,0,1,.27-.42.59.59,0,0,1,.52,0,1.35,1.35,0,0,1,.4.35,8.26,8.26,0,0,1,.68.88,1.16,1.16,0,0,1,.19-1.16.83.83,0,0,1,.9-.3,1.07,1.07,0,0,1,.46.41,4.49,4.49,0,0,1,.72,1.59A2.12,2.12,0,0,1,74.05,42a1.27,1.27,0,0,1,1.2,0,2.09,2.09,0,0,1,.84.8h0C76.29,45.48,76.43,48.2,76.42,50.93Z" fill="#bed8b7"/><path d="M73.68,49.48a2.66,2.66,0,0,1-1.81-1c-.26-.39-.37-.87-.59-1.28a4.17,4.17,0,0,0-1.8-1.65c-.45-.23-.92-.42-1.36-.7a2.52,2.52,0,0,1-1-1.1,2.75,2.75,0,0,1,0-1.79,6.78,6.78,0,0,1,1-2.12,2.24,2.24,0,0,1,1-.85,2.06,2.06,0,0,1,1.86.52,4.63,4.63,0,0,1,1.53,2.28c.26.92.27,2,.93,2.68a11.15,11.15,0,0,0,1.67,1.09,2.68,2.68,0,0,1,1,1.81,2.64,2.64,0,0,1-.51,1.94C75.32,49.69,74.19,49.56,73.68,49.48Z" fill="#396430"/><path d="M70.6,40.44a18.54,18.54,0,0,1-.87,2.05c-.34-.42-.68-.85-1-1.29-.08-.1-.24,0-.16.1.32.44.66.88,1,1.3a10.72,10.72,0,0,1-1.8.64c-.13,0-.06.21.06.18a11.22,11.22,0,0,0,1.87-.66l.8,1a6.21,6.21,0,0,1-1.62.61c-.12,0-.06.21.06.18a6.4,6.4,0,0,0,1.69-.64c.22.26.44.52.67.77l-1.15.49c-.11,0-.05.24.06.19l1.19-.52,0,0,.66.72,0,0a4.36,4.36,0,0,1-1.12.38.1.1,0,0,0-.07.13.09.09,0,0,0,.08.06,4.31,4.31,0,0,0,1.25-.43c.27.29.54.57.82.85L71.8,47c-.12,0,0,.23.06.19l1.34-.53h0l.72.71a5.59,5.59,0,0,1-1.47.67c-.12,0,0,.21.07.18a5.82,5.82,0,0,0,1.54-.71l.72.67a7.65,7.65,0,0,1-1.27.66c-.12,0-.06.23.06.18a7.29,7.29,0,0,0,1.36-.7c.36.33.72.66,1.09,1,.78.68,1.58,1.34,2.41,2,.1.07.23-.07.13-.15q-1.83-1.4-3.52-2.94a8.09,8.09,0,0,1,.53-1.42.1.1,0,0,0-.08-.11.1.1,0,0,0-.1,0A9.14,9.14,0,0,0,74.89,48l-.48-.46-.21-.2c.17-.4.33-.81.5-1.21,0-.12-.12-.2-.17-.09l-.48,1.16-.69-.67.51-1.08a.09.09,0,0,0-.06-.12.11.11,0,0,0-.11,0l-.48,1-.83-.85A8,8,0,0,0,73,44.43c.05-.11-.13-.2-.17-.08a8.73,8.73,0,0,1-.53,1.06l-.67-.72a10.76,10.76,0,0,0,.85-1.78c0-.12-.13-.2-.17-.09a10.3,10.3,0,0,1-.81,1.71c-.24-.26-.47-.53-.7-.8.29-.75.56-1.52.79-2.3,0-.12-.16-.16-.19,0-.22.74-.46,1.46-.74,2.18-.26-.3-.51-.6-.76-.91a18.38,18.38,0,0,0,.92-2.14C70.82,40.41,70.65,40.32,70.6,40.44Z" fill="#658539"/><path d="M72.17,52.57a33.93,33.93,0,0,1-3.89-3.18,11.41,11.41,0,0,1-2.76-4.14c-.15-.43-.23-1,.14-1.25s.81,0,1.15.19a17.6,17.6,0,0,1,4.72,5.45,12.48,12.48,0,0,1-2.41-4.12c-.1-.29-.14-.69.14-.82s.48.08.66.25a24.22,24.22,0,0,1,3,3.8,3.88,3.88,0,0,1-.57-1.38.4.4,0,0,1,0-.34.3.3,0,0,1,.37-.05.84.84,0,0,1,.27.29,9.75,9.75,0,0,1,1,3C73.36,51.08,72.83,51.81,72.17,52.57Z" fill="#cbdd59"/><path d="M66.56,45.16c-.1-.12-.29,0-.19.13A42.48,42.48,0,0,0,71,50.07c.47.41,1,.82,1.44,1.21.12.1.27-.08.15-.17a41.69,41.69,0,0,1-4.78-4.52C67.37,46.12,67,45.64,66.56,45.16Z" fill="#b3c635"/><path d="M70,46.16,73,50.71c.08.13.27,0,.19-.13L70.2,46C70.12,45.91,69.92,46,70,46.16Z" fill="#b3c635"/><path d="M72.87,48.14a16,16,0,0,1,.53,2.06c0,.14.26.13.23,0a20,20,0,0,0-.54-2.12.12.12,0,0,0-.22.08Z" fill="#b3c635"/><path d="M61.17,52.45a2.3,2.3,0,0,1-1.82-.05,10.19,10.19,0,0,1-1-.74,3.58,3.58,0,0,0-2.06-.51c-.44,0-.89.05-1.33,0a2.18,2.18,0,0,1-1.24-.42A2.42,2.42,0,0,1,53,49.37a6,6,0,0,1-.07-2.07,2,2,0,0,1,.44-1.08A1.84,1.84,0,0,1,55,45.85,4,4,0,0,1,57.13,47c.59.6,1,1.41,1.82,1.68a11.24,11.24,0,0,0,1.74.14,2.34,2.34,0,0,1,1.55,1,2.3,2.3,0,0,1,.41,1.7C62.51,51.93,61.59,52.3,61.17,52.45Z" fill="#92bd55"/><path d="M55.06,46.78a15.72,15.72,0,0,1,.18,1.94l-1.31-.58a.09.09,0,0,0-.08.15l1.31.58A10.11,10.11,0,0,1,54,50.1c-.08.07,0,.19.13.12a10.9,10.9,0,0,0,1.16-1.29l1,.41a5.67,5.67,0,0,1-1,1.14c-.08.07,0,.18.12.11a5.27,5.27,0,0,0,1-1.18l.83.31-.67.85c-.07.09.05.2.12.12l.7-.89v0l.8.27,0,0a3.66,3.66,0,0,1-.71.76.1.1,0,0,0,0,.12.08.08,0,0,0,.12,0,4.19,4.19,0,0,0,.79-.84l1,.31-.76.91c-.07.08,0,.2.12.12l.81-1h0l.84.25a4.87,4.87,0,0,1-.85,1.12c-.08.07,0,.19.12.11a5.13,5.13,0,0,0,.9-1.18l.83.22a6.51,6.51,0,0,1-.71,1c-.07.08,0,.2.12.11a6.94,6.94,0,0,0,.76-1.1c.41.11.82.21,1.24.3.88.2,1.77.37,2.66.51.11,0,.15-.14,0-.16-1.32-.21-2.62-.48-3.92-.81a7.14,7.14,0,0,1-.18-1.3.08.08,0,0,0-.1-.07.08.08,0,0,0-.07.08,7.54,7.54,0,0,0,.17,1.24l-.56-.15-.25-.07c0-.38-.07-.76-.11-1.14a.09.09,0,0,0-.17,0c0,.36.07.72.11,1.08l-.8-.23-.06-1a.09.09,0,0,0-.17,0l0,1-1-.31a6.71,6.71,0,0,0,0-1.1c0-.11-.18-.1-.17,0a6,6,0,0,1,0,1l-.8-.28a9.87,9.87,0,0,0-.09-1.72.09.09,0,0,0-.17,0,9.08,9.08,0,0,1,.09,1.65l-.87-.33c-.08-.7-.2-1.4-.35-2.1,0-.11-.18,0-.16,0q.21,1,.33,2c-.32-.12-.63-.25-1-.39a17.22,17.22,0,0,0-.18-2C55.21,46.66,55,46.67,55.06,46.78Z" fill="#658539"/></g></svg>