<svg height="512" viewBox="0 0 53 59" width="512" xmlns="http://www.w3.org/2000/svg"><g id="022---India-Location-Pin"><path id="Shape" d="m23 16c0-2.209139-1.790861-4-4-4s-4 1.790861-4 4 1.790861 4 4 4 4-1.790861 4-4zm-6 0c0-1.1045695.8954305-2 2-2s2 .8954305 2 2-.8954305 2-2 2-2-.8954305-2-2z"/><path id="Shape" d="m52.4 11.57c-.72-.59-2.62-1.19-5 .4-3 2-2.74 4.89-5.74 5.89-1.89.62-2.18-1.89-2.74-3.27-.1267379-.3090463-.399411-.5344082-.7267932-.600688s-.6662409.035275-.9032068.270688l-1.39 1.19c-.3032856.30298-.3797132.765568-.19 1.15l.56.78c.1897132.384432.1132856.84702-.19 1.15l-1.28 1.12c-.25927.2655008-.6442452.3655944-1 .26l-1.59-.48c-.4605608-.1491344-.9618094.0530499-1.19.48-.3339686.6042835-1.0920513.827249-1.7.5l-2.26-1.23c.5353837-1.1024873.8544744-2.2973802.94-3.52-.0590143-4.5974713-3.6511357-8.3726862-8.24-8.66.5215558-.93972623 1.1976818-1.7848837 2-2.5.3516962-.33586597.410779-.87605081.14-1.28l-1-1.52c-.2797259-.42011466-.8286691-.56592772-1.28-.34l-2.62 1.31c-.384432.18971316-.84702.11328557-1.15-.19l-2.2-2.19c-.1737684-.1731119-.4050999-.27632131-.65-.29h-3.46c-.33262608-.00050114-.64372956.16442118-.83.44l-1.15 1.72c-.14789515.22124691-.20150024.49231949-.14894771.75320529.05255254.26088581.2069274.49006314.42894771.63679471l1.43 1c.42011466.27972587.56592772.82866912.34 1.28l-.11.17c-.21302546.42941594-.09137045.949596.29 1.24l3 2.18c-1.6332288 1.5041998-2.6070634 3.592015-2.71 5.81l-2.17 2.94c-.27972587.4201147-.82866912.5659277-1.28.34l-.69-.44c-.45133088-.2259277-1.00027413-.0801147-1.28.34l-1.07 2.1c-.20266981.3242708-.20266981.7357292 0 1.06l1.72 2.3c.20498898.3466147.18207156.7823679-.05814478 1.1055681-.24021633.3232001-.6508575.4707803-1.04185522.3744319l-1.27-.35c-.35575478-.1055944-.74072997-.0055008-1 .26l-.7.69c-.21921073.2188167-.32465319.5268607-.28551316.83411.03914004.3072493.21844423.5790198.48551316.73589l1.8 1.25c.33099944.2023942.51505917.5779781.47221458.9635794-.0428446.3856013-.30486029.7116212-.67221458.8364206-.27248877.1045203-.48571984.3228631-.5837568.5977511-.09803696.2748879-.07109553.5788867.0737568.8322489.72686919.9030884 1.73269585 1.5396431 2.86 1.81.50185734.2660698 1.09744528.2896085 1.61873561.0639754.52129034-.2256331.91176564-.6759754 1.06126439-1.2239754.11149263-.3287405.38549421-.5761433.72387385-.6536037.33837965-.0774604.69272321.0261044.93612615.2736037l.37.38c.1799761.1813033.28374.4246119.29.68 0 1.66.26 8.07 2 11.53 2 4 5 8 5 11-.1037278.6448089.1292015 1.297916.6175571 1.7315596.4883556.4336435 1.1644266.5876985 1.7924429.4084404.3174332-.0476608.5926922-.2448057.74-.53.405075-.9305183 1.3060063-1.5479669 2.32-1.59.5329-.0628027.9212491-.5349999.88-1.07-.34-1.9 1.65-4.48 1.65-6.91-.0446885-1.4286143-.36737-2.8348264-.95-4.14-.1392108-.4244546.0199722-.8897586.39-1.14 1.9976687-1.383739 3.8593653-2.9541269 5.56-4.69l5.72-5.72c.1687251-.1686817.271582-.3921294.29-.63.0539514-.8630071.4076555-1.6800635 1-2.31.43-.42 1.27-.33 1.83-.26.72.09 1.35-.87 1.13-1.56-.6694327-1.4974447-1.5930734-2.8676808-2.73-4.05-.367601-.4023288-.3453656-1.02492.05-1.4l.93-.78c.30298-.3032856.765568-.3797132 1.15-.19l1.22.77c.2417528.1109159.5159332.1287198.77.05l.91-.36c.3451881-.1121364.724036-.0284373.989852.2186886.2658161.2471258.376865.6188777.290148.9713114l-.52 1.47c-.1231488.479825.1235585.9774932.58 1.17l2.31 1.5c.2550098.1287045.5528869.1422112.818498.0371132.2656112-.1050979.4735987-.3187668.571502-.5871132.58-1.62 1.74-5.18 1.74-7.32s2-2.74 2.86-2.95c.4333092-.1357475.7207659-.5463999.7-1v-1.75c.091668-.6249179-.1331958-1.2545364-.6-1.68zm-33.4-2.57c1.8115866-.04565225 3.5670561.63050649 4.8799354 1.8796174 1.3128794 1.2491109 2.0755347 2.968768 2.1200646 4.7803826 0 1.64-1.62 5-4.42 9.15-.5.77-1.5 2.17-2.07 3-.1288916.1426415-.3191977.2135398-.51.19-.1923652.0031867-.3745914-.0860669-.49-.24-.13-.18-1-1.28-2-2.78-.15-.23-.1-.17-.16-.23s-4.35-6.34-4.35-9.09c.0445299-1.8116146.8071852-3.5312717 2.1200646-4.7803826 1.3128793-1.24911091 3.0683488-1.92526965 4.8799354-1.8796174zm0 26c-3.3137085 0-6-2.6862915-6-6-.0060108-1.3730646.4719745-2.7043421 1.35-3.76.39.6.79 1.19 1.19 1.77-.3539099.6034479-.5403265 1.2904276-.54 1.99 0 2.209139 1.790861 4 4 4s4-1.790861 4-4c.0021825-.6845506-.1772522-1.3574308-.52-1.95.4-.58.81-1.18 1.2-1.78.8606144 1.0518633 1.3274223 2.3709494 1.32 3.73 0 1.5912989-.632141 3.1174224-1.7573593 4.2426407s-2.6513418 1.7573593-4.2426407 1.7573593z"/></g></svg>