<svg id="Layer_3" enable-background="new 0 0 64 64" height="512" viewBox="0 0 64 64" width="512" xmlns="http://www.w3.org/2000/svg"><g><path d="m7 12.414v14.586h4v-9c0-.553.448-1 1-1h8c.552 0 1 .447 1 1v9h4v-14.586l-9-9z"/><path d="m23 7.586 2 2v-6.586h-2z"/><path d="m19 19h-6v8h6zm-3 6h-2v-2h2z"/><path d="m39 12.414v14.586h4v-9c0-.553.448-1 1-1h8c.552 0 1 .447 1 1v9h4v-14.586l-9-9z"/><path d="m55 3v4.586l2 2v-6.586z"/><path d="m51 19h-6v8h6zm-3 6h-2v-2h2z"/><path d="m23 41.586 2 2v-6.586h-2z"/><path d="m7 46.414v14.586h4v-9c0-.553.448-1 1-1h8c.552 0 1 .447 1 1v9h4v-14.586l-9-9z"/><path d="m13 61h6v-8h-6zm1-4h2v2h-2z"/><path d="m45 61h6v-8h-6zm1-4h2v2h-2z"/><path d="m55 41.586 2 2v-6.586h-2z"/><path d="m39 46.414v14.586h4v-9c0-.553.448-1 1-1h8c.552 0 1 .447 1 1v9h4v-14.586l-9-9z"/></g></svg>